<?xml version="1.0" encoding="utf-8" ?>
<!DOCTYPE svg PUBLIC "-//W3C//DTD SVG 1.1//EN" "http://www.w3.org/Graphics/SVG/1.1/DTD/svg11.dtd">
<svg height="1164" version="1.1" width="1284" xmlns="http://www.w3.org/2000/svg">
<polygon fill="#ffffff" points="18,586 627,586 637,596 637,1149 18,1149 18,586" stroke="#ffffff" stroke-width="1"/>
<polyline fill="none" points="18,586 627,586 637,596 637,1149 18,1149 18,586" stroke="#000000" stroke-width="1"/>
<polygon fill="#ffffff" points="627,586 637,596 627,596 627,586" stroke="#ffffff" stroke-width="1"/>
<polyline fill="none" points="627,586 637,596 627,596 627,586" stroke="#000000" stroke-width="1"/>
<text font-family="Dialog" font-size="12" x="21" y="602">
Model</text>
<polygon fill="#c8c8ff" points="62,878 560,878 560,902 609,902 609,1113 62,1113 62,878" stroke="#c8c8ff" stroke-width="1"/>
<rect fill="none" height="24" stroke="#000000" stroke-width="1" width="498" x="62" y="878"/>
<text font-family="Dialog" font-size="12" x="67" y="892">
mytalk::client::collection</text>
<rect fill="none" height="211" stroke="#000000" stroke-width="1" width="547" x="62" y="902"/>
<polygon fill="#ffffff" points="14,14 783,14 793,24 793,529 14,529 14,14" stroke="#ffffff" stroke-width="1"/>
<polyline fill="none" points="14,14 783,14 793,24 793,529 14,529 14,14" stroke="#000000" stroke-width="1"/>
<polygon fill="#ffffff" points="783,14 793,24 783,24 783,14" stroke="#ffffff" stroke-width="1"/>
<polyline fill="none" points="783,14 793,24 783,24 783,14" stroke="#000000" stroke-width="1"/>
<text font-family="Dialog" font-size="12" x="17" y="30">
View</text>
<polygon fill="#c8ffc8" points="54,70 724,70 724,94 773,94 773,501 54,501 54,70" stroke="#c8ffc8" stroke-width="1"/>
<rect fill="none" height="24" stroke="#000000" stroke-width="1" width="670" x="54" y="70"/>
<text font-family="Dialog" font-size="12" x="59" y="84">
mytalk::client::view</text>
<rect fill="none" height="407" stroke="#000000" stroke-width="1" width="719" x="54" y="94"/>
<rect fill="#ffffff" height="67" stroke="#ffffff" stroke-width="1" width="147" x="66" y="226"/>
<rect fill="none" height="67" stroke="#000000" stroke-width="1" width="147" x="66" y="226"/>
<text font-family="Dialog" font-size="12" x="88" y="240">
AuthenticationView</text>
<rect fill="#000000" height="1" stroke="#000000" stroke-width="1" width="147" x="66" y="250"/>
<rect fill="#000000" height="1" stroke="#000000" stroke-width="1" width="147" x="66" y="271"/>
<rect fill="#ffffff" height="67" stroke="#ffffff" stroke-width="1" width="66" x="398" y="310"/>
<rect fill="none" height="67" stroke="#000000" stroke-width="1" width="66" x="398" y="310"/>
<text font-family="Dialog" font-size="12" x="405" y="324">
SideView</text>
<rect fill="#000000" height="1" stroke="#000000" stroke-width="1" width="66" x="398" y="334"/>
<rect fill="#000000" height="1" stroke="#000000" stroke-width="1" width="66" x="398" y="355"/>
<rect fill="#ffffff" height="67" stroke="#ffffff" stroke-width="1" width="66" x="686" y="406"/>
<rect fill="none" height="67" stroke="#000000" stroke-width="1" width="66" x="686" y="406"/>
<text font-family="Dialog" font-size="12" x="695" y="420">
CallView</text>
<rect fill="#000000" height="1" stroke="#000000" stroke-width="1" width="66" x="686" y="430"/>
<rect fill="#000000" height="1" stroke="#000000" stroke-width="1" width="66" x="686" y="451"/>
<rect fill="#ffffff" height="67" stroke="#ffffff" stroke-width="1" width="84" x="554" y="227"/>
<rect fill="none" height="67" stroke="#000000" stroke-width="1" width="84" x="554" y="227"/>
<text font-family="Dialog" font-size="12" x="570" y="241">
ChatView</text>
<rect fill="#000000" height="1" stroke="#000000" stroke-width="1" width="84" x="554" y="251"/>
<rect fill="#000000" height="1" stroke="#000000" stroke-width="1" width="84" x="554" y="272"/>
<rect fill="#ffffff" height="67" stroke="#ffffff" stroke-width="1" width="126" x="74" y="314"/>
<rect fill="none" height="67" stroke="#000000" stroke-width="1" width="126" x="74" y="314"/>
<text font-family="Dialog" font-size="12" x="93" y="328">
NotificationView</text>
<rect fill="#000000" height="1" stroke="#000000" stroke-width="1" width="126" x="74" y="338"/>
<rect fill="#000000" height="1" stroke="#000000" stroke-width="1" width="126" x="74" y="359"/>
<rect fill="#ffffff" height="67" stroke="#ffffff" stroke-width="1" width="106" x="542" y="406"/>
<rect fill="none" height="67" stroke="#000000" stroke-width="1" width="106" x="542" y="406"/>
<text font-family="Dialog" font-size="12" x="555" y="420">
UserDataView</text>
<rect fill="#000000" height="1" stroke="#000000" stroke-width="1" width="106" x="542" y="430"/>
<rect fill="#000000" height="1" stroke="#000000" stroke-width="1" width="106" x="542" y="451"/>
<rect fill="#ffffff" height="67" stroke="#ffffff" stroke-width="1" width="86" x="390" y="222"/>
<rect fill="none" height="67" stroke="#000000" stroke-width="1" width="86" x="390" y="222"/>
<text font-family="Dialog" font-size="12" x="395" y="236">
StatisticsView</text>
<rect fill="#000000" height="1" stroke="#000000" stroke-width="1" width="86" x="390" y="246"/>
<rect fill="#000000" height="1" stroke="#000000" stroke-width="1" width="86" x="390" y="267"/>
<rect fill="#ffffff" height="67" stroke="#ffffff" stroke-width="1" width="155" x="602" y="315"/>
<rect fill="none" height="67" stroke="#000000" stroke-width="1" width="155" x="602" y="315"/>
<text font-family="Dialog" font-size="12" x="621" y="329">
RecordMessageView</text>
<rect fill="#000000" height="1" stroke="#000000" stroke-width="1" width="155" x="602" y="339"/>
<rect fill="#000000" height="1" stroke="#000000" stroke-width="1" width="155" x="602" y="360"/>
<polygon fill="#c8c8ff" points="58,619 564,619 564,643 613,643 613,833 58,833 58,619" stroke="#c8c8ff" stroke-width="1"/>
<rect fill="none" height="24" stroke="#000000" stroke-width="1" width="506" x="58" y="619"/>
<text font-family="Dialog" font-size="12" x="63" y="633">
mytalk::client::model</text>
<rect fill="none" height="190" stroke="#000000" stroke-width="1" width="555" x="58" y="643"/>
<line fill="#000000" stroke="#000000" stroke-width="1" x1="294" x2="294" y1="502" y2="507"/>
<line fill="#000000" stroke="#000000" stroke-width="1" x1="294" x2="294" y1="512" y2="517"/>
<line fill="#000000" stroke="#000000" stroke-width="1" x1="294" x2="294" y1="522" y2="527"/>
<line fill="#000000" stroke="#000000" stroke-width="1" x1="294" x2="294" y1="532" y2="537"/>
<line fill="#000000" stroke="#000000" stroke-width="1" x1="294" x2="294" y1="542" y2="547"/>
<line fill="#000000" stroke="#000000" stroke-width="1" x1="294" x2="294" y1="552" y2="557"/>
<line fill="#000000" stroke="#000000" stroke-width="1" x1="294" x2="294" y1="562" y2="567"/>
<line fill="#000000" stroke="#000000" stroke-width="1" x1="294" x2="294" y1="572" y2="577"/>
<line fill="#000000" stroke="#000000" stroke-width="1" x1="294" x2="294" y1="582" y2="587"/>
<line fill="#000000" stroke="#000000" stroke-width="1" x1="294" x2="294" y1="592" y2="597"/>
<line fill="#000000" stroke="#000000" stroke-width="1" x1="294" x2="294" y1="602" y2="607"/>
<line fill="#000000" stroke="#000000" stroke-width="1" x1="294" x2="294" y1="612" y2="617"/>
<line fill="#000000" stroke="#000000" stroke-width="1" x1="287" x2="294" y1="607" y2="619"/>
<line fill="#000000" stroke="#000000" stroke-width="1" x1="301" x2="294" y1="607" y2="619"/>
<rect fill="#ffffff" height="68" stroke="#ffffff" stroke-width="1" width="102" x="654" y="226"/>
<rect fill="none" height="68" stroke="#000000" stroke-width="1" width="102" x="654" y="226"/>
<text font-family="Dialog" font-size="12" x="671" y="240">
TutorialView</text>
<rect fill="#000000" height="1" stroke="#000000" stroke-width="1" width="102" x="654" y="250"/>
<rect fill="#000000" height="1" stroke="#000000" stroke-width="1" width="102" x="654" y="271"/>
<rect fill="#ffffff" height="68" stroke="#ffffff" stroke-width="1" width="108" x="82" y="402"/>
<rect fill="none" height="68" stroke="#000000" stroke-width="1" width="108" x="82" y="402"/>
<text font-family="Dialog" font-size="12" x="98" y="416">
SendFileView</text>
<rect fill="#000000" height="1" stroke="#000000" stroke-width="1" width="108" x="82" y="426"/>
<rect fill="#000000" height="1" stroke="#000000" stroke-width="1" width="108" x="82" y="447"/>
<rect fill="#ffffff" height="67" stroke="#ffffff" stroke-width="1" width="99" x="230" y="403"/>
<rect fill="none" height="67" stroke="#000000" stroke-width="1" width="99" x="230" y="403"/>
<text font-family="Dialog" font-size="12" x="239" y="417">
FunctionsView</text>
<rect fill="#000000" height="1" stroke="#000000" stroke-width="1" width="99" x="230" y="427"/>
<rect fill="#000000" height="1" stroke="#000000" stroke-width="1" width="99" x="230" y="448"/>
<rect fill="#ffffff" height="67" stroke="#ffffff" stroke-width="1" width="104" x="278" y="118"/>
<rect fill="none" height="67" stroke="#000000" stroke-width="1" width="104" x="278" y="118"/>
<text font-family="Dialog" font-size="12" x="288" y="132">
Backbone.View</text>
<rect fill="#000000" height="1" stroke="#000000" stroke-width="1" width="104" x="278" y="142"/>
<rect fill="#000000" height="1" stroke="#000000" stroke-width="1" width="104" x="278" y="163"/>
<polyline fill="none" points="126,226 126,134 278,134" stroke="#000000" stroke-width="1"/>
<polygon fill="#ffffff" points="278,134 266,141 266,127" stroke="#ffffff" stroke-width="1"/>
<polygon fill="none" points="278,134 266,141 266,127" stroke="#000000" stroke-width="1"/>
<polyline fill="none" points="398,342 358,342 358,184" stroke="#000000" stroke-width="1"/>
<polygon fill="#ffffff" points="358,184 365,196 351,196" stroke="#ffffff" stroke-width="1"/>
<polygon fill="none" points="358,184 365,196 351,196" stroke="#000000" stroke-width="1"/>
<polyline fill="none" points="686,406 518,374 518,166 381,166" stroke="#000000" stroke-width="1"/>
<polygon fill="#ffffff" points="381,166 393,159 393,173" stroke="#ffffff" stroke-width="1"/>
<polygon fill="none" points="381,166 393,159 393,173" stroke="#000000" stroke-width="1"/>
<polyline fill="none" points="598,227 598,134 381,134" stroke="#000000" stroke-width="1"/>
<polygon fill="#ffffff" points="381,134 393,127 393,141" stroke="#ffffff" stroke-width="1"/>
<polygon fill="none" points="381,134 393,127 393,141" stroke="#000000" stroke-width="1"/>
<polyline fill="none" points="706,226 706,118 381,118" stroke="#000000" stroke-width="1"/>
<polygon fill="#ffffff" points="381,118 393,111 393,125" stroke="#ffffff" stroke-width="1"/>
<polygon fill="none" points="381,118 393,111 393,125" stroke="#000000" stroke-width="1"/>
<polyline fill="none" points="199,346 242,346 242,154 278,154" stroke="#000000" stroke-width="1"/>
<polygon fill="#ffffff" points="278,154 266,161 266,147" stroke="#ffffff" stroke-width="1"/>
<polygon fill="none" points="278,154 266,161 266,147" stroke="#000000" stroke-width="1"/>
<polyline fill="none" points="542,438 502,438 502,182 381,182" stroke="#000000" stroke-width="1"/>
<polygon fill="#ffffff" points="381,182 393,175 393,189" stroke="#ffffff" stroke-width="1"/>
<polygon fill="none" points="381,182 393,175 393,189" stroke="#000000" stroke-width="1"/>
<polyline fill="none" points="390,254 374,254 374,184" stroke="#000000" stroke-width="1"/>
<polygon fill="#ffffff" points="374,184 381,196 367,196" stroke="#ffffff" stroke-width="1"/>
<polygon fill="none" points="374,184 381,196 367,196" stroke="#000000" stroke-width="1"/>
<polyline fill="none" points="602,366 538,366 538,150 381,150" stroke="#000000" stroke-width="1"/>
<polygon fill="#ffffff" points="381,150 393,143 393,157" stroke="#ffffff" stroke-width="1"/>
<polygon fill="none" points="381,150 393,143 393,157" stroke="#000000" stroke-width="1"/>
<polyline fill="none" points="189,402 294,338 294,184" stroke="#000000" stroke-width="1"/>
<polygon fill="#ffffff" points="294,184 301,196 287,196" stroke="#ffffff" stroke-width="1"/>
<polygon fill="none" points="294,184 301,196 287,196" stroke="#000000" stroke-width="1"/>
<polyline fill="none" points="316,403 316,184" stroke="#000000" stroke-width="1"/>
<polygon fill="#ffffff" points="316,184 323,196 309,196" stroke="#ffffff" stroke-width="1"/>
<polygon fill="none" points="316,184 323,196 309,196" stroke="#000000" stroke-width="1"/>
<polygon fill="#ffff99" points="854,70 1220,70 1220,94 1269,94 1269,501 854,501 854,70" stroke="#ffff99" stroke-width="1"/>
<rect fill="none" height="24" stroke="#000000" stroke-width="1" width="366" x="854" y="70"/>
<text font-family="Dialog" font-size="12" x="859" y="84">
mytalk::client::communication</text>
<rect fill="none" height="407" stroke="#000000" stroke-width="1" width="415" x="854" y="94"/>
<rect fill="#ffffff" height="67" stroke="#ffffff" stroke-width="1" width="147" x="1102" y="294"/>
<rect fill="none" height="67" stroke="#000000" stroke-width="1" width="147" x="1102" y="294"/>
<text font-family="Dialog" font-size="12" x="1107" y="308">
SendFileCommunication</text>
<rect fill="#000000" height="1" stroke="#000000" stroke-width="1" width="147" x="1102" y="318"/>
<rect fill="#000000" height="1" stroke="#000000" stroke-width="1" width="147" x="1102" y="339"/>
<rect fill="#ffffff" height="67" stroke="#ffffff" stroke-width="1" width="198" x="878" y="118"/>
<rect fill="none" height="67" stroke="#000000" stroke-width="1" width="198" x="878" y="118"/>
<text font-family="Dialog" font-size="12" x="894" y="132">
AuthenticationCommunication</text>
<rect fill="#000000" height="1" stroke="#000000" stroke-width="1" width="198" x="878" y="142"/>
<rect fill="#000000" height="1" stroke="#000000" stroke-width="1" width="198" x="878" y="163"/>
<rect fill="#ffffff" height="67" stroke="#ffffff" stroke-width="1" width="162" x="1022" y="206"/>
<rect fill="none" height="67" stroke="#000000" stroke-width="1" width="162" x="1022" y="206"/>
<text font-family="Dialog" font-size="12" x="1034" y="220">
ContactsCommunication</text>
<rect fill="#000000" height="1" stroke="#000000" stroke-width="1" width="162" x="1022" y="230"/>
<rect fill="#000000" height="1" stroke="#000000" stroke-width="1" width="162" x="1022" y="251"/>
<rect fill="#ffffff" height="67" stroke="#ffffff" stroke-width="1" width="128" x="878" y="206"/>
<rect fill="none" height="67" stroke="#000000" stroke-width="1" width="128" x="878" y="206"/>
<text font-family="Dialog" font-size="12" x="887" y="220">
CallCommunication</text>
<rect fill="#000000" height="1" stroke="#000000" stroke-width="1" width="128" x="878" y="230"/>
<rect fill="#000000" height="1" stroke="#000000" stroke-width="1" width="128" x="878" y="251"/>
<rect fill="#ffffff" height="67" stroke="#ffffff" stroke-width="1" width="177" x="878" y="382"/>
<rect fill="none" height="67" stroke="#000000" stroke-width="1" width="177" x="878" y="382"/>
<text font-family="Dialog" font-size="12" x="892" y="396">
NotificationCommunication</text>
<rect fill="#000000" height="1" stroke="#000000" stroke-width="1" width="177" x="878" y="406"/>
<rect fill="#000000" height="1" stroke="#000000" stroke-width="1" width="177" x="878" y="427"/>
<rect fill="#ffffff" height="67" stroke="#ffffff" stroke-width="1" width="206" x="878" y="294"/>
<rect fill="none" height="67" stroke="#000000" stroke-width="1" width="206" x="878" y="294"/>
<text font-family="Dialog" font-size="12" x="891" y="308">
RecordMessageCommunication</text>
<rect fill="#000000" height="1" stroke="#000000" stroke-width="1" width="206" x="878" y="318"/>
<rect fill="#000000" height="1" stroke="#000000" stroke-width="1" width="206" x="878" y="339"/>
<rect fill="#ffffff" height="67" stroke="#ffffff" stroke-width="1" width="153" x="1094" y="118"/>
<rect fill="none" height="67" stroke="#000000" stroke-width="1" width="153" x="1094" y="118"/>
<text font-family="Dialog" font-size="12" x="1106" y="132">
TutorialCommunication</text>
<rect fill="#000000" height="1" stroke="#000000" stroke-width="1" width="153" x="1094" y="142"/>
<rect fill="#000000" height="1" stroke="#000000" stroke-width="1" width="153" x="1094" y="163"/>
<rect fill="#ffffff" height="67" stroke="#ffffff" stroke-width="1" width="137" x="262" y="1030"/>
<rect fill="none" height="67" stroke="#000000" stroke-width="1" width="137" x="262" y="1030"/>
<text font-family="Dialog" font-size="12" x="274" y="1044">
Backbone.Collection</text>
<rect fill="#000000" height="1" stroke="#000000" stroke-width="1" width="137" x="262" y="1054"/>
<rect fill="#000000" height="1" stroke="#000000" stroke-width="1" width="137" x="262" y="1075"/>
<rect fill="#ffffff" height="67" stroke="#ffffff" stroke-width="1" width="113" x="454" y="918"/>
<rect fill="none" height="67" stroke="#000000" stroke-width="1" width="113" x="454" y="918"/>
<text font-family="Dialog" font-size="12" x="459" y="932">
TutorialsCollection</text>
<rect fill="#000000" height="1" stroke="#000000" stroke-width="1" width="113" x="454" y="942"/>
<rect fill="#000000" height="1" stroke="#000000" stroke-width="1" width="113" x="454" y="963"/>
<polyline fill="none" points="518,984 518,1062 398,1062" stroke="#000000" stroke-width="1"/>
<polygon fill="#ffffff" points="398,1062 410,1055 410,1069" stroke="#ffffff" stroke-width="1"/>
<polygon fill="none" points="398,1062 410,1055 410,1069" stroke="#000000" stroke-width="1"/>
<rect fill="#ffffff" height="67" stroke="#ffffff" stroke-width="1" width="114" x="102" y="918"/>
<rect fill="none" height="67" stroke="#000000" stroke-width="1" width="114" x="102" y="918"/>
<text font-family="Dialog" font-size="12" x="107" y="932">
ContactsCollection</text>
<rect fill="#000000" height="1" stroke="#000000" stroke-width="1" width="114" x="102" y="942"/>
<rect fill="#000000" height="1" stroke="#000000" stroke-width="1" width="114" x="102" y="963"/>
<polyline fill="none" points="158,984 158,1062 262,1062" stroke="#000000" stroke-width="1"/>
<polygon fill="#ffffff" points="262,1062 250,1069 250,1055" stroke="#ffffff" stroke-width="1"/>
<polygon fill="none" points="262,1062 250,1069 250,1055" stroke="#000000" stroke-width="1"/>
<rect fill="#ffffff" height="67" stroke="#ffffff" stroke-width="1" width="145" x="262" y="918"/>
<rect fill="none" height="67" stroke="#000000" stroke-width="1" width="145" x="262" y="918"/>
<text font-family="Dialog" font-size="12" x="267" y="932">
TextMessagesCollection</text>
<rect fill="#000000" height="1" stroke="#000000" stroke-width="1" width="145" x="262" y="942"/>
<rect fill="#000000" height="1" stroke="#000000" stroke-width="1" width="145" x="262" y="963"/>
<polyline fill="none" points="334,984 334,1030" stroke="#000000" stroke-width="1"/>
<polygon fill="#ffffff" points="334,1030 327,1018 341,1018" stroke="#ffffff" stroke-width="1"/>
<polygon fill="none" points="334,1030 327,1018 341,1018" stroke="#000000" stroke-width="1"/>
<rect fill="#ffffff" height="67" stroke="#ffffff" stroke-width="1" width="113" x="262" y="654"/>
<rect fill="none" height="67" stroke="#000000" stroke-width="1" width="113" x="262" y="654"/>
<text font-family="Dialog" font-size="12" x="273" y="668">
Backbone.Model</text>
<rect fill="#000000" height="1" stroke="#000000" stroke-width="1" width="113" x="262" y="678"/>
<rect fill="#000000" height="1" stroke="#000000" stroke-width="1" width="113" x="262" y="699"/>
<rect fill="#ffffff" height="67" stroke="#ffffff" stroke-width="1" width="70" x="78" y="742"/>
<rect fill="none" height="67" stroke="#000000" stroke-width="1" width="70" x="78" y="742"/>
<text font-family="Dialog" font-size="12" x="83" y="756">
UserModel</text>
<rect fill="#000000" height="1" stroke="#000000" stroke-width="1" width="70" x="78" y="766"/>
<rect fill="#000000" height="1" stroke="#000000" stroke-width="1" width="70" x="78" y="787"/>
<rect fill="#ffffff" height="67" stroke="#ffffff" stroke-width="1" width="85" x="166" y="742"/>
<rect fill="none" height="67" stroke="#000000" stroke-width="1" width="85" x="166" y="742"/>
<text font-family="Dialog" font-size="12" x="171" y="756">
ContactModel</text>
<rect fill="#000000" height="1" stroke="#000000" stroke-width="1" width="85" x="166" y="766"/>
<rect fill="#000000" height="1" stroke="#000000" stroke-width="1" width="85" x="166" y="787"/>
<rect fill="#ffffff" height="67" stroke="#ffffff" stroke-width="1" width="93" x="270" y="742"/>
<rect fill="none" height="67" stroke="#000000" stroke-width="1" width="93" x="270" y="742"/>
<text font-family="Dialog" font-size="12" x="275" y="756">
StatisticsModel</text>
<rect fill="#000000" height="1" stroke="#000000" stroke-width="1" width="93" x="270" y="766"/>
<rect fill="#000000" height="1" stroke="#000000" stroke-width="1" width="93" x="270" y="787"/>
<rect fill="#ffffff" height="67" stroke="#ffffff" stroke-width="1" width="116" x="382" y="742"/>
<rect fill="none" height="67" stroke="#000000" stroke-width="1" width="116" x="382" y="742"/>
<text font-family="Dialog" font-size="12" x="387" y="756">
TextMessageModel</text>
<rect fill="#000000" height="1" stroke="#000000" stroke-width="1" width="116" x="382" y="766"/>
<rect fill="#000000" height="1" stroke="#000000" stroke-width="1" width="116" x="382" y="787"/>
<rect fill="#ffffff" height="67" stroke="#ffffff" stroke-width="1" width="84" x="510" y="742"/>
<rect fill="none" height="67" stroke="#000000" stroke-width="1" width="84" x="510" y="742"/>
<text font-family="Dialog" font-size="12" x="515" y="756">
TutorialModel</text>
<rect fill="#000000" height="1" stroke="#000000" stroke-width="1" width="84" x="510" y="766"/>
<rect fill="#000000" height="1" stroke="#000000" stroke-width="1" width="84" x="510" y="787"/>
<polyline fill="none" points="110,742 110,682 262,682" stroke="#000000" stroke-width="1"/>
<polygon fill="#ffffff" points="262,682 250,689 250,675" stroke="#ffffff" stroke-width="1"/>
<polygon fill="none" points="262,682 250,689 250,675" stroke="#000000" stroke-width="1"/>
<polyline fill="none" points="206,742 206,710 262,710" stroke="#000000" stroke-width="1"/>
<polygon fill="#ffffff" points="262,710 250,717 250,703" stroke="#ffffff" stroke-width="1"/>
<polygon fill="none" points="262,710 250,717 250,703" stroke="#000000" stroke-width="1"/>
<polyline fill="none" points="318,742 318,720" stroke="#000000" stroke-width="1"/>
<polygon fill="#ffffff" points="318,720 325,732 311,732" stroke="#ffffff" stroke-width="1"/>
<polygon fill="none" points="318,720 325,732 311,732" stroke="#000000" stroke-width="1"/>
<polyline fill="none" points="438,742 438,710 374,710" stroke="#000000" stroke-width="1"/>
<polygon fill="#ffffff" points="374,710 386,703 386,717" stroke="#ffffff" stroke-width="1"/>
<polygon fill="none" points="374,710 386,703 386,717" stroke="#000000" stroke-width="1"/>
<polyline fill="none" points="558,742 558,682 374,682" stroke="#000000" stroke-width="1"/>
<polygon fill="#ffffff" points="374,682 386,675 386,689" stroke="#ffffff" stroke-width="1"/>
<polygon fill="none" points="374,682 386,675 386,689" stroke="#000000" stroke-width="1"/>
<rect fill="#ffffff" height="68" stroke="#ffffff" stroke-width="1" width="78" x="390" y="398"/>
<rect fill="none" height="68" stroke="#000000" stroke-width="1" width="78" x="390" y="398"/>
<text font-family="Dialog" font-size="12" x="395" y="412">
ContactView</text>
<rect fill="#000000" height="1" stroke="#000000" stroke-width="1" width="78" x="390" y="422"/>
<rect fill="#000000" height="1" stroke="#000000" stroke-width="1" width="78" x="390" y="443"/>
<polyline fill="none" points="390,430 342,430 342,184" stroke="#000000" stroke-width="1"/>
<polygon fill="#ffffff" points="342,184 349,196 335,196" stroke="#ffffff" stroke-width="1"/>
<polygon fill="none" points="342,184 349,196 335,196" stroke="#000000" stroke-width="1"/>
<line fill="#000000" stroke="#000000" stroke-width="1" x1="334" x2="334" y1="834" y2="839"/>
<line fill="#000000" stroke="#000000" stroke-width="1" x1="334" x2="334" y1="844" y2="849"/>
<line fill="#000000" stroke="#000000" stroke-width="1" x1="334" x2="334" y1="854" y2="859"/>
<line fill="#000000" stroke="#000000" stroke-width="1" x1="334" x2="334" y1="864" y2="869"/>
<line fill="#000000" stroke="#000000" stroke-width="1" x1="334" x2="334" y1="874" y2="878"/>
<line fill="#000000" stroke="#000000" stroke-width="1" x1="327" x2="334" y1="866" y2="878"/>
<line fill="#000000" stroke="#000000" stroke-width="1" x1="341" x2="334" y1="866" y2="878"/>
<line fill="#000000" stroke="#000000" stroke-width="1" x1="774" x2="779" y1="294" y2="294"/>
<line fill="#000000" stroke="#000000" stroke-width="1" x1="784" x2="789" y1="294" y2="294"/>
<line fill="#000000" stroke="#000000" stroke-width="1" x1="794" x2="799" y1="294" y2="294"/>
<line fill="#000000" stroke="#000000" stroke-width="1" x1="804" x2="809" y1="294" y2="294"/>
<line fill="#000000" stroke="#000000" stroke-width="1" x1="814" x2="819" y1="294" y2="294"/>
<line fill="#000000" stroke="#000000" stroke-width="1" x1="824" x2="829" y1="294" y2="294"/>
<line fill="#000000" stroke="#000000" stroke-width="1" x1="834" x2="839" y1="294" y2="294"/>
<line fill="#000000" stroke="#000000" stroke-width="1" x1="844" x2="849" y1="294" y2="294"/>
<line fill="#000000" stroke="#000000" stroke-width="1" x1="842" x2="854" y1="301" y2="294"/>
<line fill="#000000" stroke="#000000" stroke-width="1" x1="842" x2="854" y1="287" y2="294"/>
<rect fill="#ffffff" height="68" stroke="#ffffff" stroke-width="1" width="124" x="1078" y="382"/>
<rect fill="none" height="68" stroke="#000000" stroke-width="1" width="124" x="1078" y="382"/>
<text font-family="Dialog" font-size="12" x="1083" y="396">
ChatCommunication</text>
<rect fill="#000000" height="1" stroke="#000000" stroke-width="1" width="124" x="1078" y="406"/>
<rect fill="#000000" height="1" stroke="#000000" stroke-width="1" width="124" x="1078" y="427"/>
<line fill="#000000" stroke="#000000" stroke-width="1" x1="670" x2="670" y1="502" y2="507"/>
<line fill="#000000" stroke="#000000" stroke-width="1" x1="670" x2="670" y1="512" y2="517"/>
<line fill="#000000" stroke="#000000" stroke-width="1" x1="670" x2="670" y1="522" y2="527"/>
<line fill="#000000" stroke="#000000" stroke-width="1" x1="670" x2="670" y1="532" y2="537"/>
<line fill="#000000" stroke="#000000" stroke-width="1" x1="670" x2="670" y1="542" y2="547"/>
<line fill="#000000" stroke="#000000" stroke-width="1" x1="670" x2="670" y1="552" y2="557"/>
<line fill="#000000" stroke="#000000" stroke-width="1" x1="670" x2="670" y1="562" y2="567"/>
<line fill="#000000" stroke="#000000" stroke-width="1" x1="670" x2="670" y1="572" y2="577"/>
<line fill="#000000" stroke="#000000" stroke-width="1" x1="670" x2="670" y1="582" y2="587"/>
<line fill="#000000" stroke="#000000" stroke-width="1" x1="670" x2="670" y1="592" y2="597"/>
<line fill="#000000" stroke="#000000" stroke-width="1" x1="670" x2="670" y1="602" y2="607"/>
<line fill="#000000" stroke="#000000" stroke-width="1" x1="670" x2="670" y1="612" y2="617"/>
<line fill="#000000" stroke="#000000" stroke-width="1" x1="670" x2="670" y1="622" y2="627"/>
<line fill="#000000" stroke="#000000" stroke-width="1" x1="670" x2="670" y1="632" y2="637"/>
<line fill="#000000" stroke="#000000" stroke-width="1" x1="670" x2="670" y1="642" y2="647"/>
<line fill="#000000" stroke="#000000" stroke-width="1" x1="670" x2="670" y1="652" y2="657"/>
<line fill="#000000" stroke="#000000" stroke-width="1" x1="670" x2="670" y1="662" y2="667"/>
<line fill="#000000" stroke="#000000" stroke-width="1" x1="670" x2="670" y1="672" y2="677"/>
<line fill="#000000" stroke="#000000" stroke-width="1" x1="670" x2="670" y1="682" y2="687"/>
<line fill="#000000" stroke="#000000" stroke-width="1" x1="670" x2="670" y1="692" y2="697"/>
<line fill="#000000" stroke="#000000" stroke-width="1" x1="670" x2="670" y1="702" y2="707"/>
<line fill="#000000" stroke="#000000" stroke-width="1" x1="670" x2="670" y1="712" y2="717"/>
<line fill="#000000" stroke="#000000" stroke-width="1" x1="670" x2="670" y1="722" y2="727"/>
<line fill="#000000" stroke="#000000" stroke-width="1" x1="670" x2="670" y1="732" y2="737"/>
<line fill="#000000" stroke="#000000" stroke-width="1" x1="670" x2="670" y1="742" y2="747"/>
<line fill="#000000" stroke="#000000" stroke-width="1" x1="670" x2="670" y1="752" y2="757"/>
<line fill="#000000" stroke="#000000" stroke-width="1" x1="670" x2="670" y1="762" y2="767"/>
<line fill="#000000" stroke="#000000" stroke-width="1" x1="670" x2="670" y1="772" y2="777"/>
<line fill="#000000" stroke="#000000" stroke-width="1" x1="670" x2="670" y1="782" y2="787"/>
<line fill="#000000" stroke="#000000" stroke-width="1" x1="670" x2="670" y1="792" y2="797"/>
<line fill="#000000" stroke="#000000" stroke-width="1" x1="670" x2="670" y1="802" y2="807"/>
<line fill="#000000" stroke="#000000" stroke-width="1" x1="670" x2="670" y1="812" y2="817"/>
<line fill="#000000" stroke="#000000" stroke-width="1" x1="670" x2="670" y1="822" y2="827"/>
<line fill="#000000" stroke="#000000" stroke-width="1" x1="670" x2="670" y1="832" y2="837"/>
<line fill="#000000" stroke="#000000" stroke-width="1" x1="670" x2="670" y1="842" y2="847"/>
<line fill="#000000" stroke="#000000" stroke-width="1" x1="670" x2="670" y1="852" y2="857"/>
<line fill="#000000" stroke="#000000" stroke-width="1" x1="670" x2="670" y1="862" y2="867"/>
<line fill="#000000" stroke="#000000" stroke-width="1" x1="670" x2="670" y1="872" y2="877"/>
<line fill="#000000" stroke="#000000" stroke-width="1" x1="670" x2="670" y1="882" y2="887"/>
<line fill="#000000" stroke="#000000" stroke-width="1" x1="670" x2="670" y1="892" y2="897"/>
<line fill="#000000" stroke="#000000" stroke-width="1" x1="670" x2="670" y1="902" y2="907"/>
<line fill="#000000" stroke="#000000" stroke-width="1" x1="670" x2="670" y1="912" y2="917"/>
<line fill="#000000" stroke="#000000" stroke-width="1" x1="670" x2="670" y1="922" y2="927"/>
<line fill="#000000" stroke="#000000" stroke-width="1" x1="670" x2="670" y1="932" y2="937"/>
<line fill="#000000" stroke="#000000" stroke-width="1" x1="670" x2="670" y1="942" y2="947"/>
<line fill="#000000" stroke="#000000" stroke-width="1" x1="670" x2="670" y1="952" y2="957"/>
<line fill="#000000" stroke="#000000" stroke-width="1" x1="670" x2="670" y1="962" y2="967"/>
<line fill="#000000" stroke="#000000" stroke-width="1" x1="670" x2="670" y1="972" y2="977"/>
<line fill="#000000" stroke="#000000" stroke-width="1" x1="670" x2="670" y1="982" y2="987"/>
<line fill="#000000" stroke="#000000" stroke-width="1" x1="670" x2="670" y1="992" y2="997"/>
<line fill="#000000" stroke="#000000" stroke-width="1" x1="670" x2="665" y1="998" y2="998"/>
<line fill="#000000" stroke="#000000" stroke-width="1" x1="660" x2="655" y1="998" y2="998"/>
<line fill="#000000" stroke="#000000" stroke-width="1" x1="650" x2="645" y1="998" y2="998"/>
<line fill="#000000" stroke="#000000" stroke-width="1" x1="640" x2="635" y1="998" y2="998"/>
<line fill="#000000" stroke="#000000" stroke-width="1" x1="630" x2="625" y1="998" y2="998"/>
<line fill="#000000" stroke="#000000" stroke-width="1" x1="620" x2="615" y1="998" y2="998"/>
<line fill="#000000" stroke="#000000" stroke-width="1" x1="622" x2="610" y1="991" y2="998"/>
<line fill="#000000" stroke="#000000" stroke-width="1" x1="622" x2="610" y1="1005" y2="998"/>
</svg>
