<?xml version="1.0" encoding="utf-8" ?>
<!DOCTYPE svg PUBLIC "-//W3C//DTD SVG 1.1//EN" "http://www.w3.org/Graphics/SVG/1.1/DTD/svg11.dtd">
<svg height="1172" version="1.1" width="1292" xmlns="http://www.w3.org/2000/svg">
<polygon fill="#ffffff" points="18,586 715,586 725,596 725,1157 18,1157 18,586" stroke="#ffffff" stroke-width="1"/>
<polyline fill="none" points="18,586 715,586 725,596 725,1157 18,1157 18,586" stroke="#000000" stroke-width="1"/>
<polygon fill="#ffffff" points="715,586 725,596 715,596 715,586" stroke="#ffffff" stroke-width="1"/>
<polyline fill="none" points="715,586 725,596 715,596 715,586" stroke="#000000" stroke-width="1"/>
<text font-family="Dialog" font-size="12" x="21" y="602">
Model</text>
<polygon fill="#c8c8ff" points="30,894 628,894 628,918 677,918 677,1141 30,1141 30,894" stroke="#c8c8ff" stroke-width="1"/>
<rect fill="none" height="24" stroke="#000000" stroke-width="1" width="598" x="30" y="894"/>
<text font-family="Dialog" font-size="12" x="35" y="908">
mytalk::client::collection</text>
<rect fill="none" height="223" stroke="#000000" stroke-width="1" width="647" x="30" y="918"/>
<polygon fill="#ffffff" points="14,14 783,14 793,24 793,529 14,529 14,14" stroke="#ffffff" stroke-width="1"/>
<polyline fill="none" points="14,14 783,14 793,24 793,529 14,529 14,14" stroke="#000000" stroke-width="1"/>
<polygon fill="#ffffff" points="783,14 793,24 783,24 783,14" stroke="#ffffff" stroke-width="1"/>
<polyline fill="none" points="783,14 793,24 783,24 783,14" stroke="#000000" stroke-width="1"/>
<text font-family="Dialog" font-size="12" x="17" y="30">
View</text>
<polygon fill="#c8ffc8" points="54,70 724,70 724,94 773,94 773,501 54,501 54,70" stroke="#c8ffc8" stroke-width="1"/>
<rect fill="none" height="24" stroke="#000000" stroke-width="1" width="670" x="54" y="70"/>
<text font-family="Dialog" font-size="12" x="59" y="84">
mytalk::client::view</text>
<rect fill="none" height="407" stroke="#000000" stroke-width="1" width="719" x="54" y="94"/>
<rect fill="#ffffff" height="67" stroke="#ffffff" stroke-width="1" width="147" x="66" y="226"/>
<rect fill="none" height="67" stroke="#000000" stroke-width="1" width="147" x="66" y="226"/>
<text font-family="Dialog" font-size="12" x="88" y="240">
AuthenticationView</text>
<rect fill="#000000" height="1" stroke="#000000" stroke-width="1" width="147" x="66" y="250"/>
<rect fill="#000000" height="1" stroke="#000000" stroke-width="1" width="147" x="66" y="271"/>
<rect fill="#ffffff" height="67" stroke="#ffffff" stroke-width="1" width="66" x="398" y="310"/>
<rect fill="none" height="67" stroke="#000000" stroke-width="1" width="66" x="398" y="310"/>
<text font-family="Dialog" font-size="12" x="405" y="324">
SideView</text>
<rect fill="#000000" height="1" stroke="#000000" stroke-width="1" width="66" x="398" y="334"/>
<rect fill="#000000" height="1" stroke="#000000" stroke-width="1" width="66" x="398" y="355"/>
<rect fill="#ffffff" height="67" stroke="#ffffff" stroke-width="1" width="66" x="694" y="412"/>
<rect fill="none" height="67" stroke="#000000" stroke-width="1" width="66" x="694" y="412"/>
<text font-family="Dialog" font-size="12" x="703" y="426">
CallView</text>
<rect fill="#000000" height="1" stroke="#000000" stroke-width="1" width="66" x="694" y="436"/>
<rect fill="#000000" height="1" stroke="#000000" stroke-width="1" width="66" x="694" y="457"/>
<rect fill="#ffffff" height="67" stroke="#ffffff" stroke-width="1" width="84" x="554" y="227"/>
<rect fill="none" height="67" stroke="#000000" stroke-width="1" width="84" x="554" y="227"/>
<text font-family="Dialog" font-size="12" x="570" y="241">
ChatView</text>
<rect fill="#000000" height="1" stroke="#000000" stroke-width="1" width="84" x="554" y="251"/>
<rect fill="#000000" height="1" stroke="#000000" stroke-width="1" width="84" x="554" y="272"/>
<rect fill="#ffffff" height="67" stroke="#ffffff" stroke-width="1" width="126" x="74" y="314"/>
<rect fill="none" height="67" stroke="#000000" stroke-width="1" width="126" x="74" y="314"/>
<text font-family="Dialog" font-size="12" x="93" y="328">
NotificationView</text>
<rect fill="#000000" height="1" stroke="#000000" stroke-width="1" width="126" x="74" y="338"/>
<rect fill="#000000" height="1" stroke="#000000" stroke-width="1" width="126" x="74" y="359"/>
<rect fill="#ffffff" height="67" stroke="#ffffff" stroke-width="1" width="106" x="542" y="411"/>
<rect fill="none" height="67" stroke="#000000" stroke-width="1" width="106" x="542" y="411"/>
<text font-family="Dialog" font-size="12" x="555" y="425">
UserDataView</text>
<rect fill="#000000" height="1" stroke="#000000" stroke-width="1" width="106" x="542" y="435"/>
<rect fill="#000000" height="1" stroke="#000000" stroke-width="1" width="106" x="542" y="456"/>
<rect fill="#ffffff" height="67" stroke="#ffffff" stroke-width="1" width="104" x="390" y="222"/>
<rect fill="none" height="67" stroke="#000000" stroke-width="1" width="104" x="390" y="222"/>
<text font-family="Dialog" font-size="12" x="398" y="236">
  StatisticsView  </text>
<rect fill="#000000" height="1" stroke="#000000" stroke-width="1" width="104" x="390" y="246"/>
<rect fill="#000000" height="1" stroke="#000000" stroke-width="1" width="104" x="390" y="267"/>
<rect fill="#ffffff" height="67" stroke="#ffffff" stroke-width="1" width="155" x="602" y="315"/>
<rect fill="none" height="67" stroke="#000000" stroke-width="1" width="155" x="602" y="315"/>
<text font-family="Dialog" font-size="12" x="621" y="329">
RecordMessageView</text>
<rect fill="#000000" height="1" stroke="#000000" stroke-width="1" width="155" x="602" y="339"/>
<rect fill="#000000" height="1" stroke="#000000" stroke-width="1" width="155" x="602" y="360"/>
<polygon fill="#c8c8ff" points="58,619 620,619 620,643 669,643 669,837 58,837 58,619" stroke="#c8c8ff" stroke-width="1"/>
<rect fill="none" height="24" stroke="#000000" stroke-width="1" width="562" x="58" y="619"/>
<text font-family="Dialog" font-size="12" x="63" y="633">
mytalk::client::model</text>
<rect fill="none" height="194" stroke="#000000" stroke-width="1" width="611" x="58" y="643"/>
<line fill="#000000" stroke="#000000" stroke-width="1" x1="294" x2="294" y1="502" y2="507"/>
<line fill="#000000" stroke="#000000" stroke-width="1" x1="294" x2="294" y1="512" y2="517"/>
<line fill="#000000" stroke="#000000" stroke-width="1" x1="294" x2="294" y1="522" y2="527"/>
<line fill="#000000" stroke="#000000" stroke-width="1" x1="294" x2="294" y1="532" y2="537"/>
<line fill="#000000" stroke="#000000" stroke-width="1" x1="294" x2="294" y1="542" y2="547"/>
<line fill="#000000" stroke="#000000" stroke-width="1" x1="294" x2="294" y1="552" y2="557"/>
<line fill="#000000" stroke="#000000" stroke-width="1" x1="294" x2="294" y1="562" y2="567"/>
<line fill="#000000" stroke="#000000" stroke-width="1" x1="294" x2="294" y1="572" y2="577"/>
<line fill="#000000" stroke="#000000" stroke-width="1" x1="294" x2="294" y1="582" y2="587"/>
<line fill="#000000" stroke="#000000" stroke-width="1" x1="294" x2="294" y1="592" y2="597"/>
<line fill="#000000" stroke="#000000" stroke-width="1" x1="294" x2="294" y1="602" y2="607"/>
<line fill="#000000" stroke="#000000" stroke-width="1" x1="294" x2="294" y1="612" y2="617"/>
<line fill="#000000" stroke="#000000" stroke-width="1" x1="287" x2="294" y1="607" y2="619"/>
<line fill="#000000" stroke="#000000" stroke-width="1" x1="301" x2="294" y1="607" y2="619"/>
<rect fill="#ffffff" height="68" stroke="#ffffff" stroke-width="1" width="102" x="654" y="226"/>
<rect fill="none" height="68" stroke="#000000" stroke-width="1" width="102" x="654" y="226"/>
<text font-family="Dialog" font-size="12" x="671" y="240">
TutorialView</text>
<rect fill="#000000" height="1" stroke="#000000" stroke-width="1" width="102" x="654" y="250"/>
<rect fill="#000000" height="1" stroke="#000000" stroke-width="1" width="102" x="654" y="271"/>
<rect fill="#ffffff" height="67" stroke="#ffffff" stroke-width="1" width="66" x="158" y="412"/>
<rect fill="none" height="67" stroke="#000000" stroke-width="1" width="66" x="158" y="412"/>
<text font-family="Dialog" font-size="12" x="168" y="426">
FileView</text>
<rect fill="#000000" height="1" stroke="#000000" stroke-width="1" width="66" x="158" y="436"/>
<rect fill="#000000" height="1" stroke="#000000" stroke-width="1" width="66" x="158" y="457"/>
<rect fill="#ffffff" height="67" stroke="#ffffff" stroke-width="1" width="99" x="254" y="411"/>
<rect fill="none" height="67" stroke="#000000" stroke-width="1" width="99" x="254" y="411"/>
<text font-family="Dialog" font-size="12" x="263" y="425">
FunctionsView</text>
<rect fill="#000000" height="1" stroke="#000000" stroke-width="1" width="99" x="254" y="435"/>
<rect fill="#000000" height="1" stroke="#000000" stroke-width="1" width="99" x="254" y="456"/>
<rect fill="#ffffff" height="67" stroke="#ffffff" stroke-width="1" width="104" x="278" y="118"/>
<rect fill="none" height="67" stroke="#000000" stroke-width="1" width="104" x="278" y="118"/>
<text font-family="Dialog" font-size="12" x="288" y="132">
Backbone.View</text>
<rect fill="#000000" height="1" stroke="#000000" stroke-width="1" width="104" x="278" y="142"/>
<rect fill="#000000" height="1" stroke="#000000" stroke-width="1" width="104" x="278" y="163"/>
<polyline fill="none" points="198,226 198,158 278,158" stroke="#000000" stroke-width="1"/>
<polygon fill="#ffffff" points="278,158 266,165 266,151" stroke="#ffffff" stroke-width="1"/>
<polygon fill="none" points="278,158 266,165 266,151" stroke="#000000" stroke-width="1"/>
<polyline fill="none" points="398,342 358,342 358,184" stroke="#000000" stroke-width="1"/>
<polygon fill="#ffffff" points="358,184 365,196 351,196" stroke="#ffffff" stroke-width="1"/>
<polygon fill="none" points="358,184 365,196 351,196" stroke="#000000" stroke-width="1"/>
<polyline fill="none" points="726,412 726,398 518,398 518,166 381,166" stroke="#000000" stroke-width="1"/>
<polygon fill="#ffffff" points="381,166 393,159 393,173" stroke="#ffffff" stroke-width="1"/>
<polygon fill="none" points="381,166 393,159 393,173" stroke="#000000" stroke-width="1"/>
<polyline fill="none" points="598,227 598,134 381,134" stroke="#000000" stroke-width="1"/>
<polygon fill="#ffffff" points="381,134 393,127 393,141" stroke="#ffffff" stroke-width="1"/>
<polygon fill="none" points="381,134 393,127 393,141" stroke="#000000" stroke-width="1"/>
<polyline fill="none" points="706,226 706,118 381,118" stroke="#000000" stroke-width="1"/>
<polygon fill="#ffffff" points="381,118 393,111 393,125" stroke="#ffffff" stroke-width="1"/>
<polygon fill="none" points="381,118 393,111 393,125" stroke="#000000" stroke-width="1"/>
<polyline fill="none" points="199,346 242,346 246,182 278,182" stroke="#000000" stroke-width="1"/>
<polygon fill="#ffffff" points="278,182 266,189 266,175" stroke="#ffffff" stroke-width="1"/>
<polygon fill="none" points="278,182 266,189 266,175" stroke="#000000" stroke-width="1"/>
<polyline fill="none" points="542,438 502,438 502,182 381,182" stroke="#000000" stroke-width="1"/>
<polygon fill="#ffffff" points="381,182 393,175 393,189" stroke="#ffffff" stroke-width="1"/>
<polygon fill="none" points="381,182 393,175 393,189" stroke="#000000" stroke-width="1"/>
<polyline fill="none" points="390,254 374,254 374,184" stroke="#000000" stroke-width="1"/>
<polygon fill="#ffffff" points="374,184 381,196 367,196" stroke="#ffffff" stroke-width="1"/>
<polygon fill="none" points="374,184 381,196 367,196" stroke="#000000" stroke-width="1"/>
<polyline fill="none" points="602,366 538,366 538,150 381,150" stroke="#000000" stroke-width="1"/>
<polygon fill="#ffffff" points="381,150 393,143 393,157" stroke="#ffffff" stroke-width="1"/>
<polygon fill="none" points="381,150 393,143 393,157" stroke="#000000" stroke-width="1"/>
<polyline fill="none" points="190,412 190,390 286,390 286,184" stroke="#000000" stroke-width="1"/>
<polygon fill="#ffffff" points="286,184 293,196 279,196" stroke="#ffffff" stroke-width="1"/>
<polygon fill="none" points="286,184 293,196 279,196" stroke="#000000" stroke-width="1"/>
<polyline fill="none" points="310,411 310,184" stroke="#000000" stroke-width="1"/>
<polygon fill="#ffffff" points="310,184 317,196 303,196" stroke="#ffffff" stroke-width="1"/>
<polygon fill="none" points="310,184 317,196 303,196" stroke="#000000" stroke-width="1"/>
<polygon fill="#ffff99" points="854,70 1228,70 1228,94 1277,94 1277,541 854,541 854,70" stroke="#ffff99" stroke-width="1"/>
<rect fill="none" height="24" stroke="#000000" stroke-width="1" width="374" x="854" y="70"/>
<text font-family="Dialog" font-size="12" x="859" y="84">
mytalk::client::communication</text>
<rect fill="none" height="447" stroke="#000000" stroke-width="1" width="423" x="854" y="94"/>
<rect fill="#ffffff" height="67" stroke="#ffffff" stroke-width="1" width="145" x="1102" y="294"/>
<rect fill="none" height="67" stroke="#000000" stroke-width="1" width="145" x="1102" y="294"/>
<text font-family="Dialog" font-size="12" x="1120" y="308">
FileCommunication</text>
<rect fill="#000000" height="1" stroke="#000000" stroke-width="1" width="145" x="1102" y="318"/>
<rect fill="#000000" height="1" stroke="#000000" stroke-width="1" width="145" x="1102" y="339"/>
<rect fill="#ffffff" height="67" stroke="#ffffff" stroke-width="1" width="198" x="877" y="118"/>
<rect fill="none" height="67" stroke="#000000" stroke-width="1" width="198" x="877" y="118"/>
<text font-family="Dialog" font-size="12" x="890" y="132">
AuthenticationCommunication  </text>
<rect fill="#000000" height="1" stroke="#000000" stroke-width="1" width="198" x="877" y="142"/>
<rect fill="#000000" height="1" stroke="#000000" stroke-width="1" width="198" x="877" y="163"/>
<rect fill="#ffffff" height="67" stroke="#ffffff" stroke-width="1" width="162" x="1022" y="206"/>
<rect fill="none" height="67" stroke="#000000" stroke-width="1" width="162" x="1022" y="206"/>
<text font-family="Dialog" font-size="12" x="1031" y="220">
ContactsCommunication  </text>
<rect fill="#000000" height="1" stroke="#000000" stroke-width="1" width="162" x="1022" y="230"/>
<rect fill="#000000" height="1" stroke="#000000" stroke-width="1" width="162" x="1022" y="251"/>
<rect fill="#ffffff" height="67" stroke="#ffffff" stroke-width="1" width="131" x="878" y="206"/>
<rect fill="none" height="67" stroke="#000000" stroke-width="1" width="131" x="878" y="206"/>
<text font-family="Dialog" font-size="12" x="885" y="220">
CallCommunication  </text>
<rect fill="#000000" height="1" stroke="#000000" stroke-width="1" width="131" x="878" y="230"/>
<rect fill="#000000" height="1" stroke="#000000" stroke-width="1" width="131" x="878" y="251"/>
<rect fill="#ffffff" height="67" stroke="#ffffff" stroke-width="1" width="177" x="878" y="382"/>
<rect fill="none" height="67" stroke="#000000" stroke-width="1" width="177" x="878" y="382"/>
<text font-family="Dialog" font-size="12" x="889" y="396">
NotificationCommunication  </text>
<rect fill="#000000" height="1" stroke="#000000" stroke-width="1" width="177" x="878" y="406"/>
<rect fill="#000000" height="1" stroke="#000000" stroke-width="1" width="177" x="878" y="427"/>
<rect fill="#ffffff" height="67" stroke="#ffffff" stroke-width="1" width="206" x="878" y="294"/>
<rect fill="none" height="67" stroke="#000000" stroke-width="1" width="206" x="878" y="294"/>
<text font-family="Dialog" font-size="12" x="891" y="308">
RecordMessageCommunication</text>
<rect fill="#000000" height="1" stroke="#000000" stroke-width="1" width="206" x="878" y="318"/>
<rect fill="#000000" height="1" stroke="#000000" stroke-width="1" width="206" x="878" y="339"/>
<rect fill="#ffffff" height="67" stroke="#ffffff" stroke-width="1" width="155" x="1094" y="118"/>
<rect fill="none" height="67" stroke="#000000" stroke-width="1" width="155" x="1094" y="118"/>
<text font-family="Dialog" font-size="12" x="1104" y="132">
TutorialCommunication  </text>
<rect fill="#000000" height="1" stroke="#000000" stroke-width="1" width="155" x="1094" y="142"/>
<rect fill="#000000" height="1" stroke="#000000" stroke-width="1" width="155" x="1094" y="163"/>
<rect fill="#ffffff" height="67" stroke="#ffffff" stroke-width="1" width="137" x="278" y="1046"/>
<rect fill="none" height="67" stroke="#000000" stroke-width="1" width="137" x="278" y="1046"/>
<text font-family="Dialog" font-size="12" x="288" y="1060">
Backbone.Collection </text>
<rect fill="#000000" height="1" stroke="#000000" stroke-width="1" width="137" x="278" y="1070"/>
<rect fill="#000000" height="1" stroke="#000000" stroke-width="1" width="137" x="278" y="1091"/>
<rect fill="#ffffff" height="67" stroke="#ffffff" stroke-width="1" width="127" x="534" y="934"/>
<rect fill="none" height="67" stroke="#000000" stroke-width="1" width="127" x="534" y="934"/>
<text font-family="Dialog" font-size="12" x="543" y="948">
TutorialsCollection  </text>
<rect fill="#000000" height="1" stroke="#000000" stroke-width="1" width="127" x="534" y="958"/>
<rect fill="#000000" height="1" stroke="#000000" stroke-width="1" width="127" x="534" y="979"/>
<polyline fill="none" points="598,1000 598,1078 414,1078" stroke="#000000" stroke-width="1"/>
<polygon fill="#ffffff" points="414,1078 426,1071 426,1085" stroke="#ffffff" stroke-width="1"/>
<polygon fill="none" points="414,1078 426,1071 426,1085" stroke="#000000" stroke-width="1"/>
<rect fill="#ffffff" height="67" stroke="#ffffff" stroke-width="1" width="127" x="38" y="934"/>
<rect fill="none" height="67" stroke="#000000" stroke-width="1" width="127" x="38" y="934"/>
<text font-family="Dialog" font-size="12" x="46" y="948">
ContactsCollection  </text>
<rect fill="#000000" height="1" stroke="#000000" stroke-width="1" width="127" x="38" y="958"/>
<rect fill="#000000" height="1" stroke="#000000" stroke-width="1" width="127" x="38" y="979"/>
<polyline fill="none" points="102,1000 102,1078 278,1078" stroke="#000000" stroke-width="1"/>
<polygon fill="#ffffff" points="278,1078 266,1085 266,1071" stroke="#ffffff" stroke-width="1"/>
<polygon fill="none" points="278,1078 266,1085 266,1071" stroke="#000000" stroke-width="1"/>
<rect fill="#ffffff" height="67" stroke="#ffffff" stroke-width="1" width="158" x="182" y="934"/>
<rect fill="none" height="67" stroke="#000000" stroke-width="1" width="158" x="182" y="934"/>
<text font-family="Dialog" font-size="12" x="190" y="948">
TextMessagesCollection  </text>
<rect fill="#000000" height="1" stroke="#000000" stroke-width="1" width="158" x="182" y="958"/>
<rect fill="#000000" height="1" stroke="#000000" stroke-width="1" width="158" x="182" y="979"/>
<polyline fill="none" points="302,1000 302,1046" stroke="#000000" stroke-width="1"/>
<polygon fill="#ffffff" points="302,1046 295,1034 309,1034" stroke="#ffffff" stroke-width="1"/>
<polygon fill="none" points="302,1046 295,1034 309,1034" stroke="#000000" stroke-width="1"/>
<rect fill="#ffffff" height="67" stroke="#ffffff" stroke-width="1" width="113" x="262" y="654"/>
<rect fill="none" height="67" stroke="#000000" stroke-width="1" width="113" x="262" y="654"/>
<text font-family="Dialog" font-size="12" x="273" y="668">
Backbone.Model</text>
<rect fill="#000000" height="1" stroke="#000000" stroke-width="1" width="113" x="262" y="678"/>
<rect fill="#000000" height="1" stroke="#000000" stroke-width="1" width="113" x="262" y="699"/>
<rect fill="#ffffff" height="67" stroke="#ffffff" stroke-width="1" width="75" x="62" y="758"/>
<rect fill="none" height="67" stroke="#000000" stroke-width="1" width="75" x="62" y="758"/>
<text font-family="Dialog" font-size="12" x="68" y="772">
UserModel </text>
<rect fill="#000000" height="1" stroke="#000000" stroke-width="1" width="75" x="62" y="782"/>
<rect fill="#000000" height="1" stroke="#000000" stroke-width="1" width="75" x="62" y="803"/>
<rect fill="#ffffff" height="67" stroke="#ffffff" stroke-width="1" width="94" x="150" y="758"/>
<rect fill="none" height="67" stroke="#000000" stroke-width="1" width="94" x="150" y="758"/>
<text font-family="Dialog" font-size="12" x="158" y="772">
ContactModel </text>
<rect fill="#000000" height="1" stroke="#000000" stroke-width="1" width="94" x="150" y="782"/>
<rect fill="#000000" height="1" stroke="#000000" stroke-width="1" width="94" x="150" y="803"/>
<rect fill="#ffffff" height="67" stroke="#ffffff" stroke-width="1" width="125" x="414" y="758"/>
<rect fill="none" height="67" stroke="#000000" stroke-width="1" width="125" x="414" y="758"/>
<text font-family="Dialog" font-size="12" x="422" y="772">
TextMessageModel </text>
<rect fill="#000000" height="1" stroke="#000000" stroke-width="1" width="125" x="414" y="782"/>
<rect fill="#000000" height="1" stroke="#000000" stroke-width="1" width="125" x="414" y="803"/>
<rect fill="#ffffff" height="67" stroke="#ffffff" stroke-width="1" width="95" x="550" y="758"/>
<rect fill="none" height="67" stroke="#000000" stroke-width="1" width="95" x="550" y="758"/>
<text font-family="Dialog" font-size="12" x="559" y="772">
TutorialModel </text>
<rect fill="#000000" height="1" stroke="#000000" stroke-width="1" width="95" x="550" y="782"/>
<rect fill="#000000" height="1" stroke="#000000" stroke-width="1" width="95" x="550" y="803"/>
<polyline fill="none" points="110,758 110,682 262,682" stroke="#000000" stroke-width="1"/>
<polygon fill="#ffffff" points="262,682 250,689 250,675" stroke="#ffffff" stroke-width="1"/>
<polygon fill="none" points="262,682 250,689 250,675" stroke="#000000" stroke-width="1"/>
<polyline fill="none" points="198,758 198,710 262,710" stroke="#000000" stroke-width="1"/>
<polygon fill="#ffffff" points="262,710 250,717 250,703" stroke="#ffffff" stroke-width="1"/>
<polygon fill="none" points="262,710 250,717 250,703" stroke="#000000" stroke-width="1"/>
<polyline fill="none" points="478,758 478,710 374,710" stroke="#000000" stroke-width="1"/>
<polygon fill="#ffffff" points="374,710 386,703 386,717" stroke="#ffffff" stroke-width="1"/>
<polygon fill="none" points="374,710 386,703 386,717" stroke="#000000" stroke-width="1"/>
<polyline fill="none" points="598,758 598,686 374,686" stroke="#000000" stroke-width="1"/>
<polygon fill="#ffffff" points="374,686 386,679 386,693" stroke="#ffffff" stroke-width="1"/>
<polygon fill="none" points="374,686 386,679 386,693" stroke="#000000" stroke-width="1"/>
<rect fill="#ffffff" height="67" stroke="#ffffff" stroke-width="1" width="86" x="380" y="412"/>
<rect fill="none" height="67" stroke="#000000" stroke-width="1" width="86" x="380" y="412"/>
<text font-family="Dialog" font-size="12" x="387" y="426">
ContactView </text>
<rect fill="#000000" height="1" stroke="#000000" stroke-width="1" width="86" x="380" y="436"/>
<rect fill="#000000" height="1" stroke="#000000" stroke-width="1" width="86" x="380" y="457"/>
<polyline fill="none" points="422,412 422,390 334,390 334,184" stroke="#000000" stroke-width="1"/>
<polygon fill="#ffffff" points="334,184 341,196 327,196" stroke="#ffffff" stroke-width="1"/>
<polygon fill="none" points="334,184 341,196 327,196" stroke="#000000" stroke-width="1"/>
<line fill="#000000" stroke="#000000" stroke-width="1" x1="774" x2="779" y1="294" y2="294"/>
<line fill="#000000" stroke="#000000" stroke-width="1" x1="784" x2="789" y1="294" y2="294"/>
<line fill="#000000" stroke="#000000" stroke-width="1" x1="794" x2="799" y1="294" y2="294"/>
<line fill="#000000" stroke="#000000" stroke-width="1" x1="804" x2="809" y1="294" y2="294"/>
<line fill="#000000" stroke="#000000" stroke-width="1" x1="814" x2="819" y1="294" y2="294"/>
<line fill="#000000" stroke="#000000" stroke-width="1" x1="824" x2="829" y1="294" y2="294"/>
<line fill="#000000" stroke="#000000" stroke-width="1" x1="834" x2="839" y1="294" y2="294"/>
<line fill="#000000" stroke="#000000" stroke-width="1" x1="844" x2="849" y1="294" y2="294"/>
<line fill="#000000" stroke="#000000" stroke-width="1" x1="842" x2="854" y1="301" y2="294"/>
<line fill="#000000" stroke="#000000" stroke-width="1" x1="842" x2="854" y1="287" y2="294"/>
<rect fill="#ffffff" height="68" stroke="#ffffff" stroke-width="1" width="136" x="1078" y="382"/>
<rect fill="none" height="68" stroke="#000000" stroke-width="1" width="136" x="1078" y="382"/>
<text font-family="Dialog" font-size="12" x="1086" y="396">
ChatCommunication  </text>
<rect fill="#000000" height="1" stroke="#000000" stroke-width="1" width="136" x="1078" y="406"/>
<rect fill="#000000" height="1" stroke="#000000" stroke-width="1" width="136" x="1078" y="427"/>
<line fill="#000000" stroke="#000000" stroke-width="1" x1="750" x2="750" y1="502" y2="507"/>
<line fill="#000000" stroke="#000000" stroke-width="1" x1="750" x2="750" y1="512" y2="517"/>
<line fill="#000000" stroke="#000000" stroke-width="1" x1="750" x2="750" y1="522" y2="527"/>
<line fill="#000000" stroke="#000000" stroke-width="1" x1="750" x2="750" y1="532" y2="537"/>
<line fill="#000000" stroke="#000000" stroke-width="1" x1="750" x2="750" y1="542" y2="547"/>
<line fill="#000000" stroke="#000000" stroke-width="1" x1="750" x2="750" y1="552" y2="557"/>
<line fill="#000000" stroke="#000000" stroke-width="1" x1="750" x2="750" y1="562" y2="567"/>
<line fill="#000000" stroke="#000000" stroke-width="1" x1="750" x2="750" y1="572" y2="577"/>
<line fill="#000000" stroke="#000000" stroke-width="1" x1="750" x2="750" y1="582" y2="587"/>
<line fill="#000000" stroke="#000000" stroke-width="1" x1="750" x2="750" y1="592" y2="597"/>
<line fill="#000000" stroke="#000000" stroke-width="1" x1="750" x2="750" y1="602" y2="607"/>
<line fill="#000000" stroke="#000000" stroke-width="1" x1="750" x2="750" y1="612" y2="617"/>
<line fill="#000000" stroke="#000000" stroke-width="1" x1="750" x2="750" y1="622" y2="627"/>
<line fill="#000000" stroke="#000000" stroke-width="1" x1="750" x2="750" y1="632" y2="637"/>
<line fill="#000000" stroke="#000000" stroke-width="1" x1="750" x2="750" y1="642" y2="647"/>
<line fill="#000000" stroke="#000000" stroke-width="1" x1="750" x2="750" y1="652" y2="657"/>
<line fill="#000000" stroke="#000000" stroke-width="1" x1="750" x2="750" y1="662" y2="667"/>
<line fill="#000000" stroke="#000000" stroke-width="1" x1="750" x2="750" y1="672" y2="677"/>
<line fill="#000000" stroke="#000000" stroke-width="1" x1="750" x2="750" y1="682" y2="687"/>
<line fill="#000000" stroke="#000000" stroke-width="1" x1="750" x2="750" y1="692" y2="697"/>
<line fill="#000000" stroke="#000000" stroke-width="1" x1="750" x2="750" y1="702" y2="707"/>
<line fill="#000000" stroke="#000000" stroke-width="1" x1="750" x2="750" y1="712" y2="717"/>
<line fill="#000000" stroke="#000000" stroke-width="1" x1="750" x2="750" y1="722" y2="727"/>
<line fill="#000000" stroke="#000000" stroke-width="1" x1="750" x2="750" y1="732" y2="737"/>
<line fill="#000000" stroke="#000000" stroke-width="1" x1="750" x2="750" y1="742" y2="747"/>
<line fill="#000000" stroke="#000000" stroke-width="1" x1="750" x2="750" y1="752" y2="757"/>
<line fill="#000000" stroke="#000000" stroke-width="1" x1="750" x2="750" y1="762" y2="767"/>
<line fill="#000000" stroke="#000000" stroke-width="1" x1="750" x2="750" y1="772" y2="777"/>
<line fill="#000000" stroke="#000000" stroke-width="1" x1="750" x2="750" y1="782" y2="787"/>
<line fill="#000000" stroke="#000000" stroke-width="1" x1="750" x2="750" y1="792" y2="797"/>
<line fill="#000000" stroke="#000000" stroke-width="1" x1="750" x2="750" y1="802" y2="807"/>
<line fill="#000000" stroke="#000000" stroke-width="1" x1="750" x2="750" y1="812" y2="817"/>
<line fill="#000000" stroke="#000000" stroke-width="1" x1="750" x2="750" y1="822" y2="827"/>
<line fill="#000000" stroke="#000000" stroke-width="1" x1="750" x2="750" y1="832" y2="837"/>
<line fill="#000000" stroke="#000000" stroke-width="1" x1="750" x2="750" y1="842" y2="847"/>
<line fill="#000000" stroke="#000000" stroke-width="1" x1="750" x2="750" y1="852" y2="857"/>
<line fill="#000000" stroke="#000000" stroke-width="1" x1="750" x2="750" y1="862" y2="867"/>
<line fill="#000000" stroke="#000000" stroke-width="1" x1="750" x2="750" y1="872" y2="877"/>
<line fill="#000000" stroke="#000000" stroke-width="1" x1="750" x2="750" y1="882" y2="887"/>
<line fill="#000000" stroke="#000000" stroke-width="1" x1="750" x2="750" y1="892" y2="897"/>
<line fill="#000000" stroke="#000000" stroke-width="1" x1="750" x2="750" y1="902" y2="907"/>
<line fill="#000000" stroke="#000000" stroke-width="1" x1="750" x2="750" y1="912" y2="917"/>
<line fill="#000000" stroke="#000000" stroke-width="1" x1="750" x2="750" y1="922" y2="927"/>
<line fill="#000000" stroke="#000000" stroke-width="1" x1="750" x2="750" y1="932" y2="937"/>
<line fill="#000000" stroke="#000000" stroke-width="1" x1="750" x2="750" y1="942" y2="947"/>
<line fill="#000000" stroke="#000000" stroke-width="1" x1="750" x2="750" y1="952" y2="957"/>
<line fill="#000000" stroke="#000000" stroke-width="1" x1="750" x2="745" y1="958" y2="958"/>
<line fill="#000000" stroke="#000000" stroke-width="1" x1="740" x2="735" y1="958" y2="958"/>
<line fill="#000000" stroke="#000000" stroke-width="1" x1="730" x2="725" y1="958" y2="958"/>
<line fill="#000000" stroke="#000000" stroke-width="1" x1="720" x2="715" y1="958" y2="958"/>
<line fill="#000000" stroke="#000000" stroke-width="1" x1="710" x2="705" y1="958" y2="958"/>
<line fill="#000000" stroke="#000000" stroke-width="1" x1="700" x2="695" y1="958" y2="958"/>
<line fill="#000000" stroke="#000000" stroke-width="1" x1="690" x2="685" y1="958" y2="958"/>
<line fill="#000000" stroke="#000000" stroke-width="1" x1="680" x2="678" y1="958" y2="958"/>
<line fill="#000000" stroke="#000000" stroke-width="1" x1="690" x2="678" y1="951" y2="958"/>
<line fill="#000000" stroke="#000000" stroke-width="1" x1="690" x2="678" y1="965" y2="958"/>
<rect fill="#ffffff" height="67" stroke="#ffffff" stroke-width="1" width="162" x="886" y="462"/>
<rect fill="none" height="67" stroke="#000000" stroke-width="1" width="162" x="886" y="462"/>
<text font-family="Dialog" font-size="12" x="893" y="476">
UserDataCommunication  </text>
<rect fill="#000000" height="1" stroke="#000000" stroke-width="1" width="162" x="886" y="486"/>
<rect fill="#000000" height="1" stroke="#000000" stroke-width="1" width="162" x="886" y="507"/>
<line fill="#000000" stroke="#000000" stroke-width="1" x1="910" x2="910" y1="542" y2="547"/>
<line fill="#000000" stroke="#000000" stroke-width="1" x1="910" x2="910" y1="552" y2="557"/>
<line fill="#000000" stroke="#000000" stroke-width="1" x1="910" x2="910" y1="562" y2="567"/>
<line fill="#000000" stroke="#000000" stroke-width="1" x1="910" x2="910" y1="572" y2="577"/>
<line fill="#000000" stroke="#000000" stroke-width="1" x1="910" x2="910" y1="582" y2="587"/>
<line fill="#000000" stroke="#000000" stroke-width="1" x1="910" x2="910" y1="592" y2="597"/>
<line fill="#000000" stroke="#000000" stroke-width="1" x1="910" x2="910" y1="602" y2="607"/>
<line fill="#000000" stroke="#000000" stroke-width="1" x1="910" x2="910" y1="612" y2="617"/>
<line fill="#000000" stroke="#000000" stroke-width="1" x1="910" x2="910" y1="622" y2="627"/>
<line fill="#000000" stroke="#000000" stroke-width="1" x1="910" x2="910" y1="632" y2="637"/>
<line fill="#000000" stroke="#000000" stroke-width="1" x1="910" x2="910" y1="642" y2="647"/>
<line fill="#000000" stroke="#000000" stroke-width="1" x1="910" x2="910" y1="652" y2="657"/>
<line fill="#000000" stroke="#000000" stroke-width="1" x1="910" x2="910" y1="662" y2="667"/>
<line fill="#000000" stroke="#000000" stroke-width="1" x1="910" x2="910" y1="672" y2="677"/>
<line fill="#000000" stroke="#000000" stroke-width="1" x1="910" x2="910" y1="682" y2="687"/>
<line fill="#000000" stroke="#000000" stroke-width="1" x1="910" x2="910" y1="692" y2="697"/>
<line fill="#000000" stroke="#000000" stroke-width="1" x1="910" x2="910" y1="702" y2="707"/>
<line fill="#000000" stroke="#000000" stroke-width="1" x1="910" x2="910" y1="712" y2="717"/>
<line fill="#000000" stroke="#000000" stroke-width="1" x1="910" x2="910" y1="722" y2="727"/>
<line fill="#000000" stroke="#000000" stroke-width="1" x1="910" x2="910" y1="732" y2="737"/>
<line fill="#000000" stroke="#000000" stroke-width="1" x1="910" x2="910" y1="742" y2="747"/>
<line fill="#000000" stroke="#000000" stroke-width="1" x1="910" x2="910" y1="752" y2="757"/>
<line fill="#000000" stroke="#000000" stroke-width="1" x1="910" x2="910" y1="762" y2="767"/>
<line fill="#000000" stroke="#000000" stroke-width="1" x1="910" x2="910" y1="772" y2="777"/>
<line fill="#000000" stroke="#000000" stroke-width="1" x1="910" x2="910" y1="782" y2="787"/>
<line fill="#000000" stroke="#000000" stroke-width="1" x1="910" x2="910" y1="792" y2="797"/>
<line fill="#000000" stroke="#000000" stroke-width="1" x1="910" x2="910" y1="802" y2="807"/>
<line fill="#000000" stroke="#000000" stroke-width="1" x1="910" x2="910" y1="812" y2="817"/>
<line fill="#000000" stroke="#000000" stroke-width="1" x1="910" x2="910" y1="822" y2="827"/>
<line fill="#000000" stroke="#000000" stroke-width="1" x1="910" x2="910" y1="832" y2="837"/>
<line fill="#000000" stroke="#000000" stroke-width="1" x1="910" x2="910" y1="842" y2="847"/>
<line fill="#000000" stroke="#000000" stroke-width="1" x1="910" x2="910" y1="852" y2="857"/>
<line fill="#000000" stroke="#000000" stroke-width="1" x1="910" x2="910" y1="862" y2="867"/>
<line fill="#000000" stroke="#000000" stroke-width="1" x1="910" x2="910" y1="872" y2="877"/>
<line fill="#000000" stroke="#000000" stroke-width="1" x1="910" x2="910" y1="882" y2="887"/>
<line fill="#000000" stroke="#000000" stroke-width="1" x1="910" x2="910" y1="892" y2="897"/>
<line fill="#000000" stroke="#000000" stroke-width="1" x1="910" x2="910" y1="902" y2="907"/>
<line fill="#000000" stroke="#000000" stroke-width="1" x1="910" x2="910" y1="912" y2="917"/>
<line fill="#000000" stroke="#000000" stroke-width="1" x1="910" x2="910" y1="922" y2="927"/>
<line fill="#000000" stroke="#000000" stroke-width="1" x1="910" x2="910" y1="932" y2="937"/>
<line fill="#000000" stroke="#000000" stroke-width="1" x1="910" x2="910" y1="942" y2="947"/>
<line fill="#000000" stroke="#000000" stroke-width="1" x1="910" x2="910" y1="952" y2="957"/>
<line fill="#000000" stroke="#000000" stroke-width="1" x1="910" x2="910" y1="962" y2="967"/>
<line fill="#000000" stroke="#000000" stroke-width="1" x1="910" x2="910" y1="972" y2="977"/>
<line fill="#000000" stroke="#000000" stroke-width="1" x1="910" x2="910" y1="982" y2="987"/>
<line fill="#000000" stroke="#000000" stroke-width="1" x1="910" x2="910" y1="992" y2="997"/>
<line fill="#000000" stroke="#000000" stroke-width="1" x1="910" x2="910" y1="1002" y2="1007"/>
<line fill="#000000" stroke="#000000" stroke-width="1" x1="910" x2="910" y1="1012" y2="1017"/>
<line fill="#000000" stroke="#000000" stroke-width="1" x1="910" x2="905" y1="1022" y2="1022"/>
<line fill="#000000" stroke="#000000" stroke-width="1" x1="900" x2="895" y1="1022" y2="1022"/>
<line fill="#000000" stroke="#000000" stroke-width="1" x1="890" x2="885" y1="1022" y2="1022"/>
<line fill="#000000" stroke="#000000" stroke-width="1" x1="880" x2="875" y1="1022" y2="1022"/>
<line fill="#000000" stroke="#000000" stroke-width="1" x1="870" x2="865" y1="1022" y2="1022"/>
<line fill="#000000" stroke="#000000" stroke-width="1" x1="860" x2="855" y1="1022" y2="1022"/>
<line fill="#000000" stroke="#000000" stroke-width="1" x1="850" x2="845" y1="1022" y2="1022"/>
<line fill="#000000" stroke="#000000" stroke-width="1" x1="840" x2="835" y1="1022" y2="1022"/>
<line fill="#000000" stroke="#000000" stroke-width="1" x1="830" x2="825" y1="1022" y2="1022"/>
<line fill="#000000" stroke="#000000" stroke-width="1" x1="820" x2="815" y1="1022" y2="1022"/>
<line fill="#000000" stroke="#000000" stroke-width="1" x1="810" x2="805" y1="1022" y2="1022"/>
<line fill="#000000" stroke="#000000" stroke-width="1" x1="800" x2="795" y1="1022" y2="1022"/>
<line fill="#000000" stroke="#000000" stroke-width="1" x1="790" x2="785" y1="1022" y2="1022"/>
<line fill="#000000" stroke="#000000" stroke-width="1" x1="780" x2="775" y1="1022" y2="1022"/>
<line fill="#000000" stroke="#000000" stroke-width="1" x1="770" x2="765" y1="1022" y2="1022"/>
<line fill="#000000" stroke="#000000" stroke-width="1" x1="760" x2="755" y1="1022" y2="1022"/>
<line fill="#000000" stroke="#000000" stroke-width="1" x1="750" x2="745" y1="1022" y2="1022"/>
<line fill="#000000" stroke="#000000" stroke-width="1" x1="740" x2="735" y1="1022" y2="1022"/>
<line fill="#000000" stroke="#000000" stroke-width="1" x1="730" x2="725" y1="1022" y2="1022"/>
<line fill="#000000" stroke="#000000" stroke-width="1" x1="720" x2="715" y1="1022" y2="1022"/>
<line fill="#000000" stroke="#000000" stroke-width="1" x1="710" x2="705" y1="1022" y2="1022"/>
<line fill="#000000" stroke="#000000" stroke-width="1" x1="700" x2="695" y1="1022" y2="1022"/>
<line fill="#000000" stroke="#000000" stroke-width="1" x1="690" x2="685" y1="1022" y2="1022"/>
<line fill="#000000" stroke="#000000" stroke-width="1" x1="680" x2="678" y1="1022" y2="1022"/>
<line fill="#000000" stroke="#000000" stroke-width="1" x1="690" x2="678" y1="1015" y2="1022"/>
<line fill="#000000" stroke="#000000" stroke-width="1" x1="690" x2="678" y1="1029" y2="1022"/>
<line fill="#000000" stroke="#000000" stroke-width="1" x1="326" x2="326" y1="894" y2="889"/>
<line fill="#000000" stroke="#000000" stroke-width="1" x1="326" x2="326" y1="884" y2="879"/>
<line fill="#000000" stroke="#000000" stroke-width="1" x1="326" x2="326" y1="874" y2="869"/>
<line fill="#000000" stroke="#000000" stroke-width="1" x1="326" x2="326" y1="864" y2="859"/>
<line fill="#000000" stroke="#000000" stroke-width="1" x1="326" x2="326" y1="854" y2="849"/>
<line fill="#000000" stroke="#000000" stroke-width="1" x1="326" x2="326" y1="844" y2="839"/>
<line fill="#000000" stroke="#000000" stroke-width="1" x1="333" x2="326" y1="850" y2="838"/>
<line fill="#000000" stroke="#000000" stroke-width="1" x1="319" x2="326" y1="850" y2="838"/>
<rect fill="#ffffff" height="67" stroke="#ffffff" stroke-width="1" width="144" x="254" y="758"/>
<rect fill="none" height="67" stroke="#000000" stroke-width="1" width="144" x="254" y="758"/>
<text font-family="Dialog" font-size="12" x="261" y="772">
RecordMessageModel  </text>
<rect fill="#000000" height="1" stroke="#000000" stroke-width="1" width="144" x="254" y="782"/>
<rect fill="#000000" height="1" stroke="#000000" stroke-width="1" width="144" x="254" y="803"/>
<polyline fill="none" points="326,758 326,720" stroke="#000000" stroke-width="1"/>
<polygon fill="#ffffff" points="326,720 333,732 319,732" stroke="#ffffff" stroke-width="1"/>
<polygon fill="none" points="326,720 333,732 319,732" stroke="#000000" stroke-width="1"/>
<rect fill="#ffffff" height="67" stroke="#ffffff" stroke-width="1" width="170" x="350" y="934"/>
<rect fill="none" height="67" stroke="#000000" stroke-width="1" width="170" x="350" y="934"/>
<text font-family="Dialog" font-size="12" x="358" y="948">
RecordMessagesCollection</text>
<rect fill="#000000" height="1" stroke="#000000" stroke-width="1" width="170" x="350" y="958"/>
<rect fill="#000000" height="1" stroke="#000000" stroke-width="1" width="170" x="350" y="979"/>
<rect fill="#ffffff" height="71" stroke="#ffffff" stroke-width="1" width="108" x="62" y="102"/>
<rect fill="none" height="71" stroke="#000000" stroke-width="1" width="108" x="62" y="102"/>
<text font-family="Dialog" font-size="12" x="67" y="116">
NewFunctionView</text>
<rect fill="#000000" height="1" stroke="#000000" stroke-width="1" width="108" x="62" y="126"/>
<rect fill="#000000" height="1" stroke="#000000" stroke-width="1" width="108" x="62" y="149"/>
<polyline fill="none" points="390,1000 390,1046" stroke="#000000" stroke-width="1"/>
<polygon fill="#ffffff" points="390,1046 383,1034 397,1034" stroke="#ffffff" stroke-width="1"/>
<polygon fill="none" points="390,1046 383,1034 397,1034" stroke="#000000" stroke-width="1"/>
<polyline fill="none" points="169,134 278,134" stroke="#000000" stroke-width="1"/>
<polygon fill="#ffffff" points="278,134 266,141 266,127" stroke="#ffffff" stroke-width="1"/>
<polygon fill="none" points="278,134 266,141 266,127" stroke="#000000" stroke-width="1"/>
<rect fill="#ffffff" height="68" stroke="#ffffff" stroke-width="1" width="170" x="1078" y="462"/>
<rect fill="none" height="68" stroke="#000000" stroke-width="1" width="170" x="1078" y="462"/>
<text font-family="Dialog" font-size="12" x="1083" y="476">
NewFunctionCommunication</text>
<rect fill="#000000" height="1" stroke="#000000" stroke-width="1" width="170" x="1078" y="486"/>
<rect fill="#000000" height="1" stroke="#000000" stroke-width="1" width="170" x="1078" y="507"/>
</svg>
