<?xml version="1.0" encoding="utf-8" ?>
<!DOCTYPE svg PUBLIC "-//W3C//DTD SVG 1.1//EN" "http://www.w3.org/Graphics/SVG/1.1/DTD/svg11.dtd">
<svg height="324" version="1.1" width="684" xmlns="http://www.w3.org/2000/svg">
<polygon fill="#ffffff" points="14,14 659,14 669,24 669,309 14,309 14,14" stroke="#ffffff" stroke-width="1"/>
<polyline fill="none" points="14,14 659,14 669,24 669,309 14,309 14,14" stroke="#000000" stroke-width="1"/>
<polygon fill="#ffffff" points="659,14 669,24 659,24 659,14" stroke="#ffffff" stroke-width="1"/>
<polyline fill="none" points="659,14 669,24 659,24 659,14" stroke="#000000" stroke-width="1"/>
<text font-family="Dialog" font-size="12" x="17" y="30">
transfer</text>
<polygon fill="#ffc8ff" points="38,54 596,54 596,78 645,78 645,285 38,285 38,54" stroke="#ffc8ff" stroke-width="1"/>
<rect fill="none" height="24" stroke="#000000" stroke-width="1" width="558" x="38" y="54"/>
<text font-family="Dialog" font-size="12" font-weight="bold" x="43" y="68">
mytalk::server::transfer</text>
<rect fill="none" height="207" stroke="#000000" stroke-width="1" width="607" x="38" y="78"/>
<rect fill="#ffffff" height="68" stroke="#ffffff" stroke-width="1" width="141" x="54" y="198"/>
<rect fill="none" height="68" stroke="#000000" stroke-width="1" width="141" x="54" y="198"/>
<text font-family="Dialog" font-size="12" font-weight="bold" x="59" y="212">
AuthenticationTransfer</text>
<rect fill="#000000" height="1" stroke="#000000" stroke-width="1" width="141" x="54" y="222"/>
<rect fill="#000000" height="1" stroke="#000000" stroke-width="1" width="141" x="54" y="243"/>
<rect fill="#ffffff" height="67" stroke="#ffffff" stroke-width="1" width="80" x="206" y="198"/>
<rect fill="none" height="67" stroke="#000000" stroke-width="1" width="80" x="206" y="198"/>
<text font-family="Dialog" font-size="12" font-weight="bold" x="211" y="212">
CallTransfer</text>
<rect fill="#000000" height="1" stroke="#000000" stroke-width="1" width="80" x="206" y="222"/>
<rect fill="#000000" height="1" stroke="#000000" stroke-width="1" width="80" x="206" y="243"/>
<rect fill="#ffffff" height="67" stroke="#ffffff" stroke-width="1" width="152" x="295" y="198"/>
<rect fill="none" height="67" stroke="#000000" stroke-width="1" width="152" x="295" y="198"/>
<text font-family="Dialog" font-size="12" font-weight="bold" x="300" y="212">
RecordMessageTransfer</text>
<rect fill="#000000" height="1" stroke="#000000" stroke-width="1" width="152" x="295" y="222"/>
<rect fill="#000000" height="1" stroke="#000000" stroke-width="1" width="152" x="295" y="243"/>
<rect fill="#ffffff" height="68" stroke="#ffffff" stroke-width="1" width="86" x="454" y="198"/>
<rect fill="none" height="68" stroke="#000000" stroke-width="1" width="86" x="454" y="198"/>
<text font-family="Dialog" font-size="12" font-weight="bold" x="459" y="212">
UserTransfer</text>
<rect fill="#000000" height="1" stroke="#000000" stroke-width="1" width="86" x="454" y="222"/>
<rect fill="#000000" height="1" stroke="#000000" stroke-width="1" width="86" x="454" y="243"/>
<rect fill="#ffffff" height="68" stroke="#ffffff" stroke-width="1" width="106" x="238" y="86"/>
<rect fill="none" height="68" stroke="#000000" stroke-width="1" width="106" x="238" y="86"/>
<text font-family="Dialog" font-size="12" font-weight="bold" x="243" y="100">
ListenerTransfer</text>
<rect fill="#000000" height="1" stroke="#000000" stroke-width="1" width="106" x="238" y="110"/>
<rect fill="#000000" height="1" stroke="#000000" stroke-width="1" width="106" x="238" y="131"/>
<polyline fill="none" points="262,198 262,153" stroke="#333399" stroke-width="1"/>
<polygon fill="#ffffff" points="262,153 269,165 255,165" stroke="#ffffff" stroke-width="1"/>
<polygon fill="none" points="262,153 269,165 255,165" stroke="#333399" stroke-width="1"/>
<polyline fill="none" points="118,198 118,118 238,118" stroke="#333399" stroke-width="1"/>
<polygon fill="#ffffff" points="238,118 226,125 226,111" stroke="#ffffff" stroke-width="1"/>
<polygon fill="none" points="238,118 226,125 226,111" stroke="#333399" stroke-width="1"/>
<polyline fill="none" points="318,198 318,153" stroke="#333399" stroke-width="1"/>
<polygon fill="#ffffff" points="318,153 325,165 311,165" stroke="#ffffff" stroke-width="1"/>
<polygon fill="none" points="318,153 325,165 311,165" stroke="#333399" stroke-width="1"/>
<polyline fill="none" points="494,198 494,118 343,118" stroke="#333399" stroke-width="1"/>
<polygon fill="#ffffff" points="343,118 355,111 355,125" stroke="#ffffff" stroke-width="1"/>
<polygon fill="none" points="343,118 355,111 355,125" stroke="#333399" stroke-width="1"/>
<rect fill="#ffffff" height="68" stroke="#ffffff" stroke-width="1" width="85" x="542" y="86"/>
<rect fill="none" height="68" stroke="#000000" stroke-width="1" width="85" x="542" y="86"/>
<text font-family="Dialog" font-size="12" font-weight="bold" x="547" y="100">
ChatTransfer</text>
<rect fill="#000000" height="1" stroke="#000000" stroke-width="1" width="85" x="542" y="110"/>
<rect fill="#000000" height="1" stroke="#000000" stroke-width="1" width="85" x="542" y="131"/>
<rect fill="#ffffff" height="68" stroke="#ffffff" stroke-width="1" width="78" x="550" y="198"/>
<rect fill="none" height="68" stroke="#000000" stroke-width="1" width="78" x="550" y="198"/>
<text font-family="Dialog" font-size="12" font-weight="bold" x="555" y="212">
FileTransfer</text>
<rect fill="#000000" height="1" stroke="#000000" stroke-width="1" width="78" x="550" y="222"/>
<rect fill="#000000" height="1" stroke="#000000" stroke-width="1" width="78" x="550" y="243"/>
</svg>
