<?xml version="1.0" encoding="utf-8" ?>
<!DOCTYPE svg PUBLIC "-//W3C//DTD SVG 1.1//EN" "http://www.w3.org/Graphics/SVG/1.1/DTD/svg11.dtd">
<svg height="180" version="1.1" width="444" xmlns="http://www.w3.org/2000/svg">
<polygon fill="#ffffc8" points="14,14 380,14 380,38 429,38 429,165 14,165 14,14" stroke="#ffffc8" stroke-width="1"/>
<rect fill="none" height="24" stroke="#000000" stroke-width="1" width="366" x="14" y="14"/>
<text font-family="Dialog" font-size="12" font-weight="bold" x="19" y="28">
mytalk::server::transfer</text>
<rect fill="none" height="127" stroke="#000000" stroke-width="1" width="415" x="14" y="38"/>
<rect fill="#ffffff" height="68" stroke="#ffffff" stroke-width="1" width="115" x="38" y="62"/>
<rect fill="none" height="68" stroke="#000000" stroke-width="1" width="115" x="38" y="62"/>
<text font-family="Dialog" font-size="12" font-weight="bold" x="43" y="76">
JWebSocketClient</text>
<rect fill="#000000" height="1" stroke="#000000" stroke-width="1" width="115" x="38" y="86"/>
<rect fill="#000000" height="1" stroke="#000000" stroke-width="1" width="115" x="38" y="107"/>
<rect fill="#ffffff" height="68" stroke="#ffffff" stroke-width="1" width="199" x="182" y="62"/>
<rect fill="none" height="68" stroke="#000000" stroke-width="1" width="199" x="182" y="62"/>
<text font-family="Dialog" font-size="12" font-weight="bold" x="187" y="76">
StandalonJWebSocketJavaClient</text>
<rect fill="#000000" height="1" stroke="#000000" stroke-width="1" width="199" x="182" y="86"/>
<rect fill="#000000" height="1" stroke="#000000" stroke-width="1" width="199" x="182" y="107"/>
</svg>
