<?xml version="1.0" encoding="utf-8" ?>
<!DOCTYPE svg PUBLIC "-//W3C//DTD SVG 1.1//EN" "http://www.w3.org/Graphics/SVG/1.1/DTD/svg11.dtd">
<svg height="452" version="1.1" width="444" xmlns="http://www.w3.org/2000/svg">
<polygon fill="#ffffc8" points="14,14 380,14 380,38 429,38 429,437 14,437 14,14" stroke="#ffffc8" stroke-width="1"/>
<rect fill="none" height="24" stroke="#000000" stroke-width="1" width="366" x="14" y="14"/>
<text font-family="Dialog" font-size="12" x="19" y="28">
mytalk::client::communication</text>
<rect fill="none" height="399" stroke="#000000" stroke-width="1" width="415" x="14" y="38"/>
<rect fill="#ffffff" height="69" stroke="#ffffff" stroke-width="1" width="159" x="254" y="238"/>
<rect fill="none" height="69" stroke="#000000" stroke-width="1" width="159" x="254" y="238"/>
<text font-family="Dialog" font-size="12" x="265" y="252">
SendFileCommunication</text>
<rect fill="#000000" height="1" stroke="#000000" stroke-width="1" width="159" x="254" y="262"/>
<rect fill="#000000" height="1" stroke="#000000" stroke-width="1" width="159" x="254" y="284"/>
<rect fill="#ffffff" height="67" stroke="#ffffff" stroke-width="1" width="198" x="34" y="62"/>
<rect fill="none" height="67" stroke="#000000" stroke-width="1" width="198" x="34" y="62"/>
<text font-family="Dialog" font-size="12" x="50" y="76">
AuthenticationCommunication</text>
<rect fill="#000000" height="1" stroke="#000000" stroke-width="1" width="198" x="34" y="86"/>
<rect fill="#000000" height="1" stroke="#000000" stroke-width="1" width="198" x="34" y="107"/>
<rect fill="#ffffff" height="67" stroke="#ffffff" stroke-width="1" width="162" x="186" y="154"/>
<rect fill="none" height="67" stroke="#000000" stroke-width="1" width="162" x="186" y="154"/>
<text font-family="Dialog" font-size="12" x="198" y="168">
ContactsCommunication</text>
<rect fill="#000000" height="1" stroke="#000000" stroke-width="1" width="162" x="186" y="178"/>
<rect fill="#000000" height="1" stroke="#000000" stroke-width="1" width="162" x="186" y="199"/>
<rect fill="#ffffff" height="67" stroke="#ffffff" stroke-width="1" width="128" x="34" y="154"/>
<rect fill="none" height="67" stroke="#000000" stroke-width="1" width="128" x="34" y="154"/>
<text font-family="Dialog" font-size="12" x="43" y="168">
CallCommunication</text>
<rect fill="#000000" height="1" stroke="#000000" stroke-width="1" width="128" x="34" y="178"/>
<rect fill="#000000" height="1" stroke="#000000" stroke-width="1" width="128" x="34" y="199"/>
<rect fill="#ffffff" height="67" stroke="#ffffff" stroke-width="1" width="177" x="34" y="334"/>
<rect fill="none" height="67" stroke="#000000" stroke-width="1" width="177" x="34" y="334"/>
<text font-family="Dialog" font-size="12" x="48" y="348">
NotificationCommunication</text>
<rect fill="#000000" height="1" stroke="#000000" stroke-width="1" width="177" x="34" y="358"/>
<rect fill="#000000" height="1" stroke="#000000" stroke-width="1" width="177" x="34" y="379"/>
<rect fill="#ffffff" height="67" stroke="#ffffff" stroke-width="1" width="165" x="238" y="334"/>
<rect fill="none" height="67" stroke="#000000" stroke-width="1" width="165" x="238" y="334"/>
<text font-family="Dialog" font-size="12" x="250" y="348">
UserDataCommunication</text>
<rect fill="#000000" height="1" stroke="#000000" stroke-width="1" width="165" x="238" y="358"/>
<rect fill="#000000" height="1" stroke="#000000" stroke-width="1" width="165" x="238" y="379"/>
<rect fill="#ffffff" height="67" stroke="#ffffff" stroke-width="1" width="206" x="34" y="242"/>
<rect fill="none" height="67" stroke="#000000" stroke-width="1" width="206" x="34" y="242"/>
<text font-family="Dialog" font-size="12" x="47" y="256">
RecordMessageCommunication</text>
<rect fill="#000000" height="1" stroke="#000000" stroke-width="1" width="206" x="34" y="266"/>
<rect fill="#000000" height="1" stroke="#000000" stroke-width="1" width="206" x="34" y="287"/>
<rect fill="#ffffff" height="67" stroke="#ffffff" stroke-width="1" width="153" x="258" y="62"/>
<rect fill="none" height="67" stroke="#000000" stroke-width="1" width="153" x="258" y="62"/>
<text font-family="Dialog" font-size="12" x="270" y="76">
TutorialCommunication</text>
<rect fill="#000000" height="1" stroke="#000000" stroke-width="1" width="153" x="258" y="86"/>
<rect fill="#000000" height="1" stroke="#000000" stroke-width="1" width="153" x="258" y="107"/>
</svg>
