<?xml version="1.0" encoding="utf-8" ?>
<!DOCTYPE svg PUBLIC "-//W3C//DTD SVG 1.1//EN" "http://www.w3.org/Graphics/SVG/1.1/DTD/svg11.dtd">
<svg height="243" version="1.1" width="584" xmlns="http://www.w3.org/2000/svg">
<polygon fill="#c8c8ff" points="14,14 520,14 520,38 569,38 569,228 14,228 14,14" stroke="#c8c8ff" stroke-width="1"/>
<rect fill="none" height="24" stroke="#000000" stroke-width="1" width="506" x="14" y="14"/>
<text font-family="Dialog" font-size="12" x="19" y="28">
mytalk::client::model</text>
<rect fill="none" height="190" stroke="#000000" stroke-width="1" width="555" x="14" y="38"/>
<rect fill="#ffffff" height="67" stroke="#ffffff" stroke-width="1" width="113" x="218" y="49"/>
<rect fill="none" height="67" stroke="#000000" stroke-width="1" width="113" x="218" y="49"/>
<text font-family="Dialog" font-size="12" x="229" y="63">
Backbone.Model</text>
<rect fill="#000000" height="1" stroke="#000000" stroke-width="1" width="113" x="218" y="73"/>
<rect fill="#000000" height="1" stroke="#000000" stroke-width="1" width="113" x="218" y="94"/>
<rect fill="#ffffff" height="67" stroke="#ffffff" stroke-width="1" width="70" x="34" y="137"/>
<rect fill="none" height="67" stroke="#000000" stroke-width="1" width="70" x="34" y="137"/>
<text font-family="Dialog" font-size="12" x="39" y="151">
UserModel</text>
<rect fill="#000000" height="1" stroke="#000000" stroke-width="1" width="70" x="34" y="161"/>
<rect fill="#000000" height="1" stroke="#000000" stroke-width="1" width="70" x="34" y="182"/>
<rect fill="#ffffff" height="67" stroke="#ffffff" stroke-width="1" width="85" x="122" y="137"/>
<rect fill="none" height="67" stroke="#000000" stroke-width="1" width="85" x="122" y="137"/>
<text font-family="Dialog" font-size="12" x="127" y="151">
ContactModel</text>
<rect fill="#000000" height="1" stroke="#000000" stroke-width="1" width="85" x="122" y="161"/>
<rect fill="#000000" height="1" stroke="#000000" stroke-width="1" width="85" x="122" y="182"/>
<rect fill="#ffffff" height="67" stroke="#ffffff" stroke-width="1" width="93" x="226" y="137"/>
<rect fill="none" height="67" stroke="#000000" stroke-width="1" width="93" x="226" y="137"/>
<text font-family="Dialog" font-size="12" x="231" y="151">
StatisticsModel</text>
<rect fill="#000000" height="1" stroke="#000000" stroke-width="1" width="93" x="226" y="161"/>
<rect fill="#000000" height="1" stroke="#000000" stroke-width="1" width="93" x="226" y="182"/>
<rect fill="#ffffff" height="67" stroke="#ffffff" stroke-width="1" width="116" x="338" y="137"/>
<rect fill="none" height="67" stroke="#000000" stroke-width="1" width="116" x="338" y="137"/>
<text font-family="Dialog" font-size="12" x="343" y="151">
TextMessageModel</text>
<rect fill="#000000" height="1" stroke="#000000" stroke-width="1" width="116" x="338" y="161"/>
<rect fill="#000000" height="1" stroke="#000000" stroke-width="1" width="116" x="338" y="182"/>
<rect fill="#ffffff" height="67" stroke="#ffffff" stroke-width="1" width="84" x="466" y="137"/>
<rect fill="none" height="67" stroke="#000000" stroke-width="1" width="84" x="466" y="137"/>
<text font-family="Dialog" font-size="12" x="471" y="151">
TutorialModel</text>
<rect fill="#000000" height="1" stroke="#000000" stroke-width="1" width="84" x="466" y="161"/>
<rect fill="#000000" height="1" stroke="#000000" stroke-width="1" width="84" x="466" y="182"/>
<polyline fill="none" points="66,137 66,77 218,77" stroke="#000000" stroke-width="1"/>
<polygon fill="#ffffff" points="218,77 206,84 206,70" stroke="#ffffff" stroke-width="1"/>
<polygon fill="none" points="218,77 206,84 206,70" stroke="#000000" stroke-width="1"/>
<polyline fill="none" points="162,137 162,105 218,105" stroke="#000000" stroke-width="1"/>
<polygon fill="#ffffff" points="218,105 206,112 206,98" stroke="#ffffff" stroke-width="1"/>
<polygon fill="none" points="218,105 206,112 206,98" stroke="#000000" stroke-width="1"/>
<polyline fill="none" points="274,137 274,115" stroke="#000000" stroke-width="1"/>
<polygon fill="#ffffff" points="274,115 281,127 267,127" stroke="#ffffff" stroke-width="1"/>
<polygon fill="none" points="274,115 281,127 267,127" stroke="#000000" stroke-width="1"/>
<polyline fill="none" points="394,137 394,105 330,105" stroke="#000000" stroke-width="1"/>
<polygon fill="#ffffff" points="330,105 342,98 342,112" stroke="#ffffff" stroke-width="1"/>
<polygon fill="none" points="330,105 342,98 342,112" stroke="#000000" stroke-width="1"/>
<polyline fill="none" points="514,137 514,77 330,77" stroke="#000000" stroke-width="1"/>
<polygon fill="#ffffff" points="330,77 342,70 342,84" stroke="#ffffff" stroke-width="1"/>
<polygon fill="none" points="330,77 342,70 342,84" stroke="#000000" stroke-width="1"/>
</svg>
