<?xml version="1.0" encoding="utf-8" ?>
<!DOCTYPE svg PUBLIC "-//W3C//DTD SVG 1.1//EN" "http://www.w3.org/Graphics/SVG/1.1/DTD/svg11.dtd">
<svg height="244" version="1.1" width="596" xmlns="http://www.w3.org/2000/svg">
<polygon fill="#ffffc8" points="14,14 532,14 532,38 581,38 581,229 14,229 14,14" stroke="#ffffc8" stroke-width="1"/>
<rect fill="none" height="24" stroke="#000000" stroke-width="1" width="518" x="14" y="14"/>
<text font-family="Dialog" font-size="12" x="19" y="28">
mytalk::client::model</text>
<rect fill="none" height="191" stroke="#000000" stroke-width="1" width="567" x="14" y="38"/>
<rect fill="#ffffff" height="67" stroke="#ffffff" stroke-width="1" width="113" x="230" y="45"/>
<rect fill="none" height="67" stroke="#000000" stroke-width="1" width="113" x="230" y="45"/>
<text font-family="Dialog" font-size="12" x="241" y="59">
Backbone.Model</text>
<rect fill="#000000" height="1" stroke="#000000" stroke-width="1" width="113" x="230" y="69"/>
<rect fill="#000000" height="1" stroke="#000000" stroke-width="1" width="113" x="230" y="90"/>
<rect fill="#ffffff" height="67" stroke="#ffffff" stroke-width="1" width="70" x="34" y="141"/>
<rect fill="none" height="67" stroke="#000000" stroke-width="1" width="70" x="34" y="141"/>
<text font-family="Dialog" font-size="12" x="39" y="155">
UserModel</text>
<rect fill="#000000" height="1" stroke="#000000" stroke-width="1" width="70" x="34" y="165"/>
<rect fill="#000000" height="1" stroke="#000000" stroke-width="1" width="70" x="34" y="186"/>
<rect fill="#ffffff" height="67" stroke="#ffffff" stroke-width="1" width="85" x="126" y="142"/>
<rect fill="none" height="67" stroke="#000000" stroke-width="1" width="85" x="126" y="142"/>
<text font-family="Dialog" font-size="12" x="131" y="156">
ContactModel</text>
<rect fill="#000000" height="1" stroke="#000000" stroke-width="1" width="85" x="126" y="166"/>
<rect fill="#000000" height="1" stroke="#000000" stroke-width="1" width="85" x="126" y="187"/>
<rect fill="#ffffff" height="67" stroke="#ffffff" stroke-width="1" width="93" x="230" y="142"/>
<rect fill="none" height="67" stroke="#000000" stroke-width="1" width="93" x="230" y="142"/>
<text font-family="Dialog" font-size="12" x="235" y="156">
StatisticsModel</text>
<rect fill="#000000" height="1" stroke="#000000" stroke-width="1" width="93" x="230" y="166"/>
<rect fill="#000000" height="1" stroke="#000000" stroke-width="1" width="93" x="230" y="187"/>
<rect fill="#ffffff" height="67" stroke="#ffffff" stroke-width="1" width="116" x="342" y="142"/>
<rect fill="none" height="67" stroke="#000000" stroke-width="1" width="116" x="342" y="142"/>
<text font-family="Dialog" font-size="12" x="347" y="156">
TextMessageModel</text>
<rect fill="#000000" height="1" stroke="#000000" stroke-width="1" width="116" x="342" y="166"/>
<rect fill="#000000" height="1" stroke="#000000" stroke-width="1" width="116" x="342" y="187"/>
<rect fill="#ffffff" height="67" stroke="#ffffff" stroke-width="1" width="84" x="478" y="142"/>
<rect fill="none" height="67" stroke="#000000" stroke-width="1" width="84" x="478" y="142"/>
<text font-family="Dialog" font-size="12" x="483" y="156">
TutorialModel</text>
<rect fill="#000000" height="1" stroke="#000000" stroke-width="1" width="84" x="478" y="166"/>
<rect fill="#000000" height="1" stroke="#000000" stroke-width="1" width="84" x="478" y="187"/>
<polyline fill="none" points="66,141 66,77 230,77" stroke="#000000" stroke-width="1"/>
<polygon fill="#ffffff" points="230,77 218,84 218,70" stroke="#ffffff" stroke-width="1"/>
<polygon fill="none" points="230,77 218,84 218,70" stroke="#000000" stroke-width="1"/>
<polyline fill="none" points="186,142 186,101 230,101" stroke="#000000" stroke-width="1"/>
<polygon fill="#ffffff" points="230,101 218,108 218,94" stroke="#ffffff" stroke-width="1"/>
<polygon fill="none" points="230,101 218,108 218,94" stroke="#000000" stroke-width="1"/>
<polyline fill="none" points="282,142 282,111" stroke="#000000" stroke-width="1"/>
<polygon fill="#ffffff" points="282,111 289,123 275,123" stroke="#ffffff" stroke-width="1"/>
<polygon fill="none" points="282,111 289,123 275,123" stroke="#000000" stroke-width="1"/>
<polyline fill="none" points="402,142 402,97 342,97" stroke="#000000" stroke-width="1"/>
<polygon fill="#ffffff" points="342,97 354,90 354,104" stroke="#ffffff" stroke-width="1"/>
<polygon fill="none" points="342,97 354,90 354,104" stroke="#000000" stroke-width="1"/>
<polyline fill="none" points="514,142 514,77 342,77" stroke="#000000" stroke-width="1"/>
<polygon fill="#ffffff" points="342,77 354,70 354,84" stroke="#ffffff" stroke-width="1"/>
<polygon fill="none" points="342,77 354,70 354,84" stroke="#000000" stroke-width="1"/>
</svg>
