<?xml version="1.0" encoding="utf-8" ?>
<!DOCTYPE svg PUBLIC "-//W3C//DTD SVG 1.1//EN" "http://www.w3.org/Graphics/SVG/1.1/DTD/svg11.dtd">
<svg height="156" version="1.1" width="316" xmlns="http://www.w3.org/2000/svg">
<polygon fill="#c8ffc8" points="14,14 252,14 252,38 301,38 301,141 14,141 14,14" stroke="#c8ffc8" stroke-width="1"/>
<rect fill="none" height="24" stroke="#000000" stroke-width="1" width="238" x="14" y="14"/>
<text font-family="Dialog" font-size="12" font-weight="bold" x="19" y="28">
mytalk::server::usermanager</text>
<rect fill="none" height="103" stroke="#000000" stroke-width="1" width="287" x="14" y="38"/>
<rect fill="#ffffff" height="68" stroke="#ffffff" stroke-width="1" width="142" x="30" y="54"/>
<rect fill="none" height="68" stroke="#000000" stroke-width="1" width="142" x="30" y="54"/>
<text font-family="Dialog" font-size="12" font-weight="bold" x="35" y="68">
AuthenticationManager</text>
<rect fill="#000000" height="1" stroke="#000000" stroke-width="1" width="142" x="30" y="78"/>
<rect fill="#000000" height="1" stroke="#000000" stroke-width="1" width="142" x="30" y="99"/>
<rect fill="#ffffff" height="68" stroke="#ffffff" stroke-width="1" width="87" x="190" y="54"/>
<rect fill="none" height="68" stroke="#000000" stroke-width="1" width="87" x="190" y="54"/>
<text font-family="Dialog" font-size="12" font-weight="bold" x="195" y="68">
UserManager</text>
<rect fill="#000000" height="1" stroke="#000000" stroke-width="1" width="87" x="190" y="78"/>
<rect fill="#000000" height="1" stroke="#000000" stroke-width="1" width="87" x="190" y="99"/>
</svg>
