<?xml version="1.0" encoding="utf-8" ?>
<!DOCTYPE svg PUBLIC "-//W3C//DTD SVG 1.1//EN" "http://www.w3.org/Graphics/SVG/1.1/DTD/svg11.dtd">
<svg height="172" version="1.1" width="396" xmlns="http://www.w3.org/2000/svg">
<polygon fill="#ffffc8" points="14,14 332,14 332,38 381,38 381,157 14,157 14,14" stroke="#ffffc8" stroke-width="1"/>
<rect fill="none" height="24" stroke="#000000" stroke-width="1" width="318" x="14" y="14"/>
<text font-family="Dialog" font-size="12" font-weight="bold" x="19" y="28">
mytalk::server::usermanager</text>
<rect fill="none" height="119" stroke="#000000" stroke-width="1" width="367" x="14" y="38"/>
<rect fill="#ffffff" height="68" stroke="#ffffff" stroke-width="1" width="142" x="46" y="62"/>
<rect fill="none" height="68" stroke="#000000" stroke-width="1" width="142" x="46" y="62"/>
<text font-family="Dialog" font-size="12" font-weight="bold" x="51" y="76">
AuthenticationManager</text>
<rect fill="#000000" height="1" stroke="#000000" stroke-width="1" width="142" x="46" y="86"/>
<rect fill="#000000" height="1" stroke="#000000" stroke-width="1" width="142" x="46" y="107"/>
<rect fill="#ffffff" height="68" stroke="#ffffff" stroke-width="1" width="87" x="222" y="62"/>
<rect fill="none" height="68" stroke="#000000" stroke-width="1" width="87" x="222" y="62"/>
<text font-family="Dialog" font-size="12" font-weight="bold" x="227" y="76">
UserManager</text>
<rect fill="#000000" height="1" stroke="#000000" stroke-width="1" width="87" x="222" y="86"/>
<rect fill="#000000" height="1" stroke="#000000" stroke-width="1" width="87" x="222" y="107"/>
</svg>
