<?xml version="1.0" encoding="utf-8" ?>
<!DOCTYPE svg PUBLIC "-//W3C//DTD SVG 1.1//EN" "http://www.w3.org/Graphics/SVG/1.1/DTD/svg11.dtd">
<svg height="460" version="1.1" width="748" xmlns="http://www.w3.org/2000/svg">
<polygon fill="#c8ffc8" points="14,14 684,14 684,38 733,38 733,445 14,445 14,14" stroke="#c8ffc8" stroke-width="1"/>
<rect fill="none" height="24" stroke="#000000" stroke-width="1" width="670" x="14" y="14"/>
<text font-family="Dialog" font-size="12" x="19" y="28">
mytalk::client::view</text>
<rect fill="none" height="407" stroke="#000000" stroke-width="1" width="719" x="14" y="38"/>
<rect fill="#ffffff" height="67" stroke="#ffffff" stroke-width="1" width="147" x="26" y="170"/>
<rect fill="none" height="67" stroke="#000000" stroke-width="1" width="147" x="26" y="170"/>
<text font-family="Dialog" font-size="12" x="48" y="184">
AuthenticationView</text>
<rect fill="#000000" height="1" stroke="#000000" stroke-width="1" width="147" x="26" y="194"/>
<rect fill="#000000" height="1" stroke="#000000" stroke-width="1" width="147" x="26" y="215"/>
<rect fill="#ffffff" height="67" stroke="#ffffff" stroke-width="1" width="66" x="358" y="254"/>
<rect fill="none" height="67" stroke="#000000" stroke-width="1" width="66" x="358" y="254"/>
<text font-family="Dialog" font-size="12" x="365" y="268">
SideView</text>
<rect fill="#000000" height="1" stroke="#000000" stroke-width="1" width="66" x="358" y="278"/>
<rect fill="#000000" height="1" stroke="#000000" stroke-width="1" width="66" x="358" y="299"/>
<rect fill="#ffffff" height="67" stroke="#ffffff" stroke-width="1" width="66" x="646" y="350"/>
<rect fill="none" height="67" stroke="#000000" stroke-width="1" width="66" x="646" y="350"/>
<text font-family="Dialog" font-size="12" x="655" y="364">
CallView</text>
<rect fill="#000000" height="1" stroke="#000000" stroke-width="1" width="66" x="646" y="374"/>
<rect fill="#000000" height="1" stroke="#000000" stroke-width="1" width="66" x="646" y="395"/>
<rect fill="#ffffff" height="67" stroke="#ffffff" stroke-width="1" width="84" x="514" y="171"/>
<rect fill="none" height="67" stroke="#000000" stroke-width="1" width="84" x="514" y="171"/>
<text font-family="Dialog" font-size="12" x="530" y="185">
ChatView</text>
<rect fill="#000000" height="1" stroke="#000000" stroke-width="1" width="84" x="514" y="195"/>
<rect fill="#000000" height="1" stroke="#000000" stroke-width="1" width="84" x="514" y="216"/>
<rect fill="#ffffff" height="67" stroke="#ffffff" stroke-width="1" width="126" x="34" y="258"/>
<rect fill="none" height="67" stroke="#000000" stroke-width="1" width="126" x="34" y="258"/>
<text font-family="Dialog" font-size="12" x="53" y="272">
NotificationView</text>
<rect fill="#000000" height="1" stroke="#000000" stroke-width="1" width="126" x="34" y="282"/>
<rect fill="#000000" height="1" stroke="#000000" stroke-width="1" width="126" x="34" y="303"/>
<rect fill="#ffffff" height="67" stroke="#ffffff" stroke-width="1" width="106" x="502" y="350"/>
<rect fill="none" height="67" stroke="#000000" stroke-width="1" width="106" x="502" y="350"/>
<text font-family="Dialog" font-size="12" x="515" y="364">
UserDataView</text>
<rect fill="#000000" height="1" stroke="#000000" stroke-width="1" width="106" x="502" y="374"/>
<rect fill="#000000" height="1" stroke="#000000" stroke-width="1" width="106" x="502" y="395"/>
<rect fill="#ffffff" height="67" stroke="#ffffff" stroke-width="1" width="86" x="350" y="166"/>
<rect fill="none" height="67" stroke="#000000" stroke-width="1" width="86" x="350" y="166"/>
<text font-family="Dialog" font-size="12" x="355" y="180">
StatisticsView</text>
<rect fill="#000000" height="1" stroke="#000000" stroke-width="1" width="86" x="350" y="190"/>
<rect fill="#000000" height="1" stroke="#000000" stroke-width="1" width="86" x="350" y="211"/>
<rect fill="#ffffff" height="67" stroke="#ffffff" stroke-width="1" width="155" x="562" y="259"/>
<rect fill="none" height="67" stroke="#000000" stroke-width="1" width="155" x="562" y="259"/>
<text font-family="Dialog" font-size="12" x="581" y="273">
RecordMessageView</text>
<rect fill="#000000" height="1" stroke="#000000" stroke-width="1" width="155" x="562" y="283"/>
<rect fill="#000000" height="1" stroke="#000000" stroke-width="1" width="155" x="562" y="304"/>
<rect fill="#ffffff" height="68" stroke="#ffffff" stroke-width="1" width="102" x="614" y="170"/>
<rect fill="none" height="68" stroke="#000000" stroke-width="1" width="102" x="614" y="170"/>
<text font-family="Dialog" font-size="12" x="631" y="184">
TutorialView</text>
<rect fill="#000000" height="1" stroke="#000000" stroke-width="1" width="102" x="614" y="194"/>
<rect fill="#000000" height="1" stroke="#000000" stroke-width="1" width="102" x="614" y="215"/>
<rect fill="#ffffff" height="68" stroke="#ffffff" stroke-width="1" width="108" x="42" y="346"/>
<rect fill="none" height="68" stroke="#000000" stroke-width="1" width="108" x="42" y="346"/>
<text font-family="Dialog" font-size="12" x="58" y="360">
SendFileView</text>
<rect fill="#000000" height="1" stroke="#000000" stroke-width="1" width="108" x="42" y="370"/>
<rect fill="#000000" height="1" stroke="#000000" stroke-width="1" width="108" x="42" y="391"/>
<rect fill="#ffffff" height="67" stroke="#ffffff" stroke-width="1" width="99" x="190" y="347"/>
<rect fill="none" height="67" stroke="#000000" stroke-width="1" width="99" x="190" y="347"/>
<text font-family="Dialog" font-size="12" x="199" y="361">
FunctionsView</text>
<rect fill="#000000" height="1" stroke="#000000" stroke-width="1" width="99" x="190" y="371"/>
<rect fill="#000000" height="1" stroke="#000000" stroke-width="1" width="99" x="190" y="392"/>
<rect fill="#ffffff" height="67" stroke="#ffffff" stroke-width="1" width="104" x="238" y="62"/>
<rect fill="none" height="67" stroke="#000000" stroke-width="1" width="104" x="238" y="62"/>
<text font-family="Dialog" font-size="12" x="248" y="76">
Backbone.View</text>
<rect fill="#000000" height="1" stroke="#000000" stroke-width="1" width="104" x="238" y="86"/>
<rect fill="#000000" height="1" stroke="#000000" stroke-width="1" width="104" x="238" y="107"/>
<polyline fill="none" points="86,170 86,78 238,78" stroke="#000000" stroke-width="1"/>
<polygon fill="#ffffff" points="238,78 226,85 226,71" stroke="#ffffff" stroke-width="1"/>
<polygon fill="none" points="238,78 226,85 226,71" stroke="#000000" stroke-width="1"/>
<polyline fill="none" points="358,286 318,286 318,128" stroke="#000000" stroke-width="1"/>
<polygon fill="#ffffff" points="318,128 325,140 311,140" stroke="#ffffff" stroke-width="1"/>
<polygon fill="none" points="318,128 325,140 311,140" stroke="#000000" stroke-width="1"/>
<polyline fill="none" points="646,350 478,318 478,110 341,110" stroke="#000000" stroke-width="1"/>
<polygon fill="#ffffff" points="341,110 353,103 353,117" stroke="#ffffff" stroke-width="1"/>
<polygon fill="none" points="341,110 353,103 353,117" stroke="#000000" stroke-width="1"/>
<polyline fill="none" points="558,171 558,78 341,78" stroke="#000000" stroke-width="1"/>
<polygon fill="#ffffff" points="341,78 353,71 353,85" stroke="#ffffff" stroke-width="1"/>
<polygon fill="none" points="341,78 353,71 353,85" stroke="#000000" stroke-width="1"/>
<polyline fill="none" points="666,170 666,62 341,62" stroke="#000000" stroke-width="1"/>
<polygon fill="#ffffff" points="341,62 353,55 353,69" stroke="#ffffff" stroke-width="1"/>
<polygon fill="none" points="341,62 353,55 353,69" stroke="#000000" stroke-width="1"/>
<polyline fill="none" points="159,290 202,290 202,98 238,98" stroke="#000000" stroke-width="1"/>
<polygon fill="#ffffff" points="238,98 226,105 226,91" stroke="#ffffff" stroke-width="1"/>
<polygon fill="none" points="238,98 226,105 226,91" stroke="#000000" stroke-width="1"/>
<polyline fill="none" points="502,382 462,382 462,126 341,126" stroke="#000000" stroke-width="1"/>
<polygon fill="#ffffff" points="341,126 353,119 353,133" stroke="#ffffff" stroke-width="1"/>
<polygon fill="none" points="341,126 353,119 353,133" stroke="#000000" stroke-width="1"/>
<polyline fill="none" points="350,198 334,198 334,128" stroke="#000000" stroke-width="1"/>
<polygon fill="#ffffff" points="334,128 341,140 327,140" stroke="#ffffff" stroke-width="1"/>
<polygon fill="none" points="334,128 341,140 327,140" stroke="#000000" stroke-width="1"/>
<polyline fill="none" points="562,310 498,310 498,94 341,94" stroke="#000000" stroke-width="1"/>
<polygon fill="#ffffff" points="341,94 353,87 353,101" stroke="#ffffff" stroke-width="1"/>
<polygon fill="none" points="341,94 353,87 353,101" stroke="#000000" stroke-width="1"/>
<polyline fill="none" points="149,346 254,282 254,128" stroke="#000000" stroke-width="1"/>
<polygon fill="#ffffff" points="254,128 261,140 247,140" stroke="#ffffff" stroke-width="1"/>
<polygon fill="none" points="254,128 261,140 247,140" stroke="#000000" stroke-width="1"/>
<polyline fill="none" points="276,347 276,128" stroke="#000000" stroke-width="1"/>
<polygon fill="#ffffff" points="276,128 283,140 269,140" stroke="#ffffff" stroke-width="1"/>
<polygon fill="none" points="276,128 283,140 269,140" stroke="#000000" stroke-width="1"/>
<rect fill="#ffffff" height="68" stroke="#ffffff" stroke-width="1" width="78" x="350" y="342"/>
<rect fill="none" height="68" stroke="#000000" stroke-width="1" width="78" x="350" y="342"/>
<text font-family="Dialog" font-size="12" x="355" y="356">
ContactView</text>
<rect fill="#000000" height="1" stroke="#000000" stroke-width="1" width="78" x="350" y="366"/>
<rect fill="#000000" height="1" stroke="#000000" stroke-width="1" width="78" x="350" y="387"/>
<polyline fill="none" points="350,374 302,374 302,128" stroke="#000000" stroke-width="1"/>
<polygon fill="#ffffff" points="302,128 309,140 295,140" stroke="#ffffff" stroke-width="1"/>
<polygon fill="none" points="302,128 309,140 295,140" stroke="#000000" stroke-width="1"/>
</svg>
