<?xml version="1.0" encoding="utf-8" ?>
<!DOCTYPE svg PUBLIC "-//W3C//DTD SVG 1.1//EN" "http://www.w3.org/Graphics/SVG/1.1/DTD/svg11.dtd">
<svg height="460" version="1.1" width="748" xmlns="http://www.w3.org/2000/svg">
<polygon fill="#ffffc8" points="14,14 684,14 684,38 733,38 733,445 14,445 14,14" stroke="#ffffc8" stroke-width="1"/>
<rect fill="none" height="24" stroke="#000000" stroke-width="1" width="670" x="14" y="14"/>
<text font-family="Dialog" font-size="12" x="19" y="28">
mytalk::client::view</text>
<rect fill="none" height="407" stroke="#000000" stroke-width="1" width="719" x="14" y="38"/>
<rect fill="#ffffff" height="67" stroke="#ffffff" stroke-width="1" width="147" x="26" y="170"/>
<rect fill="none" height="67" stroke="#000000" stroke-width="1" width="147" x="26" y="170"/>
<text font-family="Dialog" font-size="12" x="48" y="184">
AuthenticationView</text>
<rect fill="#000000" height="1" stroke="#000000" stroke-width="1" width="147" x="26" y="194"/>
<rect fill="#000000" height="1" stroke="#000000" stroke-width="1" width="147" x="26" y="215"/>
<rect fill="#ffffff" height="67" stroke="#ffffff" stroke-width="1" width="105" x="350" y="259"/>
<rect fill="none" height="67" stroke="#000000" stroke-width="1" width="105" x="350" y="259"/>
<text font-family="Dialog" font-size="12" x="365" y="273">
ContactsView</text>
<rect fill="#000000" height="1" stroke="#000000" stroke-width="1" width="105" x="350" y="283"/>
<rect fill="#000000" height="1" stroke="#000000" stroke-width="1" width="105" x="350" y="304"/>
<rect fill="#ffffff" height="67" stroke="#ffffff" stroke-width="1" width="66" x="607" y="346"/>
<rect fill="none" height="67" stroke="#000000" stroke-width="1" width="66" x="607" y="346"/>
<text font-family="Dialog" font-size="12" x="616" y="360">
CallView</text>
<rect fill="#000000" height="1" stroke="#000000" stroke-width="1" width="66" x="607" y="370"/>
<rect fill="#000000" height="1" stroke="#000000" stroke-width="1" width="66" x="607" y="391"/>
<rect fill="#ffffff" height="67" stroke="#ffffff" stroke-width="1" width="84" x="514" y="171"/>
<rect fill="none" height="67" stroke="#000000" stroke-width="1" width="84" x="514" y="171"/>
<text font-family="Dialog" font-size="12" x="530" y="185">
ChatView</text>
<rect fill="#000000" height="1" stroke="#000000" stroke-width="1" width="84" x="514" y="195"/>
<rect fill="#000000" height="1" stroke="#000000" stroke-width="1" width="84" x="514" y="216"/>
<rect fill="#ffffff" height="67" stroke="#ffffff" stroke-width="1" width="126" x="34" y="258"/>
<rect fill="none" height="67" stroke="#000000" stroke-width="1" width="126" x="34" y="258"/>
<text font-family="Dialog" font-size="12" x="53" y="272">
NotificationView</text>
<rect fill="#000000" height="1" stroke="#000000" stroke-width="1" width="126" x="34" y="282"/>
<rect fill="#000000" height="1" stroke="#000000" stroke-width="1" width="126" x="34" y="303"/>
<rect fill="#ffffff" height="67" stroke="#ffffff" stroke-width="1" width="106" x="474" y="348"/>
<rect fill="none" height="67" stroke="#000000" stroke-width="1" width="106" x="474" y="348"/>
<text font-family="Dialog" font-size="12" x="487" y="362">
UserDataView</text>
<rect fill="#000000" height="1" stroke="#000000" stroke-width="1" width="106" x="474" y="372"/>
<rect fill="#000000" height="1" stroke="#000000" stroke-width="1" width="106" x="474" y="393"/>
<rect fill="#ffffff" height="67" stroke="#ffffff" stroke-width="1" width="96" x="353" y="172"/>
<rect fill="none" height="67" stroke="#000000" stroke-width="1" width="96" x="353" y="172"/>
<text font-family="Dialog" font-size="12" x="363" y="186">
StatisticsView</text>
<rect fill="#000000" height="1" stroke="#000000" stroke-width="1" width="96" x="353" y="196"/>
<rect fill="#000000" height="1" stroke="#000000" stroke-width="1" width="96" x="353" y="217"/>
<rect fill="#ffffff" height="67" stroke="#ffffff" stroke-width="1" width="155" x="562" y="259"/>
<rect fill="none" height="67" stroke="#000000" stroke-width="1" width="155" x="562" y="259"/>
<text font-family="Dialog" font-size="12" x="581" y="273">
RecordMessageView</text>
<rect fill="#000000" height="1" stroke="#000000" stroke-width="1" width="155" x="562" y="283"/>
<rect fill="#000000" height="1" stroke="#000000" stroke-width="1" width="155" x="562" y="304"/>
<rect fill="#ffffff" height="68" stroke="#ffffff" stroke-width="1" width="102" x="614" y="170"/>
<rect fill="none" height="68" stroke="#000000" stroke-width="1" width="102" x="614" y="170"/>
<text font-family="Dialog" font-size="12" x="633" y="184">
TutoriaView</text>
<rect fill="#000000" height="1" stroke="#000000" stroke-width="1" width="102" x="614" y="194"/>
<rect fill="#000000" height="1" stroke="#000000" stroke-width="1" width="102" x="614" y="215"/>
<rect fill="#ffffff" height="68" stroke="#ffffff" stroke-width="1" width="108" x="42" y="346"/>
<rect fill="none" height="68" stroke="#000000" stroke-width="1" width="108" x="42" y="346"/>
<text font-family="Dialog" font-size="12" x="58" y="360">
SendFileView</text>
<rect fill="#000000" height="1" stroke="#000000" stroke-width="1" width="108" x="42" y="370"/>
<rect fill="#000000" height="1" stroke="#000000" stroke-width="1" width="108" x="42" y="391"/>
<rect fill="#ffffff" height="67" stroke="#ffffff" stroke-width="1" width="99" x="190" y="347"/>
<rect fill="none" height="67" stroke="#000000" stroke-width="1" width="99" x="190" y="347"/>
<text font-family="Dialog" font-size="12" x="199" y="361">
FunctionsView</text>
<rect fill="#000000" height="1" stroke="#000000" stroke-width="1" width="99" x="190" y="371"/>
<rect fill="#000000" height="1" stroke="#000000" stroke-width="1" width="99" x="190" y="392"/>
<rect fill="#ffffff" height="67" stroke="#ffffff" stroke-width="1" width="104" x="238" y="54"/>
<rect fill="none" height="67" stroke="#000000" stroke-width="1" width="104" x="238" y="54"/>
<text font-family="Dialog" font-size="12" x="248" y="68">
Backbone.View</text>
<rect fill="#000000" height="1" stroke="#000000" stroke-width="1" width="104" x="238" y="78"/>
<rect fill="#000000" height="1" stroke="#000000" stroke-width="1" width="104" x="238" y="99"/>
<polyline fill="none" points="86,170 86,78 238,78" stroke="#000000" stroke-width="1"/>
<polygon fill="#ffffff" points="238,78 226,85 226,71" stroke="#ffffff" stroke-width="1"/>
<polygon fill="none" points="238,78 226,85 226,71" stroke="#000000" stroke-width="1"/>
<polyline fill="none" points="350,302 318,302 318,120" stroke="#000000" stroke-width="1"/>
<polygon fill="#ffffff" points="318,120 325,132 311,132" stroke="#ffffff" stroke-width="1"/>
<polygon fill="none" points="318,120 325,132 311,132" stroke="#000000" stroke-width="1"/>
<polyline fill="none" points="607,346 478,326 478,102 341,102" stroke="#000000" stroke-width="1"/>
<polygon fill="#ffffff" points="341,102 353,95 353,109" stroke="#ffffff" stroke-width="1"/>
<polygon fill="none" points="341,102 353,95 353,109" stroke="#000000" stroke-width="1"/>
<polyline fill="none" points="558,171 558,70 341,70" stroke="#000000" stroke-width="1"/>
<polygon fill="#ffffff" points="341,70 353,63 353,77" stroke="#ffffff" stroke-width="1"/>
<polygon fill="none" points="341,70 353,63 353,77" stroke="#000000" stroke-width="1"/>
<polyline fill="none" points="662,170 662,54 341,54" stroke="#000000" stroke-width="1"/>
<polygon fill="#ffffff" points="341,54 353,47 353,61" stroke="#ffffff" stroke-width="1"/>
<polygon fill="none" points="341,54 353,47 353,61" stroke="#000000" stroke-width="1"/>
<polyline fill="none" points="159,290 202,290 202,98 238,98" stroke="#000000" stroke-width="1"/>
<polygon fill="#ffffff" points="238,98 226,105 226,91" stroke="#ffffff" stroke-width="1"/>
<polygon fill="none" points="238,98 226,105 226,91" stroke="#000000" stroke-width="1"/>
<polyline fill="none" points="474,382 462,382 462,118 341,118" stroke="#000000" stroke-width="1"/>
<polygon fill="#ffffff" points="341,118 353,111 353,125" stroke="#ffffff" stroke-width="1"/>
<polygon fill="none" points="341,118 353,111 353,125" stroke="#000000" stroke-width="1"/>
<polyline fill="none" points="353,218 334,218 334,120" stroke="#000000" stroke-width="1"/>
<polygon fill="#ffffff" points="334,120 341,132 327,132" stroke="#ffffff" stroke-width="1"/>
<polygon fill="none" points="334,120 341,132 327,132" stroke="#000000" stroke-width="1"/>
<polyline fill="none" points="562,294 494,294 494,86 341,86" stroke="#000000" stroke-width="1"/>
<polygon fill="#ffffff" points="341,86 353,79 353,93" stroke="#ffffff" stroke-width="1"/>
<polygon fill="none" points="341,86 353,79 353,93" stroke="#000000" stroke-width="1"/>
<polyline fill="none" points="149,346 254,282 254,120" stroke="#000000" stroke-width="1"/>
<polygon fill="#ffffff" points="254,120 261,132 247,132" stroke="#ffffff" stroke-width="1"/>
<polygon fill="none" points="254,120 261,132 247,132" stroke="#000000" stroke-width="1"/>
<polyline fill="none" points="276,347 276,120" stroke="#000000" stroke-width="1"/>
<polygon fill="#ffffff" points="276,120 283,132 269,132" stroke="#ffffff" stroke-width="1"/>
<polygon fill="none" points="276,120 283,132 269,132" stroke="#000000" stroke-width="1"/>
<rect fill="#ffffff" height="68" stroke="#ffffff" stroke-width="1" width="78" x="350" y="348"/>
<rect fill="none" height="68" stroke="#000000" stroke-width="1" width="78" x="350" y="348"/>
<text font-family="Dialog" font-size="12" x="355" y="362">
ContactView</text>
<rect fill="#000000" height="1" stroke="#000000" stroke-width="1" width="78" x="350" y="372"/>
<rect fill="#000000" height="1" stroke="#000000" stroke-width="1" width="78" x="350" y="393"/>
<polyline fill="none" points="350,390 302,390 302,120" stroke="#000000" stroke-width="1"/>
<polygon fill="#ffffff" points="302,120 309,132 295,132" stroke="#ffffff" stroke-width="1"/>
<polygon fill="none" points="302,120 309,132 295,132" stroke="#000000" stroke-width="1"/>
</svg>
