<?xml version="1.0" encoding="utf-8" ?>
<!DOCTYPE svg PUBLIC "-//W3C//DTD SVG 1.1//EN" "http://www.w3.org/Graphics/SVG/1.1/DTD/svg11.dtd">
<svg height="180" version="1.1" width="420" xmlns="http://www.w3.org/2000/svg">
<polygon fill="#ffffc8" points="14,14 356,14 356,38 405,38 405,165 14,165 14,14" stroke="#ffffc8" stroke-width="1"/>
<rect fill="none" height="24" stroke="#000000" stroke-width="1" width="342" x="14" y="14"/>
<text font-family="Dialog" font-size="12" font-weight="bold" x="19" y="28">
mytalk::server::shared</text>
<rect fill="none" height="127" stroke="#000000" stroke-width="1" width="391" x="14" y="38"/>
<rect fill="#ffffff" height="68" stroke="#ffffff" stroke-width="1" width="66" x="142" y="62"/>
<rect fill="none" height="68" stroke="#000000" stroke-width="1" width="66" x="142" y="62"/>
<text font-family="Dialog" font-size="12" font-weight="bold" x="151" y="76">
UserList</text>
<rect fill="#000000" height="1" stroke="#000000" stroke-width="1" width="66" x="142" y="86"/>
<rect fill="#000000" height="1" stroke="#000000" stroke-width="1" width="66" x="142" y="107"/>
<rect fill="#ffffff" height="68" stroke="#ffffff" stroke-width="1" width="103" x="238" y="62"/>
<rect fill="none" height="68" stroke="#000000" stroke-width="1" width="103" x="238" y="62"/>
<text font-family="Dialog" font-size="12" font-weight="bold" x="243" y="76">
RecordMessage</text>
<rect fill="#000000" height="1" stroke="#000000" stroke-width="1" width="103" x="238" y="86"/>
<rect fill="#000000" height="1" stroke="#000000" stroke-width="1" width="103" x="238" y="107"/>
<rect fill="#ffffff" height="68" stroke="#ffffff" stroke-width="1" width="66" x="46" y="62"/>
<rect fill="none" height="68" stroke="#000000" stroke-width="1" width="66" x="46" y="62"/>
<text font-family="Dialog" font-size="12" font-weight="bold" x="65" y="76">
User</text>
<rect fill="#000000" height="1" stroke="#000000" stroke-width="1" width="66" x="46" y="86"/>
<rect fill="#000000" height="1" stroke="#000000" stroke-width="1" width="66" x="46" y="107"/>
</svg>
