<?xml version="1.0" encoding="utf-8" ?>
<!DOCTYPE svg PUBLIC "-//W3C//DTD SVG 1.1//EN" "http://www.w3.org/Graphics/SVG/1.1/DTD/svg11.dtd">
<svg height="252" version="1.1" width="260" xmlns="http://www.w3.org/2000/svg">
<polygon fill="#c8c8ff" points="14,14 196,14 196,38 245,38 245,237 14,237 14,14" stroke="#c8c8ff" stroke-width="1"/>
<rect fill="none" height="24" stroke="#000000" stroke-width="1" width="182" x="14" y="14"/>
<text font-family="Dialog" font-size="12" font-weight="bold" x="19" y="28">
mytalk::server::shared</text>
<rect fill="none" height="199" stroke="#000000" stroke-width="1" width="231" x="14" y="38"/>
<rect fill="#ffffff" height="68" stroke="#ffffff" stroke-width="1" width="66" x="30" y="54"/>
<rect fill="none" height="68" stroke="#000000" stroke-width="1" width="66" x="30" y="54"/>
<text font-family="Dialog" font-size="12" font-weight="bold" x="49" y="68">
User</text>
<rect fill="#000000" height="1" stroke="#000000" stroke-width="1" width="66" x="30" y="78"/>
<rect fill="#000000" height="1" stroke="#000000" stroke-width="1" width="66" x="30" y="99"/>
<rect fill="#ffffff" height="68" stroke="#ffffff" stroke-width="1" width="66" x="110" y="54"/>
<rect fill="none" height="68" stroke="#000000" stroke-width="1" width="66" x="110" y="54"/>
<text font-family="Dialog" font-size="12" font-weight="bold" x="119" y="68">
UserList</text>
<rect fill="#000000" height="1" stroke="#000000" stroke-width="1" width="66" x="110" y="78"/>
<rect fill="#000000" height="1" stroke="#000000" stroke-width="1" width="66" x="110" y="99"/>
<rect fill="#ffffff" height="68" stroke="#ffffff" stroke-width="1" width="103" x="110" y="142"/>
<rect fill="none" height="68" stroke="#000000" stroke-width="1" width="103" x="110" y="142"/>
<text font-family="Dialog" font-size="12" font-weight="bold" x="115" y="156">
RecordMessage</text>
<rect fill="#000000" height="1" stroke="#000000" stroke-width="1" width="103" x="110" y="166"/>
<rect fill="#000000" height="1" stroke="#000000" stroke-width="1" width="103" x="110" y="187"/>
<rect fill="#ffffff" height="68" stroke="#ffffff" stroke-width="1" width="66" x="30" y="142"/>
<rect fill="none" height="68" stroke="#000000" stroke-width="1" width="66" x="30" y="142"/>
<text font-family="Dialog" font-size="12" font-weight="bold" x="38" y="156">
Tutorials</text>
<rect fill="#000000" height="1" stroke="#000000" stroke-width="1" width="66" x="30" y="166"/>
<rect fill="#000000" height="1" stroke="#000000" stroke-width="1" width="66" x="30" y="187"/>
</svg>
