<?xml version="1.0" encoding="utf-8" ?>
<!DOCTYPE svg PUBLIC "-//W3C//DTD SVG 1.1//EN" "http://www.w3.org/Graphics/SVG/1.1/DTD/svg11.dtd">
<svg height="164" version="1.1" width="572" xmlns="http://www.w3.org/2000/svg">
<polygon fill="#ffffc8" points="14,14 508,14 508,38 557,38 557,149 14,149 14,14" stroke="#ffffc8" stroke-width="1"/>
<rect fill="none" height="24" stroke="#000000" stroke-width="1" width="494" x="14" y="14"/>
<text font-family="Dialog" font-size="12" font-weight="bold" x="19" y="28">
mytalk::server::sqlite</text>
<rect fill="none" height="111" stroke="#000000" stroke-width="1" width="543" x="14" y="38"/>
<rect fill="#ffffff" height="68" stroke="#ffffff" stroke-width="1" width="153" x="54" y="54"/>
<rect fill="none" height="68" stroke="#000000" stroke-width="1" width="153" x="54" y="54"/>
<text font-family="Dialog" font-size="12" font-weight="bold" x="59" y="68">
RecordMessageDataSQL</text>
<rect fill="#000000" height="1" stroke="#000000" stroke-width="1" width="153" x="54" y="78"/>
<rect fill="#000000" height="1" stroke="#000000" stroke-width="1" width="153" x="54" y="99"/>
<rect fill="#ffffff" height="68" stroke="#ffffff" stroke-width="1" width="104" x="238" y="54"/>
<rect fill="none" height="68" stroke="#000000" stroke-width="1" width="104" x="238" y="54"/>
<text font-family="Dialog" font-size="12" font-weight="bold" x="243" y="68">
TutorialDataSQL</text>
<rect fill="#000000" height="1" stroke="#000000" stroke-width="1" width="104" x="238" y="78"/>
<rect fill="#000000" height="1" stroke="#000000" stroke-width="1" width="104" x="238" y="99"/>
<rect fill="#ffffff" height="68" stroke="#ffffff" stroke-width="1" width="87" x="374" y="54"/>
<rect fill="none" height="68" stroke="#000000" stroke-width="1" width="87" x="374" y="54"/>
<text font-family="Dialog" font-size="12" font-weight="bold" x="379" y="68">
UserDataSQL</text>
<rect fill="#000000" height="1" stroke="#000000" stroke-width="1" width="87" x="374" y="78"/>
<rect fill="#000000" height="1" stroke="#000000" stroke-width="1" width="87" x="374" y="99"/>
</svg>
