<?xml version="1.0" encoding="utf-8" ?>
<!DOCTYPE svg PUBLIC "-//W3C//DTD SVG 1.1//EN" "http://www.w3.org/Graphics/SVG/1.1/DTD/svg11.dtd">
<svg height="1140" version="1.1" width="1176" xmlns="http://www.w3.org/2000/svg">
<polygon fill="#ffffff" points="62,14 791,14 801,24 801,377 62,377 62,14" stroke="#ffffff" stroke-width="1"/>
<polyline fill="none" points="62,14 791,14 801,24 801,377 62,377 62,14" stroke="#000000" stroke-width="1"/>
<polygon fill="#ffffff" points="791,14 801,24 791,24 791,14" stroke="#ffffff" stroke-width="1"/>
<polyline fill="none" points="791,14 801,24 791,24 791,14" stroke="#000000" stroke-width="1"/>
<text font-family="Dialog" font-size="12" x="65" y="30">
transfer</text>
<polygon fill="#ffffff" points="14,698 1151,698 1161,708 1161,1125 14,1125 14,698" stroke="#ffffff" stroke-width="1"/>
<polyline fill="none" points="14,698 1151,698 1161,708 1161,1125 14,1125 14,698" stroke="#000000" stroke-width="1"/>
<polygon fill="#ffffff" points="1151,698 1161,708 1151,708 1151,698" stroke="#ffffff" stroke-width="1"/>
<polyline fill="none" points="1151,698 1161,708 1151,708 1151,698" stroke="#000000" stroke-width="1"/>
<text font-family="Dialog" font-size="12" x="17" y="714">
data</text>
<polygon fill="#ffffff" points="86,442 731,442 741,452 741,633 86,633 86,442" stroke="#ffffff" stroke-width="1"/>
<polyline fill="none" points="86,442 731,442 741,452 741,633 86,633 86,442" stroke="#000000" stroke-width="1"/>
<polygon fill="#ffffff" points="731,442 741,452 731,452 731,442" stroke="#ffffff" stroke-width="1"/>
<polyline fill="none" points="731,442 741,452 731,452 731,442" stroke="#000000" stroke-width="1"/>
<text font-family="Dialog" font-size="12" x="89" y="458">
manager</text>
<polygon fill="#ffc8ff" points="118,26 724,26 724,50 773,50 773,353 118,353 118,26" stroke="#ffc8ff" stroke-width="1"/>
<rect fill="none" height="24" stroke="#000000" stroke-width="1" width="606" x="118" y="26"/>
<text font-family="Dialog" font-size="12" x="123" y="40">
mytalk::server::transfer</text>
<rect fill="none" height="303" stroke="#000000" stroke-width="1" width="655" x="118" y="50"/>
<polygon fill="#c8ffc8" points="142,466 327,466 327,490 376,490 376,605 142,605 142,466" stroke="#c8ffc8" stroke-width="1"/>
<rect fill="none" height="24" stroke="#000000" stroke-width="1" width="185" x="142" y="466"/>
<text font-family="Dialog" font-size="12" x="147" y="480">
mytalk::server::functionmanager</text>
<rect fill="none" height="115" stroke="#000000" stroke-width="1" width="234" x="142" y="490"/>
<polygon fill="#c8ffc8" points="382,466 648,466 648,490 697,490 697,605 382,605 382,466" stroke="#c8ffc8" stroke-width="1"/>
<rect fill="none" height="24" stroke="#000000" stroke-width="1" width="266" x="382" y="466"/>
<text font-family="Dialog" font-size="12" x="387" y="480">
mytalk::server::usermanager</text>
<rect fill="none" height="115" stroke="#000000" stroke-width="1" width="315" x="382" y="490"/>
<polygon fill="#c8c8ff" points="102,722 644,722 644,746 693,746 693,1101 102,1101 102,722" stroke="#c8c8ff" stroke-width="1"/>
<rect fill="none" height="24" stroke="#000000" stroke-width="1" width="542" x="102" y="722"/>
<text font-family="Dialog" font-size="12" x="107" y="736">
mytalk::server::dao</text>
<rect fill="none" height="355" stroke="#000000" stroke-width="1" width="591" x="102" y="746"/>
<rect fill="#ffffff" height="68" stroke="#ffffff" stroke-width="1" width="104" x="358" y="134"/>
<rect fill="none" height="68" stroke="#000000" stroke-width="1" width="104" x="358" y="134"/>
<text font-family="Dialog" font-size="12" x="364" y="148">
ListenerTransfer</text>
<rect fill="#000000" height="1" stroke="#000000" stroke-width="1" width="104" x="358" y="158"/>
<rect fill="#000000" height="1" stroke="#000000" stroke-width="1" width="104" x="358" y="179"/>
<rect fill="#ffffff" height="67" stroke="#ffffff" stroke-width="1" width="88" x="138" y="254"/>
<rect fill="none" height="67" stroke="#000000" stroke-width="1" width="88" x="138" y="254"/>
<text font-family="Dialog" font-size="12" x="148" y="268">
CallTransfer</text>
<rect fill="#000000" height="1" stroke="#000000" stroke-width="1" width="88" x="138" y="278"/>
<rect fill="#000000" height="1" stroke="#000000" stroke-width="1" width="88" x="138" y="299"/>
<rect fill="#ffffff" height="67" stroke="#ffffff" stroke-width="1" width="144" x="258" y="254"/>
<rect fill="none" height="67" stroke="#000000" stroke-width="1" width="144" x="258" y="254"/>
<text font-family="Dialog" font-size="12" x="268" y="268">
AuthenticationTransfer</text>
<rect fill="#000000" height="1" stroke="#000000" stroke-width="1" width="144" x="258" y="278"/>
<rect fill="#000000" height="1" stroke="#000000" stroke-width="1" width="144" x="258" y="299"/>
<rect fill="#ffffff" height="67" stroke="#ffffff" stroke-width="1" width="164" x="434" y="255"/>
<rect fill="none" height="67" stroke="#000000" stroke-width="1" width="164" x="434" y="255"/>
<text font-family="Dialog" font-size="12" x="447" y="269">
RecordMessageTransfer</text>
<rect fill="#000000" height="1" stroke="#000000" stroke-width="1" width="164" x="434" y="279"/>
<rect fill="#000000" height="1" stroke="#000000" stroke-width="1" width="164" x="434" y="300"/>
<rect fill="#ffffff" height="71" stroke="#ffffff" stroke-width="1" width="100" x="610" y="254"/>
<rect fill="none" height="71" stroke="#000000" stroke-width="1" width="100" x="610" y="254"/>
<text font-family="Dialog" font-size="12" x="623" y="268">
UserTransfer</text>
<rect fill="#000000" height="1" stroke="#000000" stroke-width="1" width="100" x="610" y="278"/>
<rect fill="#000000" height="1" stroke="#000000" stroke-width="1" width="100" x="610" y="301"/>
<polyline fill="none" points="190,254 190,226 374,226 374,201" stroke="#000000" stroke-width="1"/>
<polygon fill="#ffffff" points="374,201 381,213 367,213" stroke="#ffffff" stroke-width="1"/>
<polygon fill="none" points="374,201 381,213 367,213" stroke="#000000" stroke-width="1"/>
<polyline fill="none" points="322,254 322,238 398,238 398,201" stroke="#000000" stroke-width="1"/>
<polygon fill="#ffffff" points="398,201 405,213 391,213" stroke="#ffffff" stroke-width="1"/>
<polygon fill="none" points="398,201 405,213 391,213" stroke="#000000" stroke-width="1"/>
<polyline fill="none" points="514,255 514,238 418,238 418,201" stroke="#000000" stroke-width="1"/>
<polygon fill="#ffffff" points="418,201 425,213 411,213" stroke="#ffffff" stroke-width="1"/>
<polygon fill="none" points="418,201 425,213 411,213" stroke="#000000" stroke-width="1"/>
<polyline fill="none" points="662,254 662,226 446,226 446,201" stroke="#000000" stroke-width="1"/>
<polygon fill="#ffffff" points="446,201 453,213 439,213" stroke="#ffffff" stroke-width="1"/>
<polygon fill="none" points="446,201 453,213 439,213" stroke="#000000" stroke-width="1"/>
<rect fill="#ffffff" height="68" stroke="#ffffff" stroke-width="1" width="80" x="218" y="518"/>
<rect fill="none" height="68" stroke="#000000" stroke-width="1" width="80" x="218" y="518"/>
<text font-family="Dialog" font-size="12" x="231" y="532">
Converter</text>
<rect fill="#000000" height="1" stroke="#000000" stroke-width="1" width="80" x="218" y="542"/>
<rect fill="#000000" height="1" stroke="#000000" stroke-width="1" width="80" x="218" y="563"/>
<rect fill="#ffffff" height="68" stroke="#ffffff" stroke-width="1" width="148" x="398" y="518"/>
<rect fill="none" height="68" stroke="#000000" stroke-width="1" width="148" x="398" y="518"/>
<text font-family="Dialog" font-size="12" x="409" y="532">
AuthenticationManager</text>
<rect fill="#000000" height="1" stroke="#000000" stroke-width="1" width="148" x="398" y="542"/>
<rect fill="#000000" height="1" stroke="#000000" stroke-width="1" width="148" x="398" y="563"/>
<rect fill="#ffffff" height="67" stroke="#ffffff" stroke-width="1" width="104" x="574" y="517"/>
<rect fill="none" height="67" stroke="#000000" stroke-width="1" width="104" x="574" y="517"/>
<text font-family="Dialog" font-size="12" x="588" y="531">
UserManager</text>
<rect fill="#000000" height="1" stroke="#000000" stroke-width="1" width="104" x="574" y="541"/>
<rect fill="#000000" height="1" stroke="#000000" stroke-width="1" width="104" x="574" y="562"/>
<ellipse cx="486" cy="822" fill="#000000" rx="16.0" ry="16.0" stroke="#000000" stroke-width="1"/>
<ellipse cx="486" cy="822" fill="#ffffff" rx="15.0" ry="15.0" stroke="#ffffff" stroke-width="1"/>
<ellipse cx="338" cy="822" fill="#000000" rx="16.0" ry="16.0" stroke="#000000" stroke-width="1"/>
<ellipse cx="338" cy="822" fill="#ffffff" rx="15.0" ry="15.0" stroke="#ffffff" stroke-width="1"/>
<ellipse cx="198" cy="822" fill="#000000" rx="16.0" ry="16.0" stroke="#000000" stroke-width="1"/>
<ellipse cx="198" cy="822" fill="#ffffff" rx="15.0" ry="15.0" stroke="#ffffff" stroke-width="1"/>
<text font-family="Dialog" font-size="12" x="166" y="779">
LoginDao</text>
<text font-family="Dialog" font-size="12" x="270" y="779">
RecordMessageDao</text>
<text font-family="Dialog" font-size="12" x="458" y="779">
UserDao</text>
<line fill="#000000" stroke="#000000" stroke-width="1" x1="166" x2="226" y1="786" y2="786"/>
<line fill="#000000" stroke="#000000" stroke-width="1" x1="166" x2="226" y1="798" y2="798"/>
<line fill="#000000" stroke="#000000" stroke-width="1" x1="274" x2="390" y1="786" y2="786"/>
<line fill="#000000" stroke="#000000" stroke-width="1" x1="274" x2="390" y1="798" y2="798"/>
<line fill="#000000" stroke="#000000" stroke-width="1" x1="450" x2="514" y1="786" y2="786"/>
<line fill="#000000" stroke="#000000" stroke-width="1" x1="450" x2="514" y1="798" y2="798"/>
<rect fill="#ffffff" height="71" stroke="#ffffff" stroke-width="1" width="96" x="130" y="878"/>
<rect fill="none" height="71" stroke="#000000" stroke-width="1" width="96" x="130" y="878"/>
<text font-family="Dialog" font-size="12" x="139" y="892">
LoginDaoSQL</text>
<rect fill="#000000" height="1" stroke="#000000" stroke-width="1" width="96" x="130" y="902"/>
<rect fill="#000000" height="1" stroke="#000000" stroke-width="1" width="96" x="130" y="925"/>
<rect fill="#ffffff" height="68" stroke="#ffffff" stroke-width="1" width="140" x="250" y="878"/>
<rect fill="none" height="68" stroke="#000000" stroke-width="1" width="140" x="250" y="878"/>
<text font-family="Dialog" font-size="12" x="262" y="892">
RecordMessageSQL</text>
<rect fill="#000000" height="1" stroke="#000000" stroke-width="1" width="140" x="250" y="902"/>
<rect fill="#000000" height="1" stroke="#000000" stroke-width="1" width="140" x="250" y="923"/>
<rect fill="#ffffff" height="71" stroke="#ffffff" stroke-width="1" width="104" x="414" y="878"/>
<rect fill="none" height="71" stroke="#000000" stroke-width="1" width="104" x="414" y="878"/>
<text font-family="Dialog" font-size="12" x="429" y="892">
UserDaoSQL</text>
<rect fill="#000000" height="1" stroke="#000000" stroke-width="1" width="104" x="414" y="902"/>
<rect fill="#000000" height="1" stroke="#000000" stroke-width="1" width="104" x="414" y="925"/>
<line fill="#000000" stroke="#000000" stroke-width="1" x1="486" x2="486" y1="850" y2="874"/>
<line fill="#000000" stroke="#000000" stroke-width="1" x1="338" x2="338" y1="850" y2="874"/>
<line fill="#000000" stroke="#000000" stroke-width="1" x1="198" x2="198" y1="850" y2="874"/>
<line fill="#000000" stroke="#000000" stroke-width="1" x1="330" x2="346" y1="850" y2="850"/>
<line fill="#000000" stroke="#000000" stroke-width="1" x1="338" x2="330" y1="838" y2="850"/>
<line fill="#000000" stroke="#000000" stroke-width="1" x1="338" x2="346" y1="838" y2="850"/>
<line fill="#000000" stroke="#000000" stroke-width="1" x1="478" x2="494" y1="850" y2="850"/>
<line fill="#000000" stroke="#000000" stroke-width="1" x1="486" x2="478" y1="838" y2="850"/>
<line fill="#000000" stroke="#000000" stroke-width="1" x1="486" x2="494" y1="838" y2="850"/>
<line fill="#000000" stroke="#000000" stroke-width="1" x1="190" x2="206" y1="850" y2="850"/>
<line fill="#000000" stroke="#000000" stroke-width="1" x1="198" x2="190" y1="838" y2="850"/>
<line fill="#000000" stroke="#000000" stroke-width="1" x1="198" x2="206" y1="838" y2="850"/>
<rect fill="#ffffff" height="68" stroke="#ffffff" stroke-width="1" width="116" x="546" y="878"/>
<rect fill="none" height="68" stroke="#000000" stroke-width="1" width="116" x="546" y="878"/>
<text font-family="Dialog" font-size="12" x="556" y="892">
TutorialsDaoSQL</text>
<rect fill="#000000" height="1" stroke="#000000" stroke-width="1" width="116" x="546" y="902"/>
<rect fill="#000000" height="1" stroke="#000000" stroke-width="1" width="116" x="546" y="923"/>
<rect fill="#ffffff" height="68" stroke="#ffffff" stroke-width="1" width="148" x="334" y="1018"/>
<rect fill="none" height="68" stroke="#000000" stroke-width="1" width="148" x="334" y="1018"/>
<text font-family="Dialog" font-size="12" x="345" y="1032">
JavaConnectionSQLite</text>
<rect fill="#000000" height="1" stroke="#000000" stroke-width="1" width="148" x="334" y="1042"/>
<rect fill="#000000" height="1" stroke="#000000" stroke-width="1" width="148" x="334" y="1063"/>
<polyline fill="none" points="182,948 182,982 350,982 350,1018" stroke="#000000" stroke-width="1"/>
<line fill="#000000" stroke="#000000" stroke-width="1" x1="343" x2="350" y1="1006" y2="1018"/>
<line fill="#000000" stroke="#000000" stroke-width="1" x1="357" x2="350" y1="1006" y2="1018"/>
<polyline fill="none" points="326,945 326,966 390,966 390,1018" stroke="#000000" stroke-width="1"/>
<line fill="#000000" stroke="#000000" stroke-width="1" x1="383" x2="390" y1="1006" y2="1018"/>
<line fill="#000000" stroke="#000000" stroke-width="1" x1="397" x2="390" y1="1006" y2="1018"/>
<polyline fill="none" points="470,948 470,966 414,966 414,1018" stroke="#000000" stroke-width="1"/>
<line fill="#000000" stroke="#000000" stroke-width="1" x1="407" x2="414" y1="1006" y2="1018"/>
<line fill="#000000" stroke="#000000" stroke-width="1" x1="421" x2="414" y1="1006" y2="1018"/>
<polyline fill="none" points="606,945 606,982 446,982 446,1018" stroke="#000000" stroke-width="1"/>
<line fill="#000000" stroke="#000000" stroke-width="1" x1="439" x2="446" y1="1006" y2="1018"/>
<line fill="#000000" stroke="#000000" stroke-width="1" x1="453" x2="446" y1="1006" y2="1018"/>
<polyline fill="none" points="358,138 102,138 102,410 254,410 254,518" stroke="#000000" stroke-width="1"/>
<line fill="#000000" stroke="#000000" stroke-width="1" x1="247" x2="254" y1="506" y2="518"/>
<line fill="#000000" stroke="#000000" stroke-width="1" x1="261" x2="254" y1="506" y2="518"/>
<polyline fill="none" points="282,320 282,434 486,434 486,518" stroke="#000000" stroke-width="1"/>
<line fill="#000000" stroke="#000000" stroke-width="1" x1="479" x2="486" y1="506" y2="518"/>
<line fill="#000000" stroke="#000000" stroke-width="1" x1="493" x2="486" y1="506" y2="518"/>
<polyline fill="none" points="310,320 310,426 594,426 594,517" stroke="#000000" stroke-width="1"/>
<line fill="#000000" stroke="#000000" stroke-width="1" x1="587" x2="594" y1="505" y2="517"/>
<line fill="#000000" stroke="#000000" stroke-width="1" x1="601" x2="594" y1="505" y2="517"/>
<polyline fill="none" points="518,321 518,406 626,406 626,517" stroke="#000000" stroke-width="1"/>
<line fill="#000000" stroke="#000000" stroke-width="1" x1="619" x2="626" y1="505" y2="517"/>
<line fill="#000000" stroke="#000000" stroke-width="1" x1="633" x2="626" y1="505" y2="517"/>
<polyline fill="none" points="664,324 664,517" stroke="#000000" stroke-width="1"/>
<line fill="#000000" stroke="#000000" stroke-width="1" x1="657" x2="664" y1="505" y2="517"/>
<line fill="#000000" stroke="#000000" stroke-width="1" x1="671" x2="664" y1="505" y2="517"/>
<line fill="#000000" stroke="#000000" stroke-width="1" x1="494" x2="342" y1="669" y2="669"/>
<line fill="#000000" stroke="#000000" stroke-width="1" x1="342" x2="342" y1="670" y2="762"/>
<line fill="#000000" stroke="#000000" stroke-width="1" x1="490" x2="498" y1="762" y2="750"/>
<line fill="#000000" stroke="#000000" stroke-width="1" x1="482" x2="490" y1="750" y2="762"/>
<line fill="#000000" stroke="#000000" stroke-width="1" x1="342" x2="350" y1="762" y2="750"/>
<line fill="#000000" stroke="#000000" stroke-width="1" x1="342" x2="334" y1="762" y2="750"/>
<line fill="#000000" stroke="#000000" stroke-width="1" x1="462" x2="462" y1="586" y2="762"/>
<line fill="#000000" stroke="#000000" stroke-width="1" x1="462" x2="470" y1="762" y2="750"/>
<line fill="#000000" stroke="#000000" stroke-width="1" x1="462" x2="454" y1="762" y2="750"/>
<line fill="#000000" stroke="#000000" stroke-width="1" x1="446" x2="446" y1="586" y2="658"/>
<line fill="#000000" stroke="#000000" stroke-width="1" x1="310" x2="310" y1="658" y2="762"/>
<line fill="#000000" stroke="#000000" stroke-width="1" x1="310" x2="318" y1="762" y2="750"/>
<line fill="#000000" stroke="#000000" stroke-width="1" x1="310" x2="302" y1="762" y2="750"/>
<line fill="#000000" stroke="#000000" stroke-width="1" x1="422" x2="422" y1="586" y2="642"/>
<line fill="#000000" stroke="#000000" stroke-width="1" x1="190" x2="190" y1="642" y2="762"/>
<line fill="#000000" stroke="#000000" stroke-width="1" x1="190" x2="198" y1="762" y2="750"/>
<line fill="#000000" stroke="#000000" stroke-width="1" x1="190" x2="182" y1="762" y2="750"/>
<line fill="#000000" stroke="#000000" stroke-width="1" x1="636" x2="636" y1="586" y2="682"/>
<line fill="#000000" stroke="#000000" stroke-width="1" x1="490" x2="490" y1="682" y2="762"/>
<line fill="#000000" stroke="#000000" stroke-width="1" x1="491" x2="635" y1="682" y2="682"/>
<line fill="#000000" stroke="#000000" stroke-width="1" x1="310" x2="446" y1="658" y2="658"/>
<line fill="#000000" stroke="#000000" stroke-width="1" x1="422" x2="190" y1="642" y2="642"/>
<line fill="#000000" stroke="#000000" stroke-width="1" x1="494" x2="494" y1="668" y2="586"/>
<polygon fill="#c8c8ff" points="766,726 1088,726 1088,750 1137,750 1137,1021 766,1021 766,726" stroke="#c8c8ff" stroke-width="1"/>
<rect fill="none" height="24" stroke="#000000" stroke-width="1" width="322" x="766" y="726"/>
<text font-family="Dialog" font-size="12" x="771" y="740">
mytalk::server::shared</text>
<rect fill="none" height="271" stroke="#000000" stroke-width="1" width="371" x="766" y="750"/>
<rect fill="#ffffff" height="68" stroke="#ffffff" stroke-width="1" width="66" x="786" y="782"/>
<rect fill="none" height="68" stroke="#000000" stroke-width="1" width="66" x="786" y="782"/>
<text font-family="Dialog" font-size="12" x="795" y="796">
Tutorials</text>
<rect fill="#000000" height="1" stroke="#000000" stroke-width="1" width="66" x="786" y="806"/>
<rect fill="#000000" height="1" stroke="#000000" stroke-width="1" width="66" x="786" y="827"/>
<rect fill="#ffffff" height="68" stroke="#ffffff" stroke-width="1" width="66" x="890" y="782"/>
<rect fill="none" height="68" stroke="#000000" stroke-width="1" width="66" x="890" y="782"/>
<text font-family="Dialog" font-size="12" x="909" y="796">
User</text>
<rect fill="#000000" height="1" stroke="#000000" stroke-width="1" width="66" x="890" y="806"/>
<rect fill="#000000" height="1" stroke="#000000" stroke-width="1" width="66" x="890" y="827"/>
<polyline fill="none" points="342,320 342,422 754,422 754,810 786,810" stroke="#000000" stroke-width="1"/>
<line fill="#000000" stroke="#000000" stroke-width="1" x1="774" x2="786" y1="817" y2="810"/>
<line fill="#000000" stroke="#000000" stroke-width="1" x1="774" x2="786" y1="803" y2="810"/>
<polyline fill="none" points="378,320 378,414 954,414 954,782" stroke="#000000" stroke-width="1"/>
<line fill="#000000" stroke="#000000" stroke-width="1" x1="947" x2="954" y1="770" y2="782"/>
<line fill="#000000" stroke="#000000" stroke-width="1" x1="961" x2="954" y1="770" y2="782"/>
<rect fill="#ffffff" height="68" stroke="#ffffff" stroke-width="1" width="101" x="998" y="782"/>
<rect fill="none" height="68" stroke="#000000" stroke-width="1" width="101" x="998" y="782"/>
<text font-family="Dialog" font-size="12" x="1003" y="796">
RecordMessage</text>
<rect fill="#000000" height="1" stroke="#000000" stroke-width="1" width="101" x="998" y="806"/>
<rect fill="#000000" height="1" stroke="#000000" stroke-width="1" width="101" x="998" y="827"/>
<polyline fill="none" points="566,321 566,390 1034,390 1034,782" stroke="#000000" stroke-width="1"/>
<line fill="#000000" stroke="#000000" stroke-width="1" x1="1027" x2="1034" y1="770" y2="782"/>
<line fill="#000000" stroke="#000000" stroke-width="1" x1="1041" x2="1034" y1="770" y2="782"/>
<rect fill="#ffffff" height="68" stroke="#ffffff" stroke-width="1" width="66" x="890" y="902"/>
<rect fill="none" height="68" stroke="#000000" stroke-width="1" width="66" x="890" y="902"/>
<text font-family="Dialog" font-size="12" x="899" y="916">
UserList</text>
<rect fill="#000000" height="1" stroke="#000000" stroke-width="1" width="66" x="890" y="926"/>
<rect fill="#000000" height="1" stroke="#000000" stroke-width="1" width="66" x="890" y="947"/>
<polyline fill="none" points="918,902 918,849" stroke="#000000" stroke-width="1"/>
<line fill="#000000" stroke="#000000" stroke-width="1" x1="925" x2="918" y1="861" y2="849"/>
<line fill="#000000" stroke="#000000" stroke-width="1" x1="911" x2="918" y1="861" y2="849"/>
<polyline fill="none" points="955,810 998,810" stroke="#000000" stroke-width="1"/>
<line fill="#000000" stroke="#000000" stroke-width="1" x1="986" x2="998" y1="817" y2="810"/>
<line fill="#000000" stroke="#000000" stroke-width="1" x1="986" x2="998" y1="803" y2="810"/>
<rect fill="#ffffff" height="68" stroke="#ffffff" stroke-width="1" width="82" x="634" y="130"/>
<rect fill="none" height="68" stroke="#000000" stroke-width="1" width="82" x="634" y="130"/>
<text font-family="Dialog" font-size="12" x="639" y="144">
ChatTransfer</text>
<rect fill="#000000" height="1" stroke="#000000" stroke-width="1" width="82" x="634" y="154"/>
<rect fill="#000000" height="1" stroke="#000000" stroke-width="1" width="82" x="634" y="175"/>
<polyline fill="none" points="634,166 461,166" stroke="#000000" stroke-width="1"/>
<polygon fill="#ffffff" points="461,166 473,159 473,173" stroke="#ffffff" stroke-width="1"/>
<polygon fill="none" points="461,166 473,159 473,173" stroke="#000000" stroke-width="1"/>
<rect fill="#ffffff" height="68" stroke="#ffffff" stroke-width="1" width="76" x="174" y="154"/>
<rect fill="none" height="68" stroke="#000000" stroke-width="1" width="76" x="174" y="154"/>
<text font-family="Dialog" font-size="12" x="179" y="168">
FileTransfer</text>
<rect fill="#000000" height="1" stroke="#000000" stroke-width="1" width="76" x="174" y="178"/>
<rect fill="#000000" height="1" stroke="#000000" stroke-width="1" width="76" x="174" y="199"/>
<polyline fill="none" points="249,178 358,178" stroke="#000000" stroke-width="1"/>
<polygon fill="#ffffff" points="358,178 346,185 346,171" stroke="#ffffff" stroke-width="1"/>
<polygon fill="none" points="358,178 346,185 346,171" stroke="#000000" stroke-width="1"/>
</svg>
