<?xml version="1.0" encoding="utf-8" ?>
<!DOCTYPE svg PUBLIC "-//W3C//DTD SVG 1.1//EN" "http://www.w3.org/Graphics/SVG/1.1/DTD/svg11.dtd">
<svg height="264" version="1.1" width="576" xmlns="http://www.w3.org/2000/svg">
<polygon fill="#ffffc8" points="14,14 512,14 512,38 561,38 561,249 14,249 14,14" stroke="#ffffc8" stroke-width="1"/>
<rect fill="none" height="24" stroke="#000000" stroke-width="1" width="498" x="14" y="14"/>
<text font-family="Dialog" font-size="12" x="19" y="28">
mytalk::client::collection</text>
<rect fill="none" height="211" stroke="#000000" stroke-width="1" width="547" x="14" y="38"/>
<rect fill="#ffffff" height="67" stroke="#ffffff" stroke-width="1" width="137" x="214" y="166"/>
<rect fill="none" height="67" stroke="#000000" stroke-width="1" width="137" x="214" y="166"/>
<text font-family="Dialog" font-size="12" x="226" y="180">
Backbone.Collection</text>
<rect fill="#000000" height="1" stroke="#000000" stroke-width="1" width="137" x="214" y="190"/>
<rect fill="#000000" height="1" stroke="#000000" stroke-width="1" width="137" x="214" y="211"/>
<rect fill="#ffffff" height="67" stroke="#ffffff" stroke-width="1" width="113" x="398" y="62"/>
<rect fill="none" height="67" stroke="#000000" stroke-width="1" width="113" x="398" y="62"/>
<text font-family="Dialog" font-size="12" x="403" y="76">
TutorialsCollection</text>
<rect fill="#000000" height="1" stroke="#000000" stroke-width="1" width="113" x="398" y="86"/>
<rect fill="#000000" height="1" stroke="#000000" stroke-width="1" width="113" x="398" y="107"/>
<polyline fill="none" points="430,128 430,198 350,198" stroke="#000000" stroke-width="1"/>
<polygon fill="#ffffff" points="350,198 362,191 362,205" stroke="#ffffff" stroke-width="1"/>
<polygon fill="none" points="350,198 362,191 362,205" stroke="#000000" stroke-width="1"/>
<rect fill="#ffffff" height="67" stroke="#ffffff" stroke-width="1" width="114" x="62" y="62"/>
<rect fill="none" height="67" stroke="#000000" stroke-width="1" width="114" x="62" y="62"/>
<text font-family="Dialog" font-size="12" x="67" y="76">
ContactsCollection</text>
<rect fill="#000000" height="1" stroke="#000000" stroke-width="1" width="114" x="62" y="86"/>
<rect fill="#000000" height="1" stroke="#000000" stroke-width="1" width="114" x="62" y="107"/>
<polyline fill="none" points="102,128 102,198 214,198" stroke="#000000" stroke-width="1"/>
<polygon fill="#ffffff" points="214,198 202,205 202,191" stroke="#ffffff" stroke-width="1"/>
<polygon fill="none" points="214,198 202,205 202,191" stroke="#000000" stroke-width="1"/>
<rect fill="#ffffff" height="67" stroke="#ffffff" stroke-width="1" width="145" x="214" y="62"/>
<rect fill="none" height="67" stroke="#000000" stroke-width="1" width="145" x="214" y="62"/>
<text font-family="Dialog" font-size="12" x="219" y="76">
TextMessagesCollection</text>
<rect fill="#000000" height="1" stroke="#000000" stroke-width="1" width="145" x="214" y="86"/>
<rect fill="#000000" height="1" stroke="#000000" stroke-width="1" width="145" x="214" y="107"/>
<polyline fill="none" points="286,128 286,166" stroke="#000000" stroke-width="1"/>
<polygon fill="#ffffff" points="286,166 279,154 293,154" stroke="#ffffff" stroke-width="1"/>
<polygon fill="none" points="286,166 279,154 293,154" stroke="#000000" stroke-width="1"/>
</svg>
