<?xml version="1.0" encoding="utf-8" ?>
<!DOCTYPE svg PUBLIC "-//W3C//DTD SVG 1.1//EN" "http://www.w3.org/Graphics/SVG/1.1/DTD/svg11.dtd">
<svg height="260" version="1.1" width="612" xmlns="http://www.w3.org/2000/svg">
<polygon fill="#ffffc8" points="14,14 548,14 548,38 597,38 597,245 14,245 14,14" stroke="#ffffc8" stroke-width="1"/>
<rect fill="none" height="24" stroke="#000000" stroke-width="1" width="534" x="14" y="14"/>
<text font-family="Dialog" font-size="12" font-weight="bold" x="19" y="28">
mytalk::server::dao</text>
<rect fill="none" height="207" stroke="#000000" stroke-width="1" width="583" x="14" y="38"/>
<rect fill="#ffffff" height="68" stroke="#ffffff" stroke-width="1" width="140" x="46" y="54"/>
<rect fill="none" height="68" stroke="#000000" stroke-width="1" width="140" x="46" y="54"/>
<text font-family="Dialog" font-size="12" font-weight="bold" x="51" y="68">
JavaConnectionSQLite</text>
<rect fill="#000000" height="1" stroke="#000000" stroke-width="1" width="140" x="46" y="78"/>
<rect fill="#000000" height="1" stroke="#000000" stroke-width="1" width="140" x="46" y="99"/>
<rect fill="#ffffff" height="68" stroke="#ffffff" stroke-width="1" width="66" x="214" y="54"/>
<rect fill="none" height="68" stroke="#000000" stroke-width="1" width="66" x="214" y="54"/>
<text font-family="Dialog" font-size="12" font-weight="bold" x="220" y="68">
LoginDao</text>
<rect fill="#000000" height="1" stroke="#000000" stroke-width="1" width="66" x="214" y="78"/>
<rect fill="#000000" height="1" stroke="#000000" stroke-width="1" width="66" x="214" y="99"/>
<rect fill="#ffffff" height="68" stroke="#ffffff" stroke-width="1" width="89" x="302" y="54"/>
<rect fill="none" height="68" stroke="#000000" stroke-width="1" width="89" x="302" y="54"/>
<text font-family="Dialog" font-size="12" font-weight="bold" x="308" y="68">
LoginDaoSQL</text>
<rect fill="#000000" height="1" stroke="#000000" stroke-width="1" width="89" x="302" y="78"/>
<rect fill="#000000" height="1" stroke="#000000" stroke-width="1" width="89" x="302" y="99"/>
<rect fill="#ffffff" height="68" stroke="#ffffff" stroke-width="1" width="125" x="46" y="142"/>
<rect fill="none" height="68" stroke="#000000" stroke-width="1" width="125" x="46" y="142"/>
<text font-family="Dialog" font-size="12" font-weight="bold" x="51" y="156">
RecordMessageDao</text>
<rect fill="#000000" height="1" stroke="#000000" stroke-width="1" width="125" x="46" y="166"/>
<rect fill="#000000" height="1" stroke="#000000" stroke-width="1" width="125" x="46" y="187"/>
<rect fill="#ffffff" height="68" stroke="#ffffff" stroke-width="1" width="149" x="198" y="142"/>
<rect fill="none" height="68" stroke="#000000" stroke-width="1" width="149" x="198" y="142"/>
<text font-family="Dialog" font-size="12" font-weight="bold" x="203" y="156">
RecordMessageDaoSQL</text>
<rect fill="#000000" height="1" stroke="#000000" stroke-width="1" width="149" x="198" y="166"/>
<rect fill="#000000" height="1" stroke="#000000" stroke-width="1" width="149" x="198" y="187"/>
<rect fill="#ffffff" height="68" stroke="#ffffff" stroke-width="1" width="66" x="374" y="142"/>
<rect fill="none" height="68" stroke="#000000" stroke-width="1" width="66" x="374" y="142"/>
<text font-family="Dialog" font-size="12" font-weight="bold" x="382" y="156">
UserDao</text>
<rect fill="#000000" height="1" stroke="#000000" stroke-width="1" width="66" x="374" y="166"/>
<rect fill="#000000" height="1" stroke="#000000" stroke-width="1" width="66" x="374" y="187"/>
<rect fill="#ffffff" height="68" stroke="#ffffff" stroke-width="1" width="83" x="462" y="142"/>
<rect fill="none" height="68" stroke="#000000" stroke-width="1" width="83" x="462" y="142"/>
<text font-family="Dialog" font-size="12" font-weight="bold" x="467" y="156">
UserDaoSQL</text>
<rect fill="#000000" height="1" stroke="#000000" stroke-width="1" width="83" x="462" y="166"/>
<rect fill="#000000" height="1" stroke="#000000" stroke-width="1" width="83" x="462" y="187"/>
</svg>
