<?xml version="1.0" encoding="utf-8" ?>
<!DOCTYPE svg PUBLIC "-//W3C//DTD SVG 1.1//EN" "http://www.w3.org/Graphics/SVG/1.1/DTD/svg11.dtd">
<svg height="252" version="1.1" width="532" xmlns="http://www.w3.org/2000/svg">
<polygon fill="#c8c8ff" points="14,14 468,14 468,38 517,38 517,237 14,237 14,14" stroke="#c8c8ff" stroke-width="1"/>
<rect fill="none" height="24" stroke="#000000" stroke-width="1" width="454" x="14" y="14"/>
<text font-family="Dialog" font-size="12" font-weight="bold" x="19" y="28">
mytalk::server::dao</text>
<rect fill="none" height="199" stroke="#000000" stroke-width="1" width="503" x="14" y="38"/>
<rect fill="#ffffff" height="68" stroke="#ffffff" stroke-width="1" width="140" x="30" y="54"/>
<rect fill="none" height="68" stroke="#000000" stroke-width="1" width="140" x="30" y="54"/>
<text font-family="Dialog" font-size="12" font-weight="bold" x="35" y="68">
JavaConnectionSQLite</text>
<rect fill="#000000" height="1" stroke="#000000" stroke-width="1" width="140" x="30" y="78"/>
<rect fill="#000000" height="1" stroke="#000000" stroke-width="1" width="140" x="30" y="99"/>
<rect fill="#ffffff" height="67" stroke="#ffffff" stroke-width="1" width="66" x="406" y="54"/>
<rect fill="none" height="67" stroke="#000000" stroke-width="1" width="66" x="406" y="54"/>
<text font-family="Dialog" font-size="12" font-weight="bold" x="412" y="68">
LoginDao</text>
<rect fill="#000000" height="1" stroke="#000000" stroke-width="1" width="66" x="406" y="78"/>
<rect fill="#000000" height="1" stroke="#000000" stroke-width="1" width="66" x="406" y="99"/>
<rect fill="#ffffff" height="68" stroke="#ffffff" stroke-width="1" width="89" x="401" y="142"/>
<rect fill="none" height="68" stroke="#000000" stroke-width="1" width="89" x="401" y="142"/>
<text font-family="Dialog" font-size="12" font-weight="bold" x="407" y="156">
LoginDaoSQL</text>
<rect fill="#000000" height="1" stroke="#000000" stroke-width="1" width="89" x="401" y="166"/>
<rect fill="#000000" height="1" stroke="#000000" stroke-width="1" width="89" x="401" y="187"/>
<rect fill="#ffffff" height="68" stroke="#ffffff" stroke-width="1" width="125" x="182" y="54"/>
<rect fill="none" height="68" stroke="#000000" stroke-width="1" width="125" x="182" y="54"/>
<text font-family="Dialog" font-size="12" font-weight="bold" x="187" y="68">
RecordMessageDao</text>
<rect fill="#000000" height="1" stroke="#000000" stroke-width="1" width="125" x="182" y="78"/>
<rect fill="#000000" height="1" stroke="#000000" stroke-width="1" width="125" x="182" y="99"/>
<rect fill="#ffffff" height="68" stroke="#ffffff" stroke-width="1" width="149" x="142" y="142"/>
<rect fill="none" height="68" stroke="#000000" stroke-width="1" width="149" x="142" y="142"/>
<text font-family="Dialog" font-size="12" font-weight="bold" x="147" y="156">
RecordMessageDaoSQL</text>
<rect fill="#000000" height="1" stroke="#000000" stroke-width="1" width="149" x="142" y="166"/>
<rect fill="#000000" height="1" stroke="#000000" stroke-width="1" width="149" x="142" y="187"/>
<rect fill="#ffffff" height="68" stroke="#ffffff" stroke-width="1" width="66" x="326" y="54"/>
<rect fill="none" height="68" stroke="#000000" stroke-width="1" width="66" x="326" y="54"/>
<text font-family="Dialog" font-size="12" font-weight="bold" x="334" y="68">
UserDao</text>
<rect fill="#000000" height="1" stroke="#000000" stroke-width="1" width="66" x="326" y="78"/>
<rect fill="#000000" height="1" stroke="#000000" stroke-width="1" width="66" x="326" y="99"/>
<rect fill="#ffffff" height="68" stroke="#ffffff" stroke-width="1" width="83" x="304" y="142"/>
<rect fill="none" height="68" stroke="#000000" stroke-width="1" width="83" x="304" y="142"/>
<text font-family="Dialog" font-size="12" font-weight="bold" x="309" y="156">
UserDaoSQL</text>
<rect fill="#000000" height="1" stroke="#000000" stroke-width="1" width="83" x="304" y="166"/>
<rect fill="#000000" height="1" stroke="#000000" stroke-width="1" width="83" x="304" y="187"/>
<rect fill="#ffffff" height="68" stroke="#ffffff" stroke-width="1" width="101" x="30" y="142"/>
<rect fill="none" height="68" stroke="#000000" stroke-width="1" width="101" x="30" y="142"/>
<text font-family="Dialog" font-size="12" font-weight="bold" x="35" y="156">
TutorialsDaoSql</text>
<rect fill="#000000" height="1" stroke="#000000" stroke-width="1" width="101" x="30" y="166"/>
<rect fill="#000000" height="1" stroke="#000000" stroke-width="1" width="101" x="30" y="187"/>
<polyline fill="none" points="238,142 238,121" stroke="#333399" stroke-width="1"/>
<polygon fill="#ffffff" points="238,121 245,133 231,133" stroke="#ffffff" stroke-width="1"/>
<polygon fill="none" points="238,121 245,133 231,133" stroke="#333399" stroke-width="1"/>
<polyline fill="none" points="438,142 438,120" stroke="#333399" stroke-width="1"/>
<polygon fill="#ffffff" points="438,120 445,132 431,132" stroke="#ffffff" stroke-width="1"/>
<polygon fill="none" points="438,120 445,132 431,132" stroke="#333399" stroke-width="1"/>
<polyline fill="none" points="358,142 358,121" stroke="#333399" stroke-width="1"/>
<polygon fill="#ffffff" points="358,121 365,133 351,133" stroke="#ffffff" stroke-width="1"/>
<polygon fill="none" points="358,121 365,133 351,133" stroke="#333399" stroke-width="1"/>
</svg>
