<?xml version="1.0" encoding="utf-8" ?>
<!DOCTYPE svg PUBLIC "-//W3C//DTD SVG 1.1//EN" "http://www.w3.org/Graphics/SVG/1.1/DTD/svg11.dtd">
<svg height="916" version="1.1" width="865" xmlns="http://www.w3.org/2000/svg">
<polygon fill="#ffffff" points="43,574 840,574 850,584 850,877 43,877 43,574" stroke="#ffffff" stroke-width="1"/>
<polyline fill="none" points="43,574 840,574 850,584 850,877 43,877 43,574" stroke="#000000" stroke-width="1"/>
<polygon fill="#ffffff" points="840,574 850,584 840,584 840,574" stroke="#ffffff" stroke-width="1"/>
<polyline fill="none" points="840,574 850,584 840,584 840,574" stroke="#000000" stroke-width="1"/>
<text font-family="Dialog" font-size="12" x="46" y="590">
data</text>
<polygon fill="#ffffff" points="131,334 760,334 770,344 770,533 131,533 131,334" stroke="#ffffff" stroke-width="1"/>
<polyline fill="none" points="131,334 760,334 770,344 770,533 131,533 131,334" stroke="#000000" stroke-width="1"/>
<polygon fill="#ffffff" points="760,334 770,344 760,344 760,334" stroke="#ffffff" stroke-width="1"/>
<polyline fill="none" points="760,334 770,344 760,344 760,334" stroke="#000000" stroke-width="1"/>
<text font-family="Dialog" font-size="12" x="134" y="350">
manager</text>
<polygon fill="#ffffff" points="171,14 816,14 826,24 826,309 171,309 171,14" stroke="#ffffff" stroke-width="1"/>
<polyline fill="none" points="171,14 816,14 826,24 826,309 171,309 171,14" stroke="#000000" stroke-width="1"/>
<polygon fill="#ffffff" points="816,14 826,24 816,24 816,14" stroke="#ffffff" stroke-width="1"/>
<polyline fill="none" points="816,14 826,24 816,24 816,14" stroke="#000000" stroke-width="1"/>
<text font-family="Dialog" font-size="12" x="174" y="30">
transfer</text>
<polygon fill="#c8c8ff" points="67,622 521,622 521,646 570,646 570,845 67,845 67,622" stroke="#c8c8ff" stroke-width="1"/>
<rect fill="none" height="24" stroke="#000000" stroke-width="1" width="454" x="67" y="622"/>
<text font-family="Dialog" font-size="12" font-weight="bold" x="72" y="636">
mytalk::server::dao</text>
<rect fill="none" height="199" stroke="#000000" stroke-width="1" width="503" x="67" y="646"/>
<rect fill="#ffffff" height="68" stroke="#ffffff" stroke-width="1" width="140" x="83" y="662"/>
<rect fill="none" height="68" stroke="#000000" stroke-width="1" width="140" x="83" y="662"/>
<text font-family="Dialog" font-size="12" font-weight="bold" x="88" y="676">
JavaConnectionSQLite</text>
<rect fill="#000000" height="1" stroke="#000000" stroke-width="1" width="140" x="83" y="686"/>
<rect fill="#000000" height="1" stroke="#000000" stroke-width="1" width="140" x="83" y="707"/>
<rect fill="#ffffff" height="67" stroke="#ffffff" stroke-width="1" width="66" x="459" y="662"/>
<rect fill="none" height="67" stroke="#000000" stroke-width="1" width="66" x="459" y="662"/>
<text font-family="Dialog" font-size="12" font-weight="bold" x="465" y="676">
LoginDao</text>
<rect fill="#000000" height="1" stroke="#000000" stroke-width="1" width="66" x="459" y="686"/>
<rect fill="#000000" height="1" stroke="#000000" stroke-width="1" width="66" x="459" y="707"/>
<rect fill="#ffffff" height="68" stroke="#ffffff" stroke-width="1" width="89" x="454" y="750"/>
<rect fill="none" height="68" stroke="#000000" stroke-width="1" width="89" x="454" y="750"/>
<text font-family="Dialog" font-size="12" font-weight="bold" x="460" y="764">
LoginDaoSQL</text>
<rect fill="#000000" height="1" stroke="#000000" stroke-width="1" width="89" x="454" y="774"/>
<rect fill="#000000" height="1" stroke="#000000" stroke-width="1" width="89" x="454" y="795"/>
<rect fill="#ffffff" height="68" stroke="#ffffff" stroke-width="1" width="125" x="235" y="662"/>
<rect fill="none" height="68" stroke="#000000" stroke-width="1" width="125" x="235" y="662"/>
<text font-family="Dialog" font-size="12" font-weight="bold" x="240" y="676">
RecordMessageDao</text>
<rect fill="#000000" height="1" stroke="#000000" stroke-width="1" width="125" x="235" y="686"/>
<rect fill="#000000" height="1" stroke="#000000" stroke-width="1" width="125" x="235" y="707"/>
<rect fill="#ffffff" height="68" stroke="#ffffff" stroke-width="1" width="149" x="195" y="750"/>
<rect fill="none" height="68" stroke="#000000" stroke-width="1" width="149" x="195" y="750"/>
<text font-family="Dialog" font-size="12" font-weight="bold" x="200" y="764">
RecordMessageDaoSQL</text>
<rect fill="#000000" height="1" stroke="#000000" stroke-width="1" width="149" x="195" y="774"/>
<rect fill="#000000" height="1" stroke="#000000" stroke-width="1" width="149" x="195" y="795"/>
<rect fill="#ffffff" height="68" stroke="#ffffff" stroke-width="1" width="66" x="379" y="662"/>
<rect fill="none" height="68" stroke="#000000" stroke-width="1" width="66" x="379" y="662"/>
<text font-family="Dialog" font-size="12" font-weight="bold" x="387" y="676">
UserDao</text>
<rect fill="#000000" height="1" stroke="#000000" stroke-width="1" width="66" x="379" y="686"/>
<rect fill="#000000" height="1" stroke="#000000" stroke-width="1" width="66" x="379" y="707"/>
<rect fill="#ffffff" height="68" stroke="#ffffff" stroke-width="1" width="83" x="357" y="750"/>
<rect fill="none" height="68" stroke="#000000" stroke-width="1" width="83" x="357" y="750"/>
<text font-family="Dialog" font-size="12" font-weight="bold" x="362" y="764">
UserDaoSQL</text>
<rect fill="#000000" height="1" stroke="#000000" stroke-width="1" width="83" x="357" y="774"/>
<rect fill="#000000" height="1" stroke="#000000" stroke-width="1" width="83" x="357" y="795"/>
<polygon fill="#c8ffc8" points="155,374 393,374 393,398 442,398 442,501 155,501 155,374" stroke="#c8ffc8" stroke-width="1"/>
<rect fill="none" height="24" stroke="#000000" stroke-width="1" width="238" x="155" y="374"/>
<text font-family="Dialog" font-size="12" font-weight="bold" x="160" y="388">
mytalk::server::usermanager</text>
<rect fill="none" height="103" stroke="#000000" stroke-width="1" width="287" x="155" y="398"/>
<rect fill="#ffffff" height="68" stroke="#ffffff" stroke-width="1" width="142" x="171" y="414"/>
<rect fill="none" height="68" stroke="#000000" stroke-width="1" width="142" x="171" y="414"/>
<text font-family="Dialog" font-size="12" font-weight="bold" x="176" y="428">
AuthenticationManager</text>
<rect fill="#000000" height="1" stroke="#000000" stroke-width="1" width="142" x="171" y="438"/>
<rect fill="#000000" height="1" stroke="#000000" stroke-width="1" width="142" x="171" y="459"/>
<rect fill="#ffffff" height="68" stroke="#ffffff" stroke-width="1" width="87" x="331" y="414"/>
<rect fill="none" height="68" stroke="#000000" stroke-width="1" width="87" x="331" y="414"/>
<text font-family="Dialog" font-size="12" font-weight="bold" x="336" y="428">
UserManager</text>
<rect fill="#000000" height="1" stroke="#000000" stroke-width="1" width="87" x="331" y="438"/>
<rect fill="#000000" height="1" stroke="#000000" stroke-width="1" width="87" x="331" y="459"/>
<polygon fill="#c8c8ff" points="595,622 777,622 777,646 826,646 826,845 595,845 595,622" stroke="#c8c8ff" stroke-width="1"/>
<rect fill="none" height="24" stroke="#000000" stroke-width="1" width="182" x="595" y="622"/>
<text font-family="Dialog" font-size="12" font-weight="bold" x="600" y="636">
mytalk::server::shared</text>
<rect fill="none" height="199" stroke="#000000" stroke-width="1" width="231" x="595" y="646"/>
<rect fill="#ffffff" height="68" stroke="#ffffff" stroke-width="1" width="66" x="611" y="662"/>
<rect fill="none" height="68" stroke="#000000" stroke-width="1" width="66" x="611" y="662"/>
<text font-family="Dialog" font-size="12" font-weight="bold" x="630" y="676">
User</text>
<rect fill="#000000" height="1" stroke="#000000" stroke-width="1" width="66" x="611" y="686"/>
<rect fill="#000000" height="1" stroke="#000000" stroke-width="1" width="66" x="611" y="707"/>
<rect fill="#ffffff" height="68" stroke="#ffffff" stroke-width="1" width="66" x="691" y="662"/>
<rect fill="none" height="68" stroke="#000000" stroke-width="1" width="66" x="691" y="662"/>
<text font-family="Dialog" font-size="12" font-weight="bold" x="700" y="676">
UserList</text>
<rect fill="#000000" height="1" stroke="#000000" stroke-width="1" width="66" x="691" y="686"/>
<rect fill="#000000" height="1" stroke="#000000" stroke-width="1" width="66" x="691" y="707"/>
<rect fill="#ffffff" height="68" stroke="#ffffff" stroke-width="1" width="103" x="691" y="750"/>
<rect fill="none" height="68" stroke="#000000" stroke-width="1" width="103" x="691" y="750"/>
<text font-family="Dialog" font-size="12" font-weight="bold" x="696" y="764">
RecordMessage</text>
<rect fill="#000000" height="1" stroke="#000000" stroke-width="1" width="103" x="691" y="774"/>
<rect fill="#000000" height="1" stroke="#000000" stroke-width="1" width="103" x="691" y="795"/>
<polygon fill="#ffc8ff" points="195,54 753,54 753,78 802,78 802,285 195,285 195,54" stroke="#ffc8ff" stroke-width="1"/>
<rect fill="none" height="24" stroke="#000000" stroke-width="1" width="558" x="195" y="54"/>
<text font-family="Dialog" font-size="12" font-weight="bold" x="200" y="68">
mytalk::server::transfer</text>
<rect fill="none" height="207" stroke="#000000" stroke-width="1" width="607" x="195" y="78"/>
<rect fill="#ffffff" height="68" stroke="#ffffff" stroke-width="1" width="141" x="211" y="198"/>
<rect fill="none" height="68" stroke="#000000" stroke-width="1" width="141" x="211" y="198"/>
<text font-family="Dialog" font-size="12" font-weight="bold" x="216" y="212">
AuthenticationTransfer</text>
<rect fill="#000000" height="1" stroke="#000000" stroke-width="1" width="141" x="211" y="222"/>
<rect fill="#000000" height="1" stroke="#000000" stroke-width="1" width="141" x="211" y="243"/>
<rect fill="#ffffff" height="67" stroke="#ffffff" stroke-width="1" width="80" x="363" y="198"/>
<rect fill="none" height="67" stroke="#000000" stroke-width="1" width="80" x="363" y="198"/>
<text font-family="Dialog" font-size="12" font-weight="bold" x="368" y="212">
CallTransfer</text>
<rect fill="#000000" height="1" stroke="#000000" stroke-width="1" width="80" x="363" y="222"/>
<rect fill="#000000" height="1" stroke="#000000" stroke-width="1" width="80" x="363" y="243"/>
<polygon fill="#c8ffc8" points="475,374 673,374 673,398 722,398 722,501 475,501 475,374" stroke="#c8ffc8" stroke-width="1"/>
<rect fill="none" height="24" stroke="#000000" stroke-width="1" width="198" x="475" y="374"/>
<text font-family="Dialog" font-size="12" font-weight="bold" x="480" y="388">
mytalk::server::functionmanager</text>
<rect fill="none" height="103" stroke="#000000" stroke-width="1" width="247" x="475" y="398"/>
<rect fill="#ffffff" height="68" stroke="#ffffff" stroke-width="1" width="111" x="499" y="414"/>
<rect fill="none" height="68" stroke="#000000" stroke-width="1" width="111" x="499" y="414"/>
<text font-family="Dialog" font-size="12" font-weight="bold" x="526" y="428">
Converter</text>
<rect fill="#000000" height="1" stroke="#000000" stroke-width="1" width="111" x="499" y="438"/>
<rect fill="#000000" height="1" stroke="#000000" stroke-width="1" width="111" x="499" y="459"/>
<line fill="#000000" stroke="#000000" stroke-width="1" x1="571" x2="576" y1="734" y2="734"/>
<line fill="#000000" stroke="#000000" stroke-width="1" x1="581" x2="586" y1="734" y2="734"/>
<line fill="#000000" stroke="#000000" stroke-width="1" x1="591" x2="595" y1="734" y2="734"/>
<line fill="#000000" stroke="#000000" stroke-width="1" x1="583" x2="595" y1="741" y2="734"/>
<line fill="#000000" stroke="#000000" stroke-width="1" x1="583" x2="595" y1="727" y2="734"/>
<line fill="#000000" stroke="#000000" stroke-width="1" x1="315" x2="315" y1="286" y2="291"/>
<line fill="#000000" stroke="#000000" stroke-width="1" x1="315" x2="315" y1="296" y2="301"/>
<line fill="#000000" stroke="#000000" stroke-width="1" x1="315" x2="315" y1="306" y2="311"/>
<line fill="#000000" stroke="#000000" stroke-width="1" x1="315" x2="315" y1="316" y2="321"/>
<line fill="#000000" stroke="#000000" stroke-width="1" x1="315" x2="315" y1="326" y2="331"/>
<line fill="#000000" stroke="#000000" stroke-width="1" x1="315" x2="315" y1="336" y2="341"/>
<line fill="#000000" stroke="#000000" stroke-width="1" x1="315" x2="315" y1="346" y2="351"/>
<line fill="#000000" stroke="#000000" stroke-width="1" x1="315" x2="315" y1="356" y2="361"/>
<line fill="#000000" stroke="#000000" stroke-width="1" x1="315" x2="315" y1="366" y2="371"/>
<line fill="#000000" stroke="#000000" stroke-width="1" x1="308" x2="315" y1="362" y2="374"/>
<line fill="#000000" stroke="#000000" stroke-width="1" x1="322" x2="315" y1="362" y2="374"/>
<line fill="#000000" stroke="#000000" stroke-width="1" x1="315" x2="315" y1="502" y2="507"/>
<line fill="#000000" stroke="#000000" stroke-width="1" x1="315" x2="315" y1="512" y2="517"/>
<line fill="#000000" stroke="#000000" stroke-width="1" x1="315" x2="315" y1="522" y2="527"/>
<line fill="#000000" stroke="#000000" stroke-width="1" x1="315" x2="315" y1="532" y2="537"/>
<line fill="#000000" stroke="#000000" stroke-width="1" x1="315" x2="315" y1="542" y2="547"/>
<line fill="#000000" stroke="#000000" stroke-width="1" x1="315" x2="315" y1="552" y2="557"/>
<line fill="#000000" stroke="#000000" stroke-width="1" x1="315" x2="315" y1="562" y2="567"/>
<line fill="#000000" stroke="#000000" stroke-width="1" x1="315" x2="315" y1="572" y2="577"/>
<line fill="#000000" stroke="#000000" stroke-width="1" x1="315" x2="315" y1="582" y2="587"/>
<line fill="#000000" stroke="#000000" stroke-width="1" x1="315" x2="315" y1="592" y2="597"/>
<line fill="#000000" stroke="#000000" stroke-width="1" x1="315" x2="315" y1="602" y2="607"/>
<line fill="#000000" stroke="#000000" stroke-width="1" x1="315" x2="315" y1="612" y2="617"/>
<line fill="#000000" stroke="#000000" stroke-width="1" x1="308" x2="315" y1="610" y2="622"/>
<line fill="#000000" stroke="#000000" stroke-width="1" x1="322" x2="315" y1="610" y2="622"/>
<rect fill="#ffffff" height="68" stroke="#ffffff" stroke-width="1" width="66" x="59" y="222"/>
<rect fill="none" height="68" stroke="#000000" stroke-width="1" width="66" x="59" y="222"/>
<text font-family="Dialog" font-size="12" font-weight="bold" x="65" y="236">
Launcher</text>
<rect fill="#000000" height="1" stroke="#000000" stroke-width="1" width="66" x="59" y="246"/>
<rect fill="#000000" height="1" stroke="#000000" stroke-width="1" width="66" x="59" y="267"/>
<rect fill="#ffffff" height="68" stroke="#ffffff" stroke-width="1" width="88" x="51" y="126"/>
<rect fill="none" height="68" stroke="#000000" stroke-width="1" width="88" x="51" y="126"/>
<text font-family="Dialog" font-size="12" font-weight="bold" x="56" y="140">
ServerMyTalk</text>
<rect fill="#000000" height="1" stroke="#000000" stroke-width="1" width="88" x="51" y="150"/>
<rect fill="#000000" height="1" stroke="#000000" stroke-width="1" width="88" x="51" y="171"/>
<line fill="#000000" stroke="#000000" stroke-width="1" x1="138" x2="143" y1="158" y2="158"/>
<line fill="#000000" stroke="#000000" stroke-width="1" x1="148" x2="153" y1="158" y2="158"/>
<line fill="#000000" stroke="#000000" stroke-width="1" x1="158" x2="163" y1="158" y2="158"/>
<line fill="#000000" stroke="#000000" stroke-width="1" x1="168" x2="173" y1="158" y2="158"/>
<line fill="#000000" stroke="#000000" stroke-width="1" x1="178" x2="183" y1="158" y2="158"/>
<line fill="#000000" stroke="#000000" stroke-width="1" x1="188" x2="193" y1="158" y2="158"/>
<line fill="#000000" stroke="#000000" stroke-width="1" x1="183" x2="195" y1="165" y2="158"/>
<line fill="#000000" stroke="#000000" stroke-width="1" x1="183" x2="195" y1="151" y2="158"/>
<line fill="#000000" stroke="#000000" stroke-width="1" x1="91" x2="91" y1="193" y2="198"/>
<line fill="#000000" stroke="#000000" stroke-width="1" x1="91" x2="91" y1="203" y2="208"/>
<line fill="#000000" stroke="#000000" stroke-width="1" x1="91" x2="91" y1="213" y2="218"/>
<line fill="#000000" stroke="#000000" stroke-width="1" x1="84" x2="91" y1="210" y2="222"/>
<line fill="#000000" stroke="#000000" stroke-width="1" x1="98" x2="91" y1="210" y2="222"/>
<line fill="#000000" stroke="#000000" stroke-width="1" x1="107" x2="107" y1="289" y2="294"/>
<line fill="#000000" stroke="#000000" stroke-width="1" x1="107" x2="107" y1="299" y2="304"/>
<line fill="#000000" stroke="#000000" stroke-width="1" x1="107" x2="107" y1="309" y2="314"/>
<line fill="#000000" stroke="#000000" stroke-width="1" x1="107" x2="107" y1="319" y2="324"/>
<line fill="#000000" stroke="#000000" stroke-width="1" x1="107" x2="107" y1="329" y2="334"/>
<line fill="#000000" stroke="#000000" stroke-width="1" x1="107" x2="107" y1="339" y2="344"/>
<line fill="#000000" stroke="#000000" stroke-width="1" x1="107" x2="107" y1="349" y2="354"/>
<line fill="#000000" stroke="#000000" stroke-width="1" x1="107" x2="107" y1="359" y2="364"/>
<line fill="#000000" stroke="#000000" stroke-width="1" x1="107" x2="107" y1="369" y2="374"/>
<line fill="#000000" stroke="#000000" stroke-width="1" x1="107" x2="107" y1="379" y2="384"/>
<line fill="#000000" stroke="#000000" stroke-width="1" x1="107" x2="107" y1="389" y2="394"/>
<line fill="#000000" stroke="#000000" stroke-width="1" x1="107" x2="107" y1="399" y2="404"/>
<line fill="#000000" stroke="#000000" stroke-width="1" x1="107" x2="107" y1="409" y2="414"/>
<line fill="#000000" stroke="#000000" stroke-width="1" x1="107" x2="107" y1="419" y2="424"/>
<line fill="#000000" stroke="#000000" stroke-width="1" x1="107" x2="107" y1="429" y2="434"/>
<line fill="#000000" stroke="#000000" stroke-width="1" x1="107" x2="107" y1="439" y2="444"/>
<line fill="#000000" stroke="#000000" stroke-width="1" x1="107" x2="112" y1="446" y2="446"/>
<line fill="#000000" stroke="#000000" stroke-width="1" x1="117" x2="122" y1="446" y2="446"/>
<line fill="#000000" stroke="#000000" stroke-width="1" x1="127" x2="132" y1="446" y2="446"/>
<line fill="#000000" stroke="#000000" stroke-width="1" x1="137" x2="142" y1="446" y2="446"/>
<line fill="#000000" stroke="#000000" stroke-width="1" x1="147" x2="152" y1="446" y2="446"/>
<line fill="#000000" stroke="#000000" stroke-width="1" x1="143" x2="155" y1="453" y2="446"/>
<line fill="#000000" stroke="#000000" stroke-width="1" x1="143" x2="155" y1="439" y2="446"/>
<line fill="#000000" stroke="#000000" stroke-width="1" x1="75" x2="75" y1="289" y2="294"/>
<line fill="#000000" stroke="#000000" stroke-width="1" x1="75" x2="75" y1="299" y2="304"/>
<line fill="#000000" stroke="#000000" stroke-width="1" x1="75" x2="75" y1="309" y2="314"/>
<line fill="#000000" stroke="#000000" stroke-width="1" x1="75" x2="75" y1="319" y2="324"/>
<line fill="#000000" stroke="#000000" stroke-width="1" x1="75" x2="75" y1="329" y2="334"/>
<line fill="#000000" stroke="#000000" stroke-width="1" x1="75" x2="75" y1="339" y2="344"/>
<line fill="#000000" stroke="#000000" stroke-width="1" x1="75" x2="75" y1="349" y2="354"/>
<line fill="#000000" stroke="#000000" stroke-width="1" x1="75" x2="75" y1="359" y2="364"/>
<line fill="#000000" stroke="#000000" stroke-width="1" x1="75" x2="75" y1="369" y2="374"/>
<line fill="#000000" stroke="#000000" stroke-width="1" x1="75" x2="75" y1="379" y2="384"/>
<line fill="#000000" stroke="#000000" stroke-width="1" x1="75" x2="75" y1="389" y2="394"/>
<line fill="#000000" stroke="#000000" stroke-width="1" x1="75" x2="75" y1="399" y2="404"/>
<line fill="#000000" stroke="#000000" stroke-width="1" x1="75" x2="75" y1="409" y2="414"/>
<line fill="#000000" stroke="#000000" stroke-width="1" x1="75" x2="75" y1="419" y2="424"/>
<line fill="#000000" stroke="#000000" stroke-width="1" x1="75" x2="75" y1="429" y2="434"/>
<line fill="#000000" stroke="#000000" stroke-width="1" x1="75" x2="75" y1="439" y2="444"/>
<line fill="#000000" stroke="#000000" stroke-width="1" x1="75" x2="75" y1="449" y2="454"/>
<line fill="#000000" stroke="#000000" stroke-width="1" x1="75" x2="75" y1="459" y2="464"/>
<line fill="#000000" stroke="#000000" stroke-width="1" x1="75" x2="75" y1="469" y2="474"/>
<line fill="#000000" stroke="#000000" stroke-width="1" x1="75" x2="75" y1="479" y2="484"/>
<line fill="#000000" stroke="#000000" stroke-width="1" x1="75" x2="75" y1="489" y2="494"/>
<line fill="#000000" stroke="#000000" stroke-width="1" x1="75" x2="75" y1="499" y2="504"/>
<line fill="#000000" stroke="#000000" stroke-width="1" x1="75" x2="75" y1="509" y2="514"/>
<line fill="#000000" stroke="#000000" stroke-width="1" x1="75" x2="75" y1="519" y2="524"/>
<line fill="#000000" stroke="#000000" stroke-width="1" x1="75" x2="75" y1="529" y2="534"/>
<line fill="#000000" stroke="#000000" stroke-width="1" x1="75" x2="75" y1="539" y2="544"/>
<line fill="#000000" stroke="#000000" stroke-width="1" x1="75" x2="75" y1="549" y2="554"/>
<line fill="#000000" stroke="#000000" stroke-width="1" x1="75" x2="75" y1="559" y2="564"/>
<line fill="#000000" stroke="#000000" stroke-width="1" x1="75" x2="75" y1="569" y2="574"/>
<line fill="#000000" stroke="#000000" stroke-width="1" x1="75" x2="75" y1="579" y2="584"/>
<line fill="#000000" stroke="#000000" stroke-width="1" x1="75" x2="75" y1="589" y2="594"/>
<line fill="#000000" stroke="#000000" stroke-width="1" x1="75" x2="75" y1="599" y2="604"/>
<line fill="#000000" stroke="#000000" stroke-width="1" x1="75" x2="75" y1="609" y2="614"/>
<line fill="#000000" stroke="#000000" stroke-width="1" x1="75" x2="75" y1="619" y2="622"/>
<line fill="#000000" stroke="#000000" stroke-width="1" x1="68" x2="75" y1="610" y2="622"/>
<line fill="#000000" stroke="#000000" stroke-width="1" x1="82" x2="75" y1="610" y2="622"/>
<line fill="#000000" stroke="#000000" stroke-width="1" x1="515" x2="515" y1="286" y2="291"/>
<line fill="#000000" stroke="#000000" stroke-width="1" x1="515" x2="515" y1="296" y2="301"/>
<line fill="#000000" stroke="#000000" stroke-width="1" x1="515" x2="515" y1="306" y2="311"/>
<line fill="#000000" stroke="#000000" stroke-width="1" x1="515" x2="515" y1="316" y2="321"/>
<line fill="#000000" stroke="#000000" stroke-width="1" x1="515" x2="515" y1="326" y2="331"/>
<line fill="#000000" stroke="#000000" stroke-width="1" x1="515" x2="515" y1="336" y2="341"/>
<line fill="#000000" stroke="#000000" stroke-width="1" x1="515" x2="515" y1="346" y2="351"/>
<line fill="#000000" stroke="#000000" stroke-width="1" x1="515" x2="515" y1="356" y2="361"/>
<line fill="#000000" stroke="#000000" stroke-width="1" x1="515" x2="515" y1="366" y2="371"/>
<line fill="#000000" stroke="#000000" stroke-width="1" x1="508" x2="515" y1="362" y2="374"/>
<line fill="#000000" stroke="#000000" stroke-width="1" x1="522" x2="515" y1="362" y2="374"/>
<rect fill="#ffffff" height="68" stroke="#ffffff" stroke-width="1" width="66" x="611" y="750"/>
<rect fill="none" height="68" stroke="#000000" stroke-width="1" width="66" x="611" y="750"/>
<text font-family="Dialog" font-size="12" font-weight="bold" x="619" y="764">
Tutorials</text>
<rect fill="#000000" height="1" stroke="#000000" stroke-width="1" width="66" x="611" y="774"/>
<rect fill="#000000" height="1" stroke="#000000" stroke-width="1" width="66" x="611" y="795"/>
<line fill="#000000" stroke="#000000" stroke-width="1" x1="59" x2="54" y1="254" y2="254"/>
<line fill="#000000" stroke="#000000" stroke-width="1" x1="49" x2="44" y1="254" y2="254"/>
<line fill="#000000" stroke="#000000" stroke-width="1" x1="39" x2="34" y1="254" y2="254"/>
<line fill="#000000" stroke="#000000" stroke-width="1" x1="29" x2="27" y1="254" y2="254"/>
<line fill="#000000" stroke="#000000" stroke-width="1" x1="27" x2="27" y1="254" y2="259"/>
<line fill="#000000" stroke="#000000" stroke-width="1" x1="27" x2="27" y1="264" y2="269"/>
<line fill="#000000" stroke="#000000" stroke-width="1" x1="27" x2="27" y1="274" y2="279"/>
<line fill="#000000" stroke="#000000" stroke-width="1" x1="27" x2="27" y1="284" y2="289"/>
<line fill="#000000" stroke="#000000" stroke-width="1" x1="27" x2="27" y1="294" y2="299"/>
<line fill="#000000" stroke="#000000" stroke-width="1" x1="27" x2="27" y1="304" y2="309"/>
<line fill="#000000" stroke="#000000" stroke-width="1" x1="27" x2="27" y1="314" y2="319"/>
<line fill="#000000" stroke="#000000" stroke-width="1" x1="27" x2="27" y1="324" y2="329"/>
<line fill="#000000" stroke="#000000" stroke-width="1" x1="27" x2="27" y1="334" y2="339"/>
<line fill="#000000" stroke="#000000" stroke-width="1" x1="27" x2="27" y1="344" y2="349"/>
<line fill="#000000" stroke="#000000" stroke-width="1" x1="27" x2="27" y1="354" y2="359"/>
<line fill="#000000" stroke="#000000" stroke-width="1" x1="27" x2="27" y1="364" y2="369"/>
<line fill="#000000" stroke="#000000" stroke-width="1" x1="27" x2="27" y1="374" y2="379"/>
<line fill="#000000" stroke="#000000" stroke-width="1" x1="27" x2="27" y1="384" y2="389"/>
<line fill="#000000" stroke="#000000" stroke-width="1" x1="27" x2="27" y1="394" y2="399"/>
<line fill="#000000" stroke="#000000" stroke-width="1" x1="27" x2="27" y1="404" y2="409"/>
<line fill="#000000" stroke="#000000" stroke-width="1" x1="27" x2="27" y1="414" y2="419"/>
<line fill="#000000" stroke="#000000" stroke-width="1" x1="27" x2="27" y1="424" y2="429"/>
<line fill="#000000" stroke="#000000" stroke-width="1" x1="27" x2="27" y1="434" y2="439"/>
<line fill="#000000" stroke="#000000" stroke-width="1" x1="27" x2="27" y1="444" y2="449"/>
<line fill="#000000" stroke="#000000" stroke-width="1" x1="27" x2="27" y1="454" y2="459"/>
<line fill="#000000" stroke="#000000" stroke-width="1" x1="27" x2="27" y1="464" y2="469"/>
<line fill="#000000" stroke="#000000" stroke-width="1" x1="27" x2="27" y1="474" y2="479"/>
<line fill="#000000" stroke="#000000" stroke-width="1" x1="27" x2="27" y1="484" y2="489"/>
<line fill="#000000" stroke="#000000" stroke-width="1" x1="27" x2="27" y1="494" y2="499"/>
<line fill="#000000" stroke="#000000" stroke-width="1" x1="27" x2="27" y1="504" y2="509"/>
<line fill="#000000" stroke="#000000" stroke-width="1" x1="27" x2="27" y1="514" y2="519"/>
<line fill="#000000" stroke="#000000" stroke-width="1" x1="27" x2="27" y1="524" y2="529"/>
<line fill="#000000" stroke="#000000" stroke-width="1" x1="27" x2="27" y1="534" y2="539"/>
<line fill="#000000" stroke="#000000" stroke-width="1" x1="27" x2="27" y1="544" y2="549"/>
<line fill="#000000" stroke="#000000" stroke-width="1" x1="27" x2="27" y1="554" y2="559"/>
<line fill="#000000" stroke="#000000" stroke-width="1" x1="27" x2="27" y1="564" y2="569"/>
<line fill="#000000" stroke="#000000" stroke-width="1" x1="27" x2="27" y1="574" y2="579"/>
<line fill="#000000" stroke="#000000" stroke-width="1" x1="27" x2="27" y1="584" y2="589"/>
<line fill="#000000" stroke="#000000" stroke-width="1" x1="27" x2="27" y1="594" y2="599"/>
<line fill="#000000" stroke="#000000" stroke-width="1" x1="27" x2="27" y1="604" y2="609"/>
<line fill="#000000" stroke="#000000" stroke-width="1" x1="27" x2="27" y1="614" y2="619"/>
<line fill="#000000" stroke="#000000" stroke-width="1" x1="27" x2="27" y1="624" y2="629"/>
<line fill="#000000" stroke="#000000" stroke-width="1" x1="27" x2="27" y1="634" y2="639"/>
<line fill="#000000" stroke="#000000" stroke-width="1" x1="27" x2="27" y1="644" y2="649"/>
<line fill="#000000" stroke="#000000" stroke-width="1" x1="27" x2="27" y1="654" y2="659"/>
<line fill="#000000" stroke="#000000" stroke-width="1" x1="27" x2="27" y1="664" y2="669"/>
<line fill="#000000" stroke="#000000" stroke-width="1" x1="27" x2="27" y1="674" y2="679"/>
<line fill="#000000" stroke="#000000" stroke-width="1" x1="27" x2="27" y1="684" y2="689"/>
<line fill="#000000" stroke="#000000" stroke-width="1" x1="27" x2="27" y1="694" y2="699"/>
<line fill="#000000" stroke="#000000" stroke-width="1" x1="27" x2="27" y1="704" y2="709"/>
<line fill="#000000" stroke="#000000" stroke-width="1" x1="27" x2="27" y1="714" y2="719"/>
<line fill="#000000" stroke="#000000" stroke-width="1" x1="27" x2="27" y1="724" y2="729"/>
<line fill="#000000" stroke="#000000" stroke-width="1" x1="27" x2="27" y1="734" y2="739"/>
<line fill="#000000" stroke="#000000" stroke-width="1" x1="27" x2="27" y1="744" y2="749"/>
<line fill="#000000" stroke="#000000" stroke-width="1" x1="27" x2="27" y1="754" y2="759"/>
<line fill="#000000" stroke="#000000" stroke-width="1" x1="27" x2="27" y1="764" y2="769"/>
<line fill="#000000" stroke="#000000" stroke-width="1" x1="27" x2="27" y1="774" y2="779"/>
<line fill="#000000" stroke="#000000" stroke-width="1" x1="27" x2="27" y1="784" y2="789"/>
<line fill="#000000" stroke="#000000" stroke-width="1" x1="27" x2="27" y1="794" y2="799"/>
<line fill="#000000" stroke="#000000" stroke-width="1" x1="27" x2="27" y1="804" y2="809"/>
<line fill="#000000" stroke="#000000" stroke-width="1" x1="27" x2="27" y1="814" y2="819"/>
<line fill="#000000" stroke="#000000" stroke-width="1" x1="27" x2="27" y1="824" y2="829"/>
<line fill="#000000" stroke="#000000" stroke-width="1" x1="27" x2="27" y1="834" y2="839"/>
<line fill="#000000" stroke="#000000" stroke-width="1" x1="27" x2="27" y1="844" y2="849"/>
<line fill="#000000" stroke="#000000" stroke-width="1" x1="27" x2="27" y1="854" y2="859"/>
<line fill="#000000" stroke="#000000" stroke-width="1" x1="27" x2="27" y1="864" y2="869"/>
<line fill="#000000" stroke="#000000" stroke-width="1" x1="27" x2="27" y1="874" y2="879"/>
<line fill="#000000" stroke="#000000" stroke-width="1" x1="27" x2="27" y1="884" y2="889"/>
<line fill="#000000" stroke="#000000" stroke-width="1" x1="27" x2="27" y1="894" y2="899"/>
<line fill="#000000" stroke="#000000" stroke-width="1" x1="27" x2="32" y1="902" y2="902"/>
<line fill="#000000" stroke="#000000" stroke-width="1" x1="37" x2="42" y1="902" y2="902"/>
<line fill="#000000" stroke="#000000" stroke-width="1" x1="47" x2="52" y1="902" y2="902"/>
<line fill="#000000" stroke="#000000" stroke-width="1" x1="57" x2="62" y1="902" y2="902"/>
<line fill="#000000" stroke="#000000" stroke-width="1" x1="67" x2="72" y1="902" y2="902"/>
<line fill="#000000" stroke="#000000" stroke-width="1" x1="77" x2="82" y1="902" y2="902"/>
<line fill="#000000" stroke="#000000" stroke-width="1" x1="87" x2="92" y1="902" y2="902"/>
<line fill="#000000" stroke="#000000" stroke-width="1" x1="97" x2="102" y1="902" y2="902"/>
<line fill="#000000" stroke="#000000" stroke-width="1" x1="107" x2="112" y1="902" y2="902"/>
<line fill="#000000" stroke="#000000" stroke-width="1" x1="117" x2="122" y1="902" y2="902"/>
<line fill="#000000" stroke="#000000" stroke-width="1" x1="127" x2="132" y1="902" y2="902"/>
<line fill="#000000" stroke="#000000" stroke-width="1" x1="137" x2="142" y1="902" y2="902"/>
<line fill="#000000" stroke="#000000" stroke-width="1" x1="147" x2="152" y1="902" y2="902"/>
<line fill="#000000" stroke="#000000" stroke-width="1" x1="157" x2="162" y1="902" y2="902"/>
<line fill="#000000" stroke="#000000" stroke-width="1" x1="167" x2="172" y1="902" y2="902"/>
<line fill="#000000" stroke="#000000" stroke-width="1" x1="177" x2="182" y1="902" y2="902"/>
<line fill="#000000" stroke="#000000" stroke-width="1" x1="187" x2="192" y1="902" y2="902"/>
<line fill="#000000" stroke="#000000" stroke-width="1" x1="197" x2="202" y1="902" y2="902"/>
<line fill="#000000" stroke="#000000" stroke-width="1" x1="207" x2="212" y1="902" y2="902"/>
<line fill="#000000" stroke="#000000" stroke-width="1" x1="217" x2="222" y1="902" y2="902"/>
<line fill="#000000" stroke="#000000" stroke-width="1" x1="227" x2="232" y1="902" y2="902"/>
<line fill="#000000" stroke="#000000" stroke-width="1" x1="237" x2="242" y1="902" y2="902"/>
<line fill="#000000" stroke="#000000" stroke-width="1" x1="247" x2="252" y1="902" y2="902"/>
<line fill="#000000" stroke="#000000" stroke-width="1" x1="257" x2="262" y1="902" y2="902"/>
<line fill="#000000" stroke="#000000" stroke-width="1" x1="267" x2="272" y1="902" y2="902"/>
<line fill="#000000" stroke="#000000" stroke-width="1" x1="277" x2="282" y1="902" y2="902"/>
<line fill="#000000" stroke="#000000" stroke-width="1" x1="287" x2="292" y1="902" y2="902"/>
<line fill="#000000" stroke="#000000" stroke-width="1" x1="297" x2="302" y1="902" y2="902"/>
<line fill="#000000" stroke="#000000" stroke-width="1" x1="307" x2="312" y1="902" y2="902"/>
<line fill="#000000" stroke="#000000" stroke-width="1" x1="317" x2="322" y1="902" y2="902"/>
<line fill="#000000" stroke="#000000" stroke-width="1" x1="327" x2="332" y1="902" y2="902"/>
<line fill="#000000" stroke="#000000" stroke-width="1" x1="337" x2="342" y1="902" y2="902"/>
<line fill="#000000" stroke="#000000" stroke-width="1" x1="347" x2="352" y1="902" y2="902"/>
<line fill="#000000" stroke="#000000" stroke-width="1" x1="357" x2="362" y1="902" y2="902"/>
<line fill="#000000" stroke="#000000" stroke-width="1" x1="367" x2="372" y1="902" y2="902"/>
<line fill="#000000" stroke="#000000" stroke-width="1" x1="377" x2="382" y1="902" y2="902"/>
<line fill="#000000" stroke="#000000" stroke-width="1" x1="387" x2="392" y1="902" y2="902"/>
<line fill="#000000" stroke="#000000" stroke-width="1" x1="397" x2="402" y1="902" y2="902"/>
<line fill="#000000" stroke="#000000" stroke-width="1" x1="407" x2="412" y1="902" y2="902"/>
<line fill="#000000" stroke="#000000" stroke-width="1" x1="417" x2="422" y1="902" y2="902"/>
<line fill="#000000" stroke="#000000" stroke-width="1" x1="427" x2="432" y1="902" y2="902"/>
<line fill="#000000" stroke="#000000" stroke-width="1" x1="437" x2="442" y1="902" y2="902"/>
<line fill="#000000" stroke="#000000" stroke-width="1" x1="447" x2="452" y1="902" y2="902"/>
<line fill="#000000" stroke="#000000" stroke-width="1" x1="457" x2="462" y1="902" y2="902"/>
<line fill="#000000" stroke="#000000" stroke-width="1" x1="467" x2="472" y1="902" y2="902"/>
<line fill="#000000" stroke="#000000" stroke-width="1" x1="477" x2="482" y1="902" y2="902"/>
<line fill="#000000" stroke="#000000" stroke-width="1" x1="487" x2="492" y1="902" y2="902"/>
<line fill="#000000" stroke="#000000" stroke-width="1" x1="497" x2="502" y1="902" y2="902"/>
<line fill="#000000" stroke="#000000" stroke-width="1" x1="507" x2="512" y1="902" y2="902"/>
<line fill="#000000" stroke="#000000" stroke-width="1" x1="517" x2="522" y1="902" y2="902"/>
<line fill="#000000" stroke="#000000" stroke-width="1" x1="527" x2="532" y1="902" y2="902"/>
<line fill="#000000" stroke="#000000" stroke-width="1" x1="537" x2="542" y1="902" y2="902"/>
<line fill="#000000" stroke="#000000" stroke-width="1" x1="547" x2="552" y1="902" y2="902"/>
<line fill="#000000" stroke="#000000" stroke-width="1" x1="557" x2="562" y1="902" y2="902"/>
<line fill="#000000" stroke="#000000" stroke-width="1" x1="567" x2="572" y1="902" y2="902"/>
<line fill="#000000" stroke="#000000" stroke-width="1" x1="577" x2="582" y1="902" y2="902"/>
<line fill="#000000" stroke="#000000" stroke-width="1" x1="587" x2="592" y1="902" y2="902"/>
<line fill="#000000" stroke="#000000" stroke-width="1" x1="597" x2="602" y1="902" y2="902"/>
<line fill="#000000" stroke="#000000" stroke-width="1" x1="607" x2="612" y1="902" y2="902"/>
<line fill="#000000" stroke="#000000" stroke-width="1" x1="617" x2="622" y1="902" y2="902"/>
<line fill="#000000" stroke="#000000" stroke-width="1" x1="627" x2="632" y1="902" y2="902"/>
<line fill="#000000" stroke="#000000" stroke-width="1" x1="637" x2="642" y1="902" y2="902"/>
<line fill="#000000" stroke="#000000" stroke-width="1" x1="647" x2="652" y1="902" y2="902"/>
<line fill="#000000" stroke="#000000" stroke-width="1" x1="657" x2="662" y1="902" y2="902"/>
<line fill="#000000" stroke="#000000" stroke-width="1" x1="667" x2="672" y1="902" y2="902"/>
<line fill="#000000" stroke="#000000" stroke-width="1" x1="677" x2="682" y1="902" y2="902"/>
<line fill="#000000" stroke="#000000" stroke-width="1" x1="687" x2="692" y1="902" y2="902"/>
<line fill="#000000" stroke="#000000" stroke-width="1" x1="697" x2="702" y1="902" y2="902"/>
<line fill="#000000" stroke="#000000" stroke-width="1" x1="707" x2="712" y1="902" y2="902"/>
<line fill="#000000" stroke="#000000" stroke-width="1" x1="715" x2="715" y1="902" y2="897"/>
<line fill="#000000" stroke="#000000" stroke-width="1" x1="715" x2="715" y1="892" y2="887"/>
<line fill="#000000" stroke="#000000" stroke-width="1" x1="715" x2="715" y1="882" y2="877"/>
<line fill="#000000" stroke="#000000" stroke-width="1" x1="715" x2="715" y1="872" y2="867"/>
<line fill="#000000" stroke="#000000" stroke-width="1" x1="715" x2="715" y1="862" y2="857"/>
<line fill="#000000" stroke="#000000" stroke-width="1" x1="715" x2="715" y1="852" y2="847"/>
<line fill="#000000" stroke="#000000" stroke-width="1" x1="722" x2="715" y1="858" y2="846"/>
<line fill="#000000" stroke="#000000" stroke-width="1" x1="708" x2="715" y1="858" y2="846"/>
<rect fill="#ffffff" height="67" stroke="#ffffff" stroke-width="1" width="152" x="452" y="198"/>
<rect fill="none" height="67" stroke="#000000" stroke-width="1" width="152" x="452" y="198"/>
<text font-family="Dialog" font-size="12" font-weight="bold" x="457" y="212">
RecordMessageTransfer</text>
<rect fill="#000000" height="1" stroke="#000000" stroke-width="1" width="152" x="452" y="222"/>
<rect fill="#000000" height="1" stroke="#000000" stroke-width="1" width="152" x="452" y="243"/>
<rect fill="#ffffff" height="68" stroke="#ffffff" stroke-width="1" width="86" x="611" y="198"/>
<rect fill="none" height="68" stroke="#000000" stroke-width="1" width="86" x="611" y="198"/>
<text font-family="Dialog" font-size="12" font-weight="bold" x="616" y="212">
UserTransfer</text>
<rect fill="#000000" height="1" stroke="#000000" stroke-width="1" width="86" x="611" y="222"/>
<rect fill="#000000" height="1" stroke="#000000" stroke-width="1" width="86" x="611" y="243"/>
<rect fill="#ffffff" height="68" stroke="#ffffff" stroke-width="1" width="101" x="83" y="750"/>
<rect fill="none" height="68" stroke="#000000" stroke-width="1" width="101" x="83" y="750"/>
<text font-family="Dialog" font-size="12" font-weight="bold" x="88" y="764">
TutorialsDaoSql</text>
<rect fill="#000000" height="1" stroke="#000000" stroke-width="1" width="101" x="83" y="774"/>
<rect fill="#000000" height="1" stroke="#000000" stroke-width="1" width="101" x="83" y="795"/>
<line fill="#000000" stroke="#000000" stroke-width="1" x1="683" x2="683" y1="502" y2="507"/>
<line fill="#000000" stroke="#000000" stroke-width="1" x1="683" x2="683" y1="512" y2="517"/>
<line fill="#000000" stroke="#000000" stroke-width="1" x1="683" x2="683" y1="522" y2="527"/>
<line fill="#000000" stroke="#000000" stroke-width="1" x1="683" x2="683" y1="532" y2="537"/>
<line fill="#000000" stroke="#000000" stroke-width="1" x1="683" x2="683" y1="542" y2="547"/>
<line fill="#000000" stroke="#000000" stroke-width="1" x1="683" x2="683" y1="552" y2="557"/>
<line fill="#000000" stroke="#000000" stroke-width="1" x1="683" x2="683" y1="562" y2="567"/>
<line fill="#000000" stroke="#000000" stroke-width="1" x1="683" x2="683" y1="572" y2="577"/>
<line fill="#000000" stroke="#000000" stroke-width="1" x1="683" x2="683" y1="582" y2="587"/>
<line fill="#000000" stroke="#000000" stroke-width="1" x1="683" x2="683" y1="592" y2="597"/>
<line fill="#000000" stroke="#000000" stroke-width="1" x1="683" x2="683" y1="602" y2="607"/>
<line fill="#000000" stroke="#000000" stroke-width="1" x1="683" x2="683" y1="612" y2="617"/>
<line fill="#000000" stroke="#000000" stroke-width="1" x1="676" x2="683" y1="610" y2="622"/>
<line fill="#000000" stroke="#000000" stroke-width="1" x1="690" x2="683" y1="610" y2="622"/>
<line fill="#000000" stroke="#000000" stroke-width="1" x1="739" x2="739" y1="286" y2="291"/>
<line fill="#000000" stroke="#000000" stroke-width="1" x1="739" x2="739" y1="296" y2="301"/>
<line fill="#000000" stroke="#000000" stroke-width="1" x1="739" x2="739" y1="306" y2="311"/>
<line fill="#000000" stroke="#000000" stroke-width="1" x1="739" x2="739" y1="316" y2="321"/>
<line fill="#000000" stroke="#000000" stroke-width="1" x1="739" x2="739" y1="326" y2="331"/>
<line fill="#000000" stroke="#000000" stroke-width="1" x1="739" x2="739" y1="336" y2="341"/>
<line fill="#000000" stroke="#000000" stroke-width="1" x1="739" x2="739" y1="346" y2="351"/>
<line fill="#000000" stroke="#000000" stroke-width="1" x1="739" x2="739" y1="356" y2="361"/>
<line fill="#000000" stroke="#000000" stroke-width="1" x1="739" x2="739" y1="366" y2="371"/>
<line fill="#000000" stroke="#000000" stroke-width="1" x1="739" x2="739" y1="376" y2="381"/>
<line fill="#000000" stroke="#000000" stroke-width="1" x1="739" x2="739" y1="386" y2="391"/>
<line fill="#000000" stroke="#000000" stroke-width="1" x1="739" x2="739" y1="396" y2="401"/>
<line fill="#000000" stroke="#000000" stroke-width="1" x1="739" x2="739" y1="406" y2="411"/>
<line fill="#000000" stroke="#000000" stroke-width="1" x1="739" x2="739" y1="416" y2="421"/>
<line fill="#000000" stroke="#000000" stroke-width="1" x1="739" x2="739" y1="426" y2="431"/>
<line fill="#000000" stroke="#000000" stroke-width="1" x1="739" x2="739" y1="436" y2="441"/>
<line fill="#000000" stroke="#000000" stroke-width="1" x1="739" x2="739" y1="446" y2="451"/>
<line fill="#000000" stroke="#000000" stroke-width="1" x1="739" x2="739" y1="456" y2="461"/>
<line fill="#000000" stroke="#000000" stroke-width="1" x1="739" x2="739" y1="466" y2="471"/>
<line fill="#000000" stroke="#000000" stroke-width="1" x1="739" x2="739" y1="476" y2="481"/>
<line fill="#000000" stroke="#000000" stroke-width="1" x1="739" x2="739" y1="486" y2="491"/>
<line fill="#000000" stroke="#000000" stroke-width="1" x1="739" x2="739" y1="496" y2="501"/>
<line fill="#000000" stroke="#000000" stroke-width="1" x1="739" x2="739" y1="506" y2="511"/>
<line fill="#000000" stroke="#000000" stroke-width="1" x1="739" x2="739" y1="516" y2="521"/>
<line fill="#000000" stroke="#000000" stroke-width="1" x1="739" x2="739" y1="526" y2="531"/>
<line fill="#000000" stroke="#000000" stroke-width="1" x1="739" x2="739" y1="536" y2="541"/>
<line fill="#000000" stroke="#000000" stroke-width="1" x1="739" x2="739" y1="546" y2="551"/>
<line fill="#000000" stroke="#000000" stroke-width="1" x1="739" x2="739" y1="556" y2="561"/>
<line fill="#000000" stroke="#000000" stroke-width="1" x1="739" x2="739" y1="566" y2="571"/>
<line fill="#000000" stroke="#000000" stroke-width="1" x1="739" x2="739" y1="576" y2="581"/>
<line fill="#000000" stroke="#000000" stroke-width="1" x1="739" x2="739" y1="586" y2="591"/>
<line fill="#000000" stroke="#000000" stroke-width="1" x1="739" x2="739" y1="596" y2="601"/>
<line fill="#000000" stroke="#000000" stroke-width="1" x1="739" x2="739" y1="606" y2="611"/>
<line fill="#000000" stroke="#000000" stroke-width="1" x1="739" x2="739" y1="616" y2="621"/>
<line fill="#000000" stroke="#000000" stroke-width="1" x1="732" x2="739" y1="610" y2="622"/>
<line fill="#000000" stroke="#000000" stroke-width="1" x1="746" x2="739" y1="610" y2="622"/>
<line fill="#000000" stroke="#000000" stroke-width="1" x1="379" x2="379" y1="502" y2="507"/>
<line fill="#000000" stroke="#000000" stroke-width="1" x1="379" x2="379" y1="512" y2="517"/>
<line fill="#000000" stroke="#000000" stroke-width="1" x1="379" x2="379" y1="522" y2="527"/>
<line fill="#000000" stroke="#000000" stroke-width="1" x1="379" x2="379" y1="532" y2="537"/>
<line fill="#000000" stroke="#000000" stroke-width="1" x1="379" x2="379" y1="542" y2="547"/>
<line fill="#000000" stroke="#000000" stroke-width="1" x1="379" x2="384" y1="550" y2="550"/>
<line fill="#000000" stroke="#000000" stroke-width="1" x1="389" x2="394" y1="550" y2="550"/>
<line fill="#000000" stroke="#000000" stroke-width="1" x1="399" x2="404" y1="550" y2="550"/>
<line fill="#000000" stroke="#000000" stroke-width="1" x1="409" x2="414" y1="550" y2="550"/>
<line fill="#000000" stroke="#000000" stroke-width="1" x1="419" x2="424" y1="550" y2="550"/>
<line fill="#000000" stroke="#000000" stroke-width="1" x1="429" x2="434" y1="550" y2="550"/>
<line fill="#000000" stroke="#000000" stroke-width="1" x1="439" x2="444" y1="550" y2="550"/>
<line fill="#000000" stroke="#000000" stroke-width="1" x1="449" x2="454" y1="550" y2="550"/>
<line fill="#000000" stroke="#000000" stroke-width="1" x1="459" x2="464" y1="550" y2="550"/>
<line fill="#000000" stroke="#000000" stroke-width="1" x1="469" x2="474" y1="550" y2="550"/>
<line fill="#000000" stroke="#000000" stroke-width="1" x1="479" x2="484" y1="550" y2="550"/>
<line fill="#000000" stroke="#000000" stroke-width="1" x1="489" x2="494" y1="550" y2="550"/>
<line fill="#000000" stroke="#000000" stroke-width="1" x1="499" x2="504" y1="550" y2="550"/>
<line fill="#000000" stroke="#000000" stroke-width="1" x1="509" x2="514" y1="550" y2="550"/>
<line fill="#000000" stroke="#000000" stroke-width="1" x1="519" x2="524" y1="550" y2="550"/>
<line fill="#000000" stroke="#000000" stroke-width="1" x1="529" x2="534" y1="550" y2="550"/>
<line fill="#000000" stroke="#000000" stroke-width="1" x1="539" x2="544" y1="550" y2="550"/>
<line fill="#000000" stroke="#000000" stroke-width="1" x1="549" x2="554" y1="550" y2="550"/>
<line fill="#000000" stroke="#000000" stroke-width="1" x1="559" x2="564" y1="550" y2="550"/>
<line fill="#000000" stroke="#000000" stroke-width="1" x1="569" x2="574" y1="550" y2="550"/>
<line fill="#000000" stroke="#000000" stroke-width="1" x1="579" x2="584" y1="550" y2="550"/>
<line fill="#000000" stroke="#000000" stroke-width="1" x1="589" x2="594" y1="550" y2="550"/>
<line fill="#000000" stroke="#000000" stroke-width="1" x1="599" x2="604" y1="550" y2="550"/>
<line fill="#000000" stroke="#000000" stroke-width="1" x1="609" x2="614" y1="550" y2="550"/>
<line fill="#000000" stroke="#000000" stroke-width="1" x1="619" x2="624" y1="550" y2="550"/>
<line fill="#000000" stroke="#000000" stroke-width="1" x1="627" x2="627" y1="550" y2="555"/>
<line fill="#000000" stroke="#000000" stroke-width="1" x1="627" x2="627" y1="560" y2="565"/>
<line fill="#000000" stroke="#000000" stroke-width="1" x1="627" x2="627" y1="570" y2="575"/>
<line fill="#000000" stroke="#000000" stroke-width="1" x1="627" x2="627" y1="580" y2="585"/>
<line fill="#000000" stroke="#000000" stroke-width="1" x1="627" x2="627" y1="590" y2="595"/>
<line fill="#000000" stroke="#000000" stroke-width="1" x1="627" x2="627" y1="600" y2="605"/>
<line fill="#000000" stroke="#000000" stroke-width="1" x1="627" x2="627" y1="610" y2="615"/>
<line fill="#000000" stroke="#000000" stroke-width="1" x1="627" x2="627" y1="620" y2="622"/>
<line fill="#000000" stroke="#000000" stroke-width="1" x1="620" x2="627" y1="610" y2="622"/>
<line fill="#000000" stroke="#000000" stroke-width="1" x1="634" x2="627" y1="610" y2="622"/>
<rect fill="#ffffff" height="68" stroke="#ffffff" stroke-width="1" width="106" x="395" y="86"/>
<rect fill="none" height="68" stroke="#000000" stroke-width="1" width="106" x="395" y="86"/>
<text font-family="Dialog" font-size="12" font-weight="bold" x="400" y="100">
ListenerTransfer</text>
<rect fill="#000000" height="1" stroke="#000000" stroke-width="1" width="106" x="395" y="110"/>
<rect fill="#000000" height="1" stroke="#000000" stroke-width="1" width="106" x="395" y="131"/>
<polyline fill="none" points="419,198 419,153" stroke="#333399" stroke-width="1"/>
<polygon fill="#ffffff" points="419,153 426,165 412,165" stroke="#ffffff" stroke-width="1"/>
<polygon fill="none" points="419,153 426,165 412,165" stroke="#333399" stroke-width="1"/>
<polyline fill="none" points="275,198 275,118 395,118" stroke="#333399" stroke-width="1"/>
<polygon fill="#ffffff" points="395,118 383,125 383,111" stroke="#ffffff" stroke-width="1"/>
<polygon fill="none" points="395,118 383,125 383,111" stroke="#333399" stroke-width="1"/>
<polyline fill="none" points="475,198 475,153" stroke="#333399" stroke-width="1"/>
<polygon fill="#ffffff" points="475,153 482,165 468,165" stroke="#ffffff" stroke-width="1"/>
<polygon fill="none" points="475,153 482,165 468,165" stroke="#333399" stroke-width="1"/>
<polyline fill="none" points="651,198 651,118 500,118" stroke="#333399" stroke-width="1"/>
<polygon fill="#ffffff" points="500,118 512,111 512,125" stroke="#ffffff" stroke-width="1"/>
<polygon fill="none" points="500,118 512,111 512,125" stroke="#333399" stroke-width="1"/>
<polyline fill="none" points="291,750 291,729" stroke="#333399" stroke-width="1"/>
<polygon fill="#ffffff" points="291,729 298,741 284,741" stroke="#ffffff" stroke-width="1"/>
<polygon fill="none" points="291,729 298,741 284,741" stroke="#333399" stroke-width="1"/>
<polyline fill="none" points="491,750 491,728" stroke="#333399" stroke-width="1"/>
<polygon fill="#ffffff" points="491,728 498,740 484,740" stroke="#ffffff" stroke-width="1"/>
<polygon fill="none" points="491,728 498,740 484,740" stroke="#333399" stroke-width="1"/>
<polyline fill="none" points="411,750 411,729" stroke="#333399" stroke-width="1"/>
<polygon fill="#ffffff" points="411,729 418,741 404,741" stroke="#ffffff" stroke-width="1"/>
<polygon fill="none" points="411,729 418,741 404,741" stroke="#333399" stroke-width="1"/>
<rect fill="#ffffff" height="68" stroke="#ffffff" stroke-width="1" width="85" x="699" y="86"/>
<rect fill="none" height="68" stroke="#000000" stroke-width="1" width="85" x="699" y="86"/>
<text font-family="Dialog" font-size="12" font-weight="bold" x="704" y="100">
ChatTransfer</text>
<rect fill="#000000" height="1" stroke="#000000" stroke-width="1" width="85" x="699" y="110"/>
<rect fill="#000000" height="1" stroke="#000000" stroke-width="1" width="85" x="699" y="131"/>
<rect fill="#ffffff" height="68" stroke="#ffffff" stroke-width="1" width="78" x="707" y="198"/>
<rect fill="none" height="68" stroke="#000000" stroke-width="1" width="78" x="707" y="198"/>
<text font-family="Dialog" font-size="12" font-weight="bold" x="712" y="212">
FileTransfer</text>
<rect fill="#000000" height="1" stroke="#000000" stroke-width="1" width="78" x="707" y="222"/>
<rect fill="#000000" height="1" stroke="#000000" stroke-width="1" width="78" x="707" y="243"/>
</svg>
